<?xml version="1.0" encoding="UTF-8" standalone="no"?><!DOCTYPE svg PUBLIC "-//W3C//DTD SVG 1.1//EN" "http://www.w3.org/Graphics/SVG/1.1/DTD/svg11.dtd"><svg width="100%" height="100%" viewBox="0 0 1680 1050" version="1.1" xmlns="http://www.w3.org/2000/svg" xmlns:xlink="http://www.w3.org/1999/xlink" xml:space="preserve" style="fill-rule:evenodd;clip-rule:evenodd;stroke-linejoin:round;stroke-miterlimit:1.41421;"><g><path d="M756.957,639.809c0.959,5.738 8.615,14.67 17.242,27.755c4.247,6.441 0.922,15.485 -2.408,19.851c-3.038,3.985 -11.96,11.083 -11.96,11.083c0,0 9.568,3.827 10.846,12.123c1.28,8.294 2.549,16.583 -10.209,24.877c-7.036,4.577 -8.931,4.467 -8.931,12.123c0,7.654 21.689,50.396 -29.984,62.519c-51.675,12.124 -125.038,1.909 -135.249,28.069c-5.818,14.91 -10.186,36.452 -12.158,57.304c-0.208,2.208 8.805,6.221 8.65,8.407c-0.94,13.367 -6.196,23.35 -4.783,33.492c3.203,22.969 5.065,90.406 5.586,111.755l-367.039,0c5.087,-95.622 85.852,-190.225 85.852,-190.225c0,0 3.511,-21.368 7.657,-25.835c4.148,-4.467 18.824,-0.64 18.824,-0.64l2.07,-8.291c0,0 -50.638,-29.346 -78.069,-50.401c-27.434,-21.049 -141.744,-103.98 -141.744,-258.373c0,-154.381 56.08,-142.897 56.08,-142.897c0,0 39.524,-84.211 107.145,-114.832c67.62,-30.621 149.381,-30.801 205.402,-26.794c53.576,3.83 169.049,17.863 166.175,75.277c0,0 54.07,35.249 74.166,79.268c20.093,44.019 15.07,84.129 9.329,113.794c-5.742,29.662 -7.256,55.742 8.494,71.732c8.601,8.728 39.112,29.572 39.112,38.232c0,18.503 -21.052,24.882 -20.096,30.627Z" style="fill:#fff;fill-rule:nonzero;"/><path d="M177.473,518.677c0,-10.457 4.913,-19.837 12.349,-26.092l3.224,3.359c-6.54,5.417 -10.672,13.595 -10.672,22.733c0,16.28 13.266,29.526 29.547,29.526c8.409,0 16.015,-3.542 21.399,-9.196l3.009,3.353c-5.756,5.959 -15.629,9.831 -22.57,10.361l0,10.372c10.409,0.246 18.469,1.658 18.963,3.382c0.316,0.744 0.09,1.971 0.09,2.335c0,1.982 -9.87,3.595 -22.093,3.595c-12.214,0 -22.107,-1.613 -22.107,-3.595c0,-0.404 -0.69,-1.628 -0.304,-2.392c0.657,-1.706 11.579,-3.085 18.517,-3.33l0,-10.587c-17.344,-2.166 -29.352,-16.503 -29.352,-33.824Z" style="fill:#00726a;fill-rule:nonzero;"/><path d="M225.953,532.791l-4.926,-4.427c-3.672,4.148 -8.729,7.817 -15.674,9.949c1.875,0.578 3.874,0.897 5.942,0.897c5.786,0 11.001,-2.476 14.658,-6.419Zm5.336,-13.573c0,-2.786 -0.572,-5.437 -1.607,-7.846c-1.024,4.112 -3.015,9.64 -6.836,14.752l4.912,4.417c2.225,-3.221 3.531,-7.121 3.531,-11.323Zm-33.004,-15.161l5.068,4.552c5.057,-4.453 10.719,-6.904 14.718,-8.201c-2.12,-0.764 -4.399,-1.182 -6.776,-1.182c-4.964,0 -9.513,1.825 -13.01,4.831Zm11.628,14.323l-6.585,-5.919c-4.027,4.21 -7.358,10.048 -8.461,18.133c0.514,0.742 1.072,1.444 1.678,2.104l13.368,-14.318Zm2.143,1.921l-13.424,14.374c0.787,0.646 1.622,1.227 2.49,1.748c8.201,-1.709 13.881,-5.518 17.835,-9.923l-6.901,-6.199Zm11.672,-16.72c-0.583,-0.463 -1.19,-0.897 -1.821,-1.298c-3.266,0.742 -10.336,2.843 -16.484,8.193l6.455,5.798l11.85,-12.693Zm-9.709,14.619l6.757,6.063c4.571,-6.156 6.207,-12.936 6.791,-16.638c-0.525,-0.734 -1.103,-1.43 -1.718,-2.093l-11.83,12.668Zm-22.716,1.018c0,2.58 0.496,5.048 1.396,7.321c1.599,-6.847 4.797,-12.031 8.562,-15.934l-5.026,-4.52c-3.071,3.519 -4.932,8.11 -4.932,13.133Zm19.992,-25.75c14.202,0 25.753,11.551 25.753,25.75c0,14.196 -11.551,25.748 -25.753,25.748c-14.2,0 -25.748,-11.552 -25.748,-25.748c0,-14.199 11.548,-25.75 25.748,-25.75Z" style="fill:#00726a;fill-rule:nonzero;"/><path d="M387.388,309.419l4.802,5.606l-13.125,11.244l-4.799,-5.606c-1.594,-1.856 -1.055,-4.741 0.812,-6.331l6.39,-5.48c1.859,-1.593 4.326,-1.294 5.92,0.567Z" style="fill:#00726a;fill-rule:nonzero;"/><path d="M442.882,387.079l-3.088,-10.24l-3.08,-10.245l-6.571,5.626l-6.557,5.62l9.648,4.62l9.648,4.619Z" style="fill:#00726a;fill-rule:nonzero;"/><path d="M429.06,367.412l2.318,-2.135l-38.235,-44.611l-2.32,2.132l38.237,44.614Zm-35.31,-50.686l41.326,48.224l-13.12,11.246l-41.328,-48.226l13.122,-11.244Z" style="fill:#00726a;fill-rule:nonzero;"/><path d="M411.356,440.847c11.286,0 20.434,-9.145 20.434,-20.437c0,-11.289 -9.148,-20.44 -20.434,-20.44c-11.292,0 -20.44,9.151 -20.44,20.44c0,11.292 9.148,20.437 20.44,20.437Zm-25.621,-15.88l-5.598,-4.52l5.592,-4.535l-3.714,-6.165l6.805,-2.349l-1.384,-7.062l7.199,0.122l1.106,-7.11l6.729,2.575l3.477,-6.3l5.437,4.721l5.423,-4.735l3.491,6.294l6.715,-2.589l1.131,7.11l7.199,-0.138l-1.373,7.067l6.813,2.335l-3.705,6.17l5.601,4.521l-5.595,4.529l3.716,6.165l-6.796,2.349l1.382,7.059l-7.2,-0.122l-1.114,7.113l-6.72,-2.575l-3.483,6.303l-5.434,-4.718l-5.423,4.729l-3.495,-6.294l-6.714,2.591l-1.128,-7.106l-7.2,0.132l1.373,-7.067l-6.807,-2.329l3.694,-6.171Z" style="fill:#00726a;fill-rule:nonzero;"/><path d="M421.156,447.105l7.326,2.809l1.213,-7.753l4.994,0.085l11.441,25.155l-13.392,-7.837l-3.023,15.308l-10.793,-23.717l2.234,-4.05Z" style="fill:#00726a;fill-rule:nonzero;"/><path d="M388.58,442.288l4.583,-0.087l1.235,7.75l7.316,-2.823l2.465,4.433l-10.61,23.311l-3.029,-15.308l-13.387,7.837l11.427,-25.113Z" style="fill:#00726a;fill-rule:nonzero;"/><path d="M410.481,428.351l3.466,0l0,-13.875l-1.334,0l3.96,1.828l0.97,-3.41l-5.197,-1.886l-1.865,0l0,17.343Zm0.875,-26.252c10.11,0 18.311,8.201 18.311,18.311c0,10.116 -8.201,18.317 -18.311,18.317c-10.119,0 -18.32,-8.201 -18.32,-18.317c0,-10.11 8.201,-18.311 18.32,-18.311Z" style="fill:#00726a;fill-rule:nonzero;"/><path d="M275.077,319.287c1.85,0 3.026,-0.717 3.026,-0.717l1.709,12.053c0,0 -1.977,1.557 -5.339,1.557c-3.358,0 -5.276,-1.557 -5.276,-1.557l2.518,-12.233c0,0 1.503,0.897 3.362,0.897Z" style="fill:#00726a;fill-rule:nonzero;"/><path d="M354.979,306.946l0,27.992l-43.323,0.722l-26.057,-5.671l0,-28.72l25.336,5.677l44.044,0Z" style="fill:#00726a;fill-rule:nonzero;"/><path d="M321.146,296.537c-0.217,0 -1.85,-3.415 -3.835,-3.415c-1.98,0 -3.61,3.415 -3.833,3.415l7.668,0Zm-49.419,-2.744l0,-0.722l54.887,0l42.243,6.029l0,4.374l-57.922,0l-32.271,-8.048l0,16.297c0,0.488 0.395,1.43 0.395,2.53c0,1.587 -1.859,2.876 -3.443,2.876c-1.597,0 -2.324,-1.289 -2.324,-2.876c0,-1.024 1.906,-1.918 1.906,-2.431l0,-17.048l-3.471,-0.981Z" style="fill:#00726a;fill-rule:nonzero;"/><path d="M465.984,462.878c0,0 5.677,-2.558 18.395,-2.558c9.14,0 16.292,1.326 16.292,2.067l0,-53.802c-3.471,-1.21 -8.615,-3.669 -17.197,-3.669c-11.356,0 -17.49,4.324 -17.49,4.324l0,53.638Zm41.625,-0.491c0,-0.741 7.146,-2.067 16.289,-2.067c12.716,0 18.398,2.558 18.398,2.558l0,-53.638c0,0 -6.131,-4.324 -17.507,-4.324c-8.565,0 -13.712,2.459 -17.18,3.669l0,53.802Zm-44.028,-57.098c0.319,-0.206 7.857,-5.043 20.587,-5.043c9.698,0 16.988,2.792 20.065,4.182c3.074,-1.39 10.418,-4.182 20.124,-4.182c12.725,0 20.037,4.837 20.356,5.043c0.925,0.586 1.052,1.607 1.052,2.704l0,56.346c0,1.06 -0.127,3.443 -1.004,4.038c-0.11,0.079 -1.063,1.602 -3.365,1.602l-34.315,0c-0.208,3.469 -1.599,1.678 -3.313,1.678c-1.709,0 -3.102,1.791 -3.317,-1.678l-36.844,0c-1.247,0 -1.097,-4.667 -1.097,-5.64l0,-56.346c0,-1.097 0.146,-2.118 1.071,-2.704Z" style="fill:#00726a;fill-rule:nonzero;"/><path d="M538.275,418.061c0.389,0 0.753,-0.268 0.896,-0.702c0.184,-0.556 -0.073,-1.171 -0.566,-1.371c-4.995,-2.05 -15.161,-4.848 -27.144,-0.592c-0.502,0.18 -0.778,0.781 -0.62,1.342c0.158,0.564 0.702,0.872 1.201,0.694c11.447,-4.061 21.139,-1.388 25.903,0.561l0.33,0.068Z" style="fill:#00726a;fill-rule:nonzero;"/><path d="M538.06,428.763c0.389,0 0.756,-0.271 0.9,-0.705c0.186,-0.55 -0.073,-1.165 -0.57,-1.37c-4.991,-2.051 -15.152,-4.845 -27.138,-0.59c-0.499,0.178 -0.787,0.778 -0.623,1.345c0.161,0.562 0.702,0.869 1.201,0.694c11.439,-4.064 21.14,-1.393 25.9,0.558l0.33,0.068Z" style="fill:#00726a;fill-rule:nonzero;"/><path d="M538.275,439.465c0.389,0 0.753,-0.267 0.896,-0.702c0.184,-0.553 -0.073,-1.17 -0.566,-1.373c-4.995,-2.048 -15.161,-4.848 -27.144,-0.595c-0.502,0.183 -0.778,0.784 -0.62,1.348c0.158,0.564 0.702,0.871 1.201,0.696c11.447,-4.066 21.139,-1.396 25.903,0.562l0.33,0.064Z" style="fill:#00726a;fill-rule:nonzero;"/><path d="M538.275,450.171c0.389,0 0.753,-0.271 0.896,-0.705c0.184,-0.556 -0.073,-1.174 -0.566,-1.374c-4.995,-2.047 -15.161,-4.848 -27.144,-0.589c-0.502,0.177 -0.778,0.781 -0.62,1.342c0.158,0.567 0.702,0.872 1.201,0.697c11.447,-4.064 21.139,-1.393 25.903,0.561l0.33,0.068Z" style="fill:#00726a;fill-rule:nonzero;"/><path d="M497.256,418.061c0.392,0 0.762,-0.268 0.9,-0.702c0.183,-0.556 -0.074,-1.171 -0.567,-1.371c-4.995,-2.05 -15.155,-4.848 -27.135,-0.592c-0.505,0.18 -0.784,0.781 -0.626,1.342c0.161,0.564 0.699,0.872 1.204,0.694c11.438,-4.061 21.134,-1.388 25.897,0.561l0.327,0.068Z" style="fill:#00726a;fill-rule:nonzero;"/><path d="M497.045,428.763c0.394,0 0.755,-0.271 0.902,-0.705c0.178,-0.55 -0.076,-1.165 -0.572,-1.37c-4.989,-2.051 -15.156,-4.845 -27.138,-0.59c-0.502,0.178 -0.781,0.778 -0.621,1.345c0.161,0.562 0.7,0.869 1.199,0.694c11.444,-4.064 21.139,-1.393 25.902,0.558l0.328,0.068Z" style="fill:#00726a;fill-rule:nonzero;"/><path d="M497.256,439.465c0.392,0 0.762,-0.267 0.9,-0.702c0.183,-0.553 -0.074,-1.17 -0.567,-1.373c-4.995,-2.048 -15.155,-4.848 -27.135,-0.595c-0.505,0.183 -0.784,0.784 -0.626,1.348c0.161,0.564 0.699,0.871 1.204,0.696c11.438,-4.066 21.134,-1.396 25.897,0.562l0.327,0.064Z" style="fill:#00726a;fill-rule:nonzero;"/><path d="M497.256,450.171c0.392,0 0.762,-0.271 0.9,-0.705c0.183,-0.556 -0.074,-1.174 -0.567,-1.374c-4.995,-2.047 -15.155,-4.848 -27.135,-0.589c-0.505,0.177 -0.784,0.781 -0.626,1.342c0.161,0.567 0.699,0.872 1.204,0.697c11.438,-4.064 21.134,-1.393 25.897,0.561l0.327,0.068Z" style="fill:#00726a;fill-rule:nonzero;"/><path d="M267.674,558.714c0,1.517 1.233,2.752 2.755,2.752c1.518,0 2.75,-1.235 2.75,-2.752c0,-1.52 -1.232,-2.756 -2.75,-2.756c-1.522,0 -2.755,1.236 -2.755,2.756Z" style="fill:#00726a;fill-rule:nonzero;"/><path d="M266.329,581.568c2.228,0 4.036,-1.802 4.036,-4.027c0,-2.231 -1.808,-4.039 -4.036,-4.039c-2.225,0 -4.033,1.808 -4.033,4.039c0,2.225 1.808,4.027 4.033,4.027Zm7.939,-8.963c0.953,0 1.731,-0.769 1.731,-1.725c0,-0.956 -0.778,-1.729 -1.731,-1.729c-0.954,0 -1.729,0.773 -1.729,1.729c0,0.956 0.775,1.725 1.729,1.725Zm-19.69,9.157l1.19,-1.274c2.371,-4.056 5.321,-9.913 8.271,-13.382l14.349,0c4.436,6.938 9.106,13.875 11.435,17.338l-37.473,0c0.617,0 1.379,-1.235 2.228,-2.682Z" style="fill:#00726a;fill-rule:nonzero;"/><path d="M247.513,588.206c0.133,0.251 0.764,-0.29 1.292,-0.29l44.199,0c0.542,0 1.289,0.541 1.441,0.318c0.291,-0.707 0.192,-0.547 -0.056,-0.984c-0.085,-0.144 -0.434,-0.428 -0.914,-1.246c-2.428,-4.092 -8.894,-14.845 -14.301,-24.953c-0.256,-0.471 -0.51,-0.885 -0.51,-1.426l0,-23.737l-13.872,0l0,22.546c0,0.581 -0.386,1.143 -0.68,1.639c-4.323,7.442 -9.078,15.499 -12.309,21.013c-1.972,3.37 -3.779,5.792 -3.954,6.111c-0.454,0.823 -0.46,0.708 -0.336,1.009Zm-3.635,-0.925c0.434,-0.809 10.505,-15.947 17.44,-29.191l0,-20.598c-3.463,-0.132 -3.463,-0.891 -3.463,-1.799l0,-0.189c0,-1.007 1.545,-3.085 2.555,-3.085l22.473,0c1.004,0 2.716,2.078 2.716,3.085l0,0.189c0,1.007 -1.712,0.195 -2.716,0.195l-0.747,0l0,23.463c6.934,12.913 15.823,27.143 16.255,27.93c0.789,1.444 1.035,3.015 0.361,4.645c-0.601,1.475 -2.586,2.93 -4.572,2.93l-46.562,0c-1.986,0 -3.74,-1.455 -4.343,-2.93c-0.674,-1.63 -0.198,-3.201 0.603,-4.645Z" style="fill:#00726a;fill-rule:nonzero;"/><path d="M347.819,395.446c1.421,1.064 2.924,1.924 4.486,2.603l-13.795,18.447c-1.244,1.655 -4.013,1.686 -6.179,0.062c-2.177,-1.622 -2.925,-4.287 -1.687,-5.945l13.734,-18.356c1.013,1.159 2.163,2.231 3.441,3.189Z" style="fill:#00726a;fill-rule:nonzero;"/><path d="M352.317,389.434c7.831,5.86 18.934,4.261 24.791,-3.579c5.861,-7.828 4.259,-18.931 -3.576,-24.786c-7.831,-5.863 -18.934,-4.264 -24.791,3.573c-5.86,7.832 -4.256,18.932 3.576,24.792Zm23.985,-32.067c9.876,7.385 11.898,21.384 4.512,31.26c-7.394,9.879 -21.391,11.896 -31.264,4.51c-9.881,-7.395 -11.898,-21.385 -4.509,-31.264c7.394,-9.876 21.388,-11.895 31.261,-4.506Z" style="fill:#00726a;fill-rule:nonzero;"/><path d="M369.429,366.952c-4.848,-2.781 -10.993,-1.94 -14.915,2.011l-3.494,-2.197c5.307,-5.979 14.238,-7.248 21.006,-2.97l-2.597,3.156Z" style="fill:#00726a;fill-rule:nonzero;"/><path d="M298.323,431.905c-0.925,-1.044 -2.617,-2.019 -4.921,-3.043c0.778,-0.322 1.275,-0.587 1.32,-0.764c0.316,-1.354 0.304,-5.59 -0.206,-6.396c-0.076,-0.125 -1.416,-1.176 -1.698,-2.228c-0.282,-1.055 -0.589,-3.167 -0.589,-3.167c0,0 -1.219,0.2 -1.991,-2.395c-0.77,-2.591 -1.357,-3.984 0.225,-4.469c-0.479,-3.895 -1.703,-12.88 9.73,-13.207l0.598,0.897l0.064,0l0.063,0l0.603,-0.897c11.424,0.327 10.209,9.763 9.724,13.655c1.579,0.485 0.995,1.655 0.225,4.25c-0.77,2.592 -1.985,2.279 -1.985,2.279c0,0 -0.305,2.053 -0.589,3.107c-0.285,1.055 -1.622,2.076 -1.698,2.203c-0.513,0.809 -0.654,5.513 -0.206,6.382c0.395,0.778 10.274,3.528 12.033,5.53c1.763,2.008 1.58,10.389 1.58,10.389c0,0 -7.265,0.057 -18.684,-0.031c-0.31,0.003 -0.623,0.003 -0.939,0.006c-0.107,-3.982 -0.628,-9.794 -2.659,-12.101Z" style="fill:#00726a;fill-rule:nonzero;"/><path d="M222.947,433.633c1.763,-2.005 11.845,-4.72 12.034,-5.535c0.318,-1.354 0.304,-5.59 -0.206,-6.396c-0.074,-0.125 -1.416,-1.176 -1.701,-2.228c-0.279,-1.055 -0.592,-3.167 -0.592,-3.167c0,0 -1.21,0.2 -1.98,-2.395c-0.772,-2.591 -1.356,-3.984 0.223,-4.469c-0.485,-3.895 -1.7,-12.88 9.724,-13.207l0.603,0.897l0.068,0l0.059,0l0.601,-0.897c11.424,0.327 10.212,9.763 9.726,13.655c1.58,0.485 0.996,1.655 0.223,4.25c-0.772,2.592 -1.985,2.279 -1.985,2.279c0,0 -0.308,2.053 -0.59,3.107c-0.284,1.055 -1.624,2.076 -1.7,2.203c-0.508,0.809 -0.646,5.513 -0.203,6.382c0.138,0.273 1.418,0.775 3.108,1.407c-1.633,0.79 -2.851,1.562 -3.576,2.389c-2.031,2.312 -2.558,8.124 -2.671,12.106c-0.634,-0.005 0.127,-0.011 -0.53,-0.014c-0.333,0.003 0.395,-0.178 0.395,-0.178l0,-1.596l-2.857,0l2.857,0l0,1.599c-3.472,-0.003 -2.135,0.085 -2.468,0.082c-11.421,0.093 -19.411,0.073 -19.411,0.073c0,0 -0.916,-8.341 0.849,-10.347Z" style="fill:#00726a;fill-rule:nonzero;"/><path d="M248.576,433.487c2.327,-2.648 15.629,-6.238 15.878,-7.307c0.42,-1.788 0.406,-7.375 -0.266,-8.438c-0.101,-0.163 -1.869,-1.551 -2.244,-2.938c-0.373,-1.391 -0.779,-4.174 -0.779,-4.174c0,0 -1.604,0.256 -2.62,-3.162c-1.012,-3.42 -1.79,-5.259 0.294,-5.902c-0.638,-5.133 -2.248,-18.176 12.826,-18.601c0.276,-0.012 0.535,-0.003 0.8,0l0,-0.003l0.082,0l0.079,0l0,0.003c0.268,-0.003 0.528,-0.012 0.801,0c15.079,0.425 13.469,13.468 12.823,18.601c2.087,0.643 1.32,2.482 0.302,5.902c-1.018,3.418 -2.62,3.162 -2.62,3.162c0,0 -0.4,2.783 -0.778,4.174c-0.378,1.387 -2.146,2.775 -2.245,2.938c-0.663,1.063 -0.855,7.29 -0.262,8.438c0.516,1.026 13.545,4.659 15.871,7.307c2.324,2.642 2.084,13.708 2.084,13.708c0,0 -9.585,0.079 -24.648,-0.039c-0.437,0.003 -0.879,0.008 -1.328,0.008l-0.161,0c-0.448,0 -0.885,-0.005 -1.325,-0.008c-15.065,0.118 -24.645,0.039 -24.645,0.039c0,0 -0.242,-11.066 2.081,-13.708Z" style="fill:#00726a;fill-rule:nonzero;"/><path d="M274.648,369.989l0.897,-15.175l-6.396,0l0.891,15.175l4.608,0Zm-2.27,8.396c2.064,0 3.511,-1.52 3.511,-3.545c0,-2.135 -1.447,-3.579 -3.511,-3.579c-2.101,0 -3.505,1.444 -3.539,3.579c0,2.025 1.407,3.545 3.505,3.545l0.034,0Z" style="fill:#00726a;fill-rule:nonzero;"/><path d="M455.933,330.756c15.979,0 28.932,-12.953 28.932,-28.934c0,-15.985 -12.953,-28.937 -28.932,-28.937c-15.981,0 -28.94,12.952 -28.94,28.937c0,15.981 12.959,28.934 28.94,28.934Zm12.944,7.197c15.985,0 28.943,-12.958 28.943,-28.937c0,-10.793 -5.916,-20.201 -14.676,-25.173c3.413,5.153 5.409,11.329 5.409,17.979c0,18.012 -14.608,32.62 -32.62,32.62c-0.304,0 -0.606,-0.017 -0.9,-0.023c4.115,2.251 8.83,3.534 13.844,3.534Zm-45.567,-36.131c0,-18.018 14.603,-32.62 32.623,-32.62c8.427,0 16.111,3.2 21.901,8.446c13.663,3.897 23.666,16.461 23.666,31.368c0,18.015 -14.605,32.617 -32.623,32.617c-8.423,0 -16.097,-3.198 -21.889,-8.446c-13.664,-3.883 -23.678,-16.455 -23.678,-31.365Z" style="fill:#00726a;fill-rule:nonzero;"/><path d="M455.933,296.032c3.19,0 5.784,2.592 5.784,5.79c0,3.192 -2.594,5.784 -5.784,5.784c-3.198,0 -5.787,-2.592 -5.787,-5.784c0,-3.198 2.589,-5.79 5.787,-5.79Z" style="fill:#00726a;fill-rule:nonzero;"/><path d="M449.39,276.339l4.862,17.773c-1.827,0.397 -3.412,1.426 -4.523,2.845l-13.272,-12.812c3.407,-3.75 7.871,-6.514 12.933,-7.806Z" style="fill:#00726a;fill-rule:nonzero;"/><path d="M433.792,287.628l15.133,10.578c-0.406,0.782 -0.682,1.642 -0.806,2.55l-16.597,-8.748c0.626,-1.537 1.388,-3.001 2.27,-4.38Z" style="fill:#00726a;fill-rule:nonzero;"/><path d="M543.167,487.32l26.935,0c2.358,0 3.413,0.631 3.413,2.995l0,18.612c0,2.364 -1.055,2.677 -3.413,2.677l-12.07,0l-1.751,5.445l-6.613,-5.445l-6.501,0c-2.357,0 -4.34,-0.313 -4.34,-2.677l0,-18.612c0,-2.364 1.983,-2.995 4.34,-2.995Z" style="fill:#00726a;fill-rule:nonzero;"/><path d="M582.175,478.061c0.855,0.934 1.746,1.896 1.746,3.043l0,2.75l6.937,0l0,-3.043c0,-1.334 -2.202,-2.642 -3.344,-3.971c-0.72,-0.857 -2.327,-1.658 -2.327,-2.431c0,-0.747 0.048,-1.255 1.196,-1.28c0.88,0 1.717,0.293 2.411,0.776l0.897,-3.444c-0.985,-0.533 -2.665,-1.091 -4.772,-1.091c-3.739,0 -5.24,1.971 -5.24,4.238c0,2.161 1.588,3.472 2.496,4.453Zm3.006,10.934l0.026,0c1.602,0 2.718,-0.981 2.718,-2.561c0,-1.655 -1.147,-2.673 -2.718,-2.673c-1.63,0 -2.722,0.973 -2.753,2.625c0,1.574 1.1,2.609 2.727,2.609Zm-19.117,-25.956l34.924,0c3.066,0 7.217,2.197 7.217,5.256l0,24.391c0,3.069 -4.151,5.043 -7.217,5.043l-4.402,0l-8.068,6.652l-2.147,-6.652l-5.919,0l0,-7.141c0,-3.736 -6.342,-6.734 -10.076,-6.734l-10.736,0l0,-15.559c0,-3.059 3.358,-5.256 6.424,-5.256Z" style="fill:#00726a;fill-rule:nonzero;"/><path d="M318.977,538.66c13.122,0 23.763,-10.638 23.763,-23.76c0,-13.113 -10.641,-23.745 -23.763,-23.745c-13.116,0 -23.75,10.632 -23.75,23.745c0,13.122 10.634,23.76 23.75,23.76Zm0,-51.222c15.173,0 27.471,12.296 27.471,27.462c0,15.173 -12.298,27.474 -27.471,27.474c-15.172,0 -27.467,-12.301 -27.467,-27.474c0,-15.166 12.295,-27.462 27.467,-27.462Z" style="fill:#00726a;fill-rule:nonzero;"/><path d="M311.496,527.87l7.481,-5.513l7.488,5.513l-1.038,-9.239l8.522,-3.731l-8.522,-3.719l1.038,-9.239l-7.488,5.516l-7.481,-5.516l1.035,9.239l-8.523,3.719l8.523,3.731l-1.035,9.239Zm7.481,-34.126c11.687,0 21.157,9.481 21.157,21.156c0,11.687 -9.47,21.168 -21.157,21.168c-11.686,0 -21.159,-9.481 -21.159,-21.168c0,-11.675 9.473,-21.156 21.159,-21.156Z" style="fill:#00726a;fill-rule:nonzero;"/><path d="M306.668,488.202l-8.086,-21.539l11.428,-4.293l8.683,23.131c-4.29,0.039 -8.365,1.007 -12.025,2.701Z" style="fill:#00726a;fill-rule:nonzero;"/><path d="M320.137,485.521l8.697,-23.151l11.427,4.293l-8.226,21.895c-3.607,-1.797 -7.637,-2.88 -11.898,-3.037Z" style="fill:#00726a;fill-rule:nonzero;"/><path d="M365.388,534.215c0,2.84 2.592,5.141 5.795,5.141l64.722,0c3.201,0 5.795,-2.301 5.795,-5.141l0,-34.814c0,-2.84 -2.594,-5.144 -5.795,-5.144l-64.722,0c-3.203,0 -5.795,2.304 -5.795,5.144l0,34.814Zm35.449,12.079l5.832,0c0.71,0 1.288,-1.024 1.288,-1.737c0,-0.717 -0.578,-1.735 -1.288,-1.735l-5.832,0c-0.717,0 -1.3,1.018 -1.3,1.735c0,0.713 0.583,1.737 1.3,1.737Zm-42.392,-49.025c0,-3.581 2.902,-6.475 6.48,-6.475l73.766,0c3.576,0 6.475,2.894 6.475,6.475l0,42.544c0,3.576 -2.899,9.301 -6.475,9.301l-73.766,0c-3.578,0 -6.48,-5.725 -6.48,-9.301l0,-42.544Z" style="fill:#00726a;fill-rule:nonzero;"/><path d="M386.271,561.288l-1.213,0l0,-8.46l36.662,0l0,8.46l-1.746,0l15.846,4.098l0,4.363l-62.042,0l0,-4.363l12.493,-4.098Z" style="fill:#00726a;fill-rule:nonzero;"/><path d="M405.93,587.572c6.895,0 14.571,14.636 14.571,35.615c0,20.993 -7.676,35.623 -14.571,35.623c-6.887,0 -14.569,-14.63 -14.569,-35.623c0,-20.979 7.682,-35.615 14.569,-35.615Zm0,75.55c10.592,0 18.892,-17.538 18.892,-39.935c0,-22.386 -8.3,-39.927 -18.892,-39.927c-10.59,0 -18.886,17.541 -18.886,39.927c0,22.397 8.296,39.935 18.886,39.935Z" style="fill:#00726a;fill-rule:nonzero;"/><path d="M384.996,598.985c8.026,0 19.405,4.805 29.699,12.566c7.828,5.9 14.145,12.758 17.803,19.307c3.311,5.939 3.993,10.956 1.878,13.764c-1.729,2.293 -5.037,2.773 -7.507,2.773c-8.029,0 -19.408,-4.806 -29.704,-12.564c-16.766,-12.628 -23.827,-27.558 -19.679,-33.071c1.729,-2.296 5.043,-2.775 7.51,-2.775Zm41.873,52.727c4.949,0 8.745,-1.551 10.962,-4.495c3.232,-4.292 2.67,-10.846 -1.563,-18.455c-3.939,-7.07 -10.676,-14.413 -18.97,-20.66c-11.174,-8.412 -23.246,-13.429 -32.302,-13.429c-4.946,0 -8.742,1.551 -10.959,4.492c-6.376,8.461 2.643,25.643 20.533,39.112c11.176,8.415 23.241,13.435 32.299,13.435Z" style="fill:#00726a;fill-rule:nonzero;"/><path d="M426.61,602.132c5.431,0 9.221,1.469 10.657,4.131c3.277,6.066 -5.942,19.767 -24.411,29.747c-9.696,5.24 -19.749,8.243 -27.603,8.243c-5.432,0 -9.216,-1.472 -10.655,-4.129c-3.277,-6.063 5.94,-19.774 24.414,-29.754c9.687,-5.237 19.746,-8.238 27.598,-8.238Zm-41.357,46.43c8.542,0 19.354,-3.189 29.659,-8.751c19.695,-10.648 31.19,-26.291 26.154,-35.603c-2.259,-4.183 -7.262,-6.391 -14.456,-6.391c-8.542,0 -19.355,3.193 -29.651,8.759c-19.707,10.643 -31.193,26.284 -26.162,35.596c2.267,4.185 7.262,6.39 14.456,6.39Z" style="fill:#00726a;fill-rule:nonzero;"/><path d="M400.893,623.187c0,2.786 2.259,5.045 5.037,5.045c2.783,0 5.037,-2.259 5.037,-5.045c0,-2.772 -2.254,-5.037 -5.037,-5.037c-2.778,0 -5.037,2.265 -5.037,5.037Z" style="fill:#00726a;fill-rule:nonzero;"/><path d="M526.447,364.561c1.41,0 2.555,-1.151 2.555,-2.564c0,-1.416 -1.145,-2.561 -2.555,-2.561c-1.418,0 -2.563,1.145 -2.563,2.561c0,1.413 1.145,2.564 2.563,2.564Zm35.502,0c1.416,0 2.561,-1.151 2.561,-2.564c0,-1.416 -1.145,-2.561 -2.561,-2.561c-1.407,0 -2.555,1.145 -2.555,2.561c0,1.413 1.148,2.564 2.555,2.564Zm-48.957,-39.64c0,-2.267 1.526,-4.103 3.41,-4.103l39.882,0c1.884,0 2.876,1.836 2.876,4.103c0,1.861 -2.992,3.415 -2.992,3.912l0,27.008c0,-0.183 2.155,-0.288 2.939,-0.288c5.079,0 9.537,4.115 9.537,9.194c0,5.082 -3.951,9.199 -9.03,9.199c-5.079,0 -9.159,-4.744 -9.159,-9.831c0,-0.55 0.194,-29.422 0.225,-36.357l-25.73,0l0,28.083c0,-0.183 0.011,-0.288 0.789,-0.288c5.082,0 8.472,4.115 8.472,9.194c0,5.082 -4.481,9.199 -9.563,9.199c-5.088,0 -9.433,-4.117 -9.433,-9.199c0,-0.564 0.019,-29.391 0.047,-36.019c-1.271,-0.592 -2.27,-2.072 -2.27,-3.807Z" style="fill:#00726a;fill-rule:nonzero;"/><path d="M538.729,563.998l-0.593,0.511l-36.486,-30.973l15.045,3.277l22.034,27.185Z" style="fill:#00726a;fill-rule:nonzero;"/><path d="M509.247,528.933c0.477,0.291 1.156,0.147 1.464,-0.299c0.313,-0.471 0.166,-1.091 -0.324,-1.396l-0.57,-0.152c-0.364,0 -0.697,0.172 -0.891,0.468c-0.316,0.457 -0.172,1.08 0.321,1.379Zm-43.139,-3.671c-0.101,3.113 3.787,5.767 8.669,5.899c4.622,0.141 7.778,-2.025 7.888,-5.299c0.107,-3.395 -2.989,-5.86 -7.53,-5.99l-0.395,-0.008c-4.74,0 -8.536,2.377 -8.632,5.398Zm8.534,-7.51c5.843,0.177 10.6,3.175 11.348,6.914c2.208,0.218 6.853,0.618 10.465,0.502c4.862,-0.146 12.581,-2.693 12.66,-2.715l0.143,-0.048l44.434,17.814l-0.248,0.728l-67.652,-13.291c-1.181,3.367 -5.676,6.046 -11.128,6.046l-0.516,-0.231c-3.11,-0.093 -5.998,-1.075 -8.156,-2.572c-2.205,-1.534 -3.372,-3.584 -3.31,-5.683c0.138,-4.261 5.431,-7.622 11.96,-7.464Z" style="fill:#00726a;fill-rule:nonzero;"/><path d="M496.39,497.393c-1.697,-3.237 -4.675,-5.409 -7.397,-5.409c-0.671,0 -1.308,0.141 -1.881,0.412c-2.941,1.382 -3.573,5.883 -1.399,10.02c1.535,2.933 4.005,4.687 6.602,4.687c0.81,0 1.594,-0.175 2.321,-0.519c1.444,-0.683 2.44,-1.932 2.786,-3.514c0.376,-1.706 0.017,-3.669 -1.032,-5.677Zm4.061,23.641l-7.123,-12.899l-0.023,0c-3.66,0 -7.617,-1.943 -9.831,-6.165c-2.879,-5.49 -1.923,-11.038 2.115,-12.936c0.829,-0.392 1.738,-0.361 2.702,-0.361c3.661,0 7.617,2.959 9.831,7.195c2.391,4.568 2.166,9.72 -0.508,12.321l5.807,12.149l-2.97,0.696Z" style="fill:#00726a;fill-rule:nonzero;"/><path d="M475.663,637.121l12.467,-5.51c0.97,-0.429 2.104,0.005 2.527,0.975c0.432,0.97 -0.003,1.831 -0.973,2.254l-4.301,1.641l63.85,0l0,-52.276l-0.837,4.34c-0.313,0.724 -0.499,1.156 -1.244,1.156c-0.254,0 -0.254,-0.045 -0.496,-0.158c-0.973,-0.417 -1.295,-1.551 -0.877,-2.521l5.623,-12.865c0.302,-0.706 1.021,-1.154 1.788,-1.162c0.781,-0.014 1.464,0.454 1.774,1.145l5.53,12.47c0.423,0.962 -0.005,2.098 -0.978,2.521c-0.968,0.437 -1.591,-0.003 -2.02,-0.97l-1.328,-4.165l0,54.941c0,1.061 -1.881,1.01 -2.938,1.01l-67.37,0l4.205,2.273c0.976,0.417 1.427,1.776 0.998,2.749c-0.304,0.725 -1.012,1.275 -1.754,1.275c-0.259,0 -0.513,0.003 -0.761,-0.107l-12.871,-5.528c-0.7,-0.298 -1.157,-0.972 -1.162,-1.734c0,-0.767 0.445,-1.444 1.148,-1.754Z" style="fill:#00726a;fill-rule:nonzero;"/><path d="M535.359,633.012l0,-27.318c0,-2.479 0.992,-4.487 3.468,-4.487c2.471,0 3.469,2.008 3.469,4.487l0,27.318l-6.937,0Z" style="fill:#00726a;fill-rule:nonzero;"/><path d="M521.481,633.012l0,-34.357c0,-2.476 0.998,-4.479 3.469,-4.479c2.476,0 3.468,2.003 3.468,4.479l0,34.357l-6.937,0Z" style="fill:#00726a;fill-rule:nonzero;"/><path d="M504.14,633.012l0,-42.028c0,-2.476 0.998,-4.475 3.469,-4.475c2.473,0 3.468,1.999 3.468,4.475l0,42.028l-6.937,0Z" style="fill:#00726a;fill-rule:nonzero;"/><path d="M373.617,256.302c0,4.6 3.734,8.328 8.328,8.328c4.602,0 8.336,-3.728 8.336,-8.328c0,-4.599 -3.734,-8.327 -8.336,-8.327c-4.594,0 -8.328,3.728 -8.328,8.327Z" style="fill:#00726a;fill-rule:nonzero;"/><path d="M454.334,571.469c0,4.597 3.731,8.328 8.331,8.328c4.591,0 8.327,-3.731 8.327,-8.328c0,-4.597 -3.736,-8.325 -8.327,-8.325c-4.6,0 -8.331,3.728 -8.331,8.325Z" style="fill:#00726a;fill-rule:nonzero;"/><path d="M561.952,425.418c0,4.597 3.731,8.325 8.331,8.325c4.597,0 8.328,-3.728 8.328,-8.325c0,-4.602 -3.731,-8.33 -8.328,-8.33c-4.6,0 -8.331,3.728 -8.331,8.33Z" style="fill:#00726a;fill-rule:nonzero;"/><path d="M257.933,483.735c0,4.6 3.729,8.328 8.328,8.328c4.6,0 8.331,-3.728 8.331,-8.328c0,-4.599 -3.731,-8.327 -8.331,-8.327c-4.599,0 -8.328,3.728 -8.328,8.327Z" style="fill:#00726a;fill-rule:nonzero;"/><path d="M225.384,362c0,4.6 3.731,8.333 8.325,8.333c4.605,0 8.333,-3.733 8.333,-8.333c0,-4.594 -3.728,-8.328 -8.333,-8.328c-4.594,0 -8.325,3.734 -8.325,8.328Z" style="fill:#00726a;fill-rule:nonzero;"/><path d="M285.224,629.123c0,4.597 3.725,8.325 8.325,8.325c4.602,0 8.33,-3.728 8.33,-8.325c0,-4.599 -3.728,-8.328 -8.33,-8.328c-4.6,0 -8.325,3.729 -8.325,8.328Z" style="fill:#00726a;fill-rule:nonzero;"/><path d="M339.031,573.387c0,3.542 2.871,6.41 6.408,6.41c3.536,0 6.404,-2.868 6.404,-6.41c0,-3.537 -2.868,-6.402 -6.404,-6.402c-3.537,0 -6.408,2.865 -6.408,6.402Z" style="fill:#00726a;fill-rule:nonzero;"/><path d="M462.025,373.529c0,3.536 2.868,6.407 6.401,6.407c3.539,0 6.41,-2.871 6.41,-6.407c0,-3.537 -2.871,-6.405 -6.41,-6.405c-3.533,0 -6.401,2.868 -6.401,6.405Z" style="fill:#00726a;fill-rule:nonzero;"/><path d="M583.436,383.935c0,3.536 2.865,6.407 6.396,6.407c3.545,0 6.41,-2.871 6.41,-6.407c0,-3.537 -2.865,-6.405 -6.41,-6.405c-3.531,0 -6.396,2.868 -6.396,6.405Z" style="fill:#00726a;fill-rule:nonzero;"/><path d="M200.987,602.654c0,3.533 2.868,6.404 6.399,6.404c3.545,0 6.41,-2.871 6.41,-6.404c0,-3.537 -2.865,-6.41 -6.41,-6.41c-3.531,0 -6.399,2.873 -6.399,6.41Z" style="fill:#00726a;fill-rule:nonzero;"/><path d="M196.825,423.492c0,3.54 2.865,6.41 6.401,6.41c3.54,0 6.408,-2.87 6.408,-6.41c0,-3.536 -2.868,-6.404 -6.408,-6.404c-3.536,0 -6.401,2.868 -6.401,6.404Z" style="fill:#00726a;fill-rule:nonzero;"/><path d="M346.719,446.555c0,3.534 2.865,6.407 6.402,6.407c3.544,0 6.41,-2.873 6.41,-6.407c0,-3.536 -2.866,-6.407 -6.41,-6.407c-3.537,0 -6.402,2.871 -6.402,6.407Z" style="fill:#00726a;fill-rule:nonzero;"/><path d="M585.012,569.548c0,3.537 2.874,6.408 6.407,6.408c3.542,0 6.411,-2.871 6.411,-6.408c0,-3.536 -2.869,-6.404 -6.411,-6.404c-3.533,0 -6.407,2.868 -6.407,6.404Z" style="fill:#00726a;fill-rule:nonzero;"/><path d="M600.39,433.103c0,2.476 2.005,4.484 4.476,4.484c2.484,0 4.492,-2.008 4.492,-4.484c0,-2.476 -2.008,-4.484 -4.492,-4.484c-2.471,0 -4.476,2.008 -4.476,4.484Z" style="fill:#00726a;fill-rule:nonzero;"/><path d="M458.178,490.755c0,2.479 2.011,4.486 4.487,4.486c2.479,0 4.478,-2.007 4.478,-4.486c0,-2.474 -1.999,-4.481 -4.478,-4.481c-2.476,0 -4.487,2.007 -4.487,4.481Z" style="fill:#00726a;fill-rule:nonzero;"/><path d="M315.968,390.824c0,2.479 2.014,4.487 4.487,4.487c2.479,0 4.487,-2.008 4.487,-4.487c0,-2.476 -2.008,-4.484 -4.487,-4.484c-2.473,0 -4.487,2.008 -4.487,4.484Z" style="fill:#00726a;fill-rule:nonzero;"/><path d="M285.224,275.521c0,2.476 2.008,4.487 4.484,4.487c2.473,0 4.478,-2.011 4.478,-4.487c0,-2.476 -2.005,-4.484 -4.478,-4.484c-2.476,0 -4.484,2.008 -4.484,4.484Z" style="fill:#00726a;fill-rule:nonzero;"/><path d="M396.68,298.579c0,2.476 2.013,4.486 4.489,4.486c2.477,0 4.479,-2.01 4.479,-4.486c0,-2.471 -2.002,-4.482 -4.479,-4.482c-2.476,0 -4.489,2.011 -4.489,4.482Z" style="fill:#00726a;fill-rule:nonzero;"/><path d="M511.988,302.425c0,2.473 2.005,4.484 4.484,4.484c2.476,0 4.484,-2.011 4.484,-4.484c0,-2.479 -2.008,-4.487 -4.484,-4.487c-2.479,0 -4.484,2.008 -4.484,4.487Z" style="fill:#00726a;fill-rule:nonzero;"/><path d="M473.553,609.904c0,2.471 2.008,4.487 4.481,4.487c2.479,0 4.49,-2.016 4.49,-4.487c0,-2.476 -2.011,-4.492 -4.49,-4.492c-2.473,0 -4.481,2.016 -4.481,4.492Z" style="fill:#00726a;fill-rule:nonzero;"/><path d="M350.565,617.592c0,2.47 2.003,4.484 4.484,4.484c2.471,0 4.482,-2.014 4.482,-4.484c0,-2.471 -2.011,-4.487 -4.482,-4.487c-2.481,0 -4.484,2.016 -4.484,4.487Z" style="fill:#00726a;fill-rule:nonzero;"/><path d="M156.847,486.09c0,2.473 2.011,4.481 4.487,4.481c2.478,0 4.481,-2.008 4.481,-4.481c0,-2.479 -2.003,-4.489 -4.481,-4.489c-2.476,0 -4.487,2.01 -4.487,4.489Z" style="fill:#00726a;fill-rule:nonzero;"/><path d="M215.243,477.038c0,2.476 2.01,4.486 4.486,4.486c2.477,0 4.487,-2.01 4.487,-4.486c0,-2.474 -2.01,-4.487 -4.487,-4.487c-2.476,0 -4.486,2.013 -4.486,4.487Z" style="fill:#00726a;fill-rule:nonzero;"/></g><g><path d="M922.043,638.809c-0.959,5.738 -8.615,14.67 -17.242,27.755c-4.247,6.441 -0.922,15.485 2.408,19.851c3.038,3.985 11.96,11.083 11.96,11.083c0,0 -9.568,3.827 -10.846,12.123c-1.28,8.294 -2.549,16.583 10.209,24.877c7.036,4.577 8.931,4.467 8.931,12.123c0,7.654 -21.689,50.396 29.984,62.519c51.675,12.124 125.038,1.909 135.249,28.069c5.818,14.91 10.186,36.452 12.158,57.304c0.208,2.208 -8.805,6.221 -8.65,8.407c0.94,13.367 6.196,23.35 4.783,33.492c-3.203,22.969 -5.065,90.406 -5.586,111.755l367.039,0c-5.087,-95.622 -85.852,-190.225 -85.852,-190.225c0,0 -3.511,-21.368 -7.657,-25.835c-4.148,-4.467 -18.824,-0.64 -18.824,-0.64l-2.07,-8.291c0,0 50.638,-29.346 78.069,-50.401c27.434,-21.049 141.744,-103.98 141.744,-258.373c0,-154.381 -56.08,-142.897 -56.08,-142.897c0,0 -39.524,-84.211 -107.145,-114.832c-67.62,-30.621 -149.381,-30.801 -205.402,-26.794c-53.576,3.83 -169.049,17.863 -166.175,75.277c0,0 -54.07,35.249 -74.166,79.268c-20.093,44.019 -15.07,84.129 -9.329,113.794c5.742,29.662 7.256,55.742 -8.494,71.732c-8.601,8.728 -39.112,29.572 -39.112,38.232c0,18.503 21.052,24.882 20.096,30.627Z" style="fill:#fff;fill-rule:nonzero;"/><path d="M1501.53,517.677c0,-10.457 -4.913,-19.837 -12.349,-26.092l-3.224,3.359c6.54,5.417 10.672,13.595 10.672,22.733c0,16.28 -13.266,29.526 -29.547,29.526c-8.409,0 -16.015,-3.542 -21.399,-9.196l-3.009,3.353c5.756,5.959 15.629,9.831 22.57,10.361l0,10.372c-10.409,0.246 -18.469,1.658 -18.963,3.382c-0.316,0.744 -0.09,1.971 -0.09,2.335c0,1.982 9.87,3.595 22.093,3.595c12.214,0 22.107,-1.613 22.107,-3.595c0,-0.404 0.69,-1.628 0.304,-2.392c-0.657,-1.706 -11.579,-3.085 -18.517,-3.33l0,-10.587c17.344,-2.166 29.352,-16.503 29.352,-33.824Z" style="fill:#00726a;fill-opacity:0.188235;fill-rule:nonzero;"/><path d="M1453.05,531.791l4.926,-4.427c3.672,4.148 8.729,7.817 15.674,9.949c-1.875,0.578 -3.874,0.897 -5.942,0.897c-5.786,0 -11.001,-2.476 -14.658,-6.419Zm-5.336,-13.573c0,-2.786 0.572,-5.437 1.607,-7.846c1.024,4.112 3.015,9.64 6.836,14.752l-4.912,4.417c-2.225,-3.221 -3.531,-7.121 -3.531,-11.323Zm33.004,-15.161l-5.068,4.552c-5.057,-4.453 -10.719,-6.904 -14.718,-8.201c2.12,-0.764 4.399,-1.182 6.776,-1.182c4.964,0 9.513,1.825 13.01,4.831Zm-11.628,14.323l6.585,-5.919c4.027,4.21 7.358,10.048 8.461,18.133c-0.514,0.742 -1.072,1.444 -1.678,2.104l-13.368,-14.318Zm-2.143,1.921l13.424,14.374c-0.787,0.646 -1.622,1.227 -2.49,1.748c-8.201,-1.709 -13.881,-5.518 -17.835,-9.923l6.901,-6.199Zm-11.672,-16.72c0.583,-0.463 1.19,-0.897 1.821,-1.298c3.266,0.742 10.336,2.843 16.484,8.193l-6.455,5.798l-11.85,-12.693Zm9.709,14.619l-6.757,6.063c-4.571,-6.156 -6.207,-12.936 -6.791,-16.638c0.525,-0.734 1.103,-1.43 1.718,-2.093l11.83,12.668Zm22.716,1.018c0,2.58 -0.496,5.048 -1.396,7.321c-1.599,-6.847 -4.797,-12.031 -8.562,-15.934l5.026,-4.52c3.071,3.519 4.932,8.11 4.932,13.133Zm-19.992,-25.75c-14.202,0 -25.753,11.551 -25.753,25.75c0,14.196 11.551,25.748 25.753,25.748c14.2,0 25.748,-11.552 25.748,-25.748c0,-14.199 -11.548,-25.75 -25.748,-25.75Z" style="fill:#00726a;fill-opacity:0.188235;fill-rule:nonzero;"/><path d="M1291.61,308.419l-4.802,5.606l13.125,11.244l4.799,-5.606c1.594,-1.856 1.055,-4.741 -0.812,-6.331l-6.39,-5.48c-1.859,-1.593 -4.326,-1.294 -5.92,0.567Z" style="fill:#00726a;fill-opacity:0;fill-rule:nonzero;"/><path d="M1236.12,386.079l3.088,-10.24l3.08,-10.245l6.571,5.626l6.557,5.62l-9.648,4.62l-9.648,4.619Z" style="fill:#00726a;fill-opacity:0;fill-rule:nonzero;"/><path d="M1249.94,366.412l-2.318,-2.135l38.235,-44.611l2.32,2.132l-38.237,44.614Zm35.31,-50.686l-41.326,48.224l13.12,11.246l41.328,-48.226l-13.122,-11.244Z" style="fill:#00726a;fill-opacity:0;fill-rule:nonzero;"/><path d="M1267.64,439.847c-11.286,0 -20.434,-9.145 -20.434,-20.437c0,-11.289 9.148,-20.44 20.434,-20.44c11.292,0 20.44,9.151 20.44,20.44c0,11.292 -9.148,20.437 -20.44,20.437Zm25.621,-15.88l5.598,-4.52l-5.592,-4.535l3.714,-6.165l-6.805,-2.349l1.384,-7.062l-7.199,0.122l-1.106,-7.11l-6.729,2.575l-3.477,-6.3l-5.437,4.721l-5.423,-4.735l-3.491,6.294l-6.715,-2.589l-1.131,7.11l-7.199,-0.138l1.373,7.067l-6.813,2.335l3.705,6.17l-5.601,4.521l5.595,4.529l-3.716,6.165l6.796,2.349l-1.382,7.059l7.2,-0.122l1.114,7.113l6.72,-2.575l3.483,6.303l5.434,-4.718l5.423,4.729l3.495,-6.294l6.714,2.591l1.128,-7.106l7.2,0.132l-1.373,-7.067l6.807,-2.329l-3.694,-6.171Z" style="fill:#00726a;fill-opacity:0.0980392;fill-rule:nonzero;"/><path d="M1257.84,446.105l-7.326,2.809l-1.213,-7.753l-4.994,0.085l-11.441,25.155l13.392,-7.837l3.023,15.308l10.793,-23.717l-2.234,-4.05Z" style="fill:#00726a;fill-opacity:0.0980392;fill-rule:nonzero;"/><path d="M1290.42,441.288l-4.583,-0.087l-1.235,7.75l-7.316,-2.823l-2.465,4.433l10.61,23.311l3.029,-15.308l13.387,7.837l-11.427,-25.113Z" style="fill:#00726a;fill-opacity:0.0980392;fill-rule:nonzero;"/><path d="M1268.52,427.351l-3.466,0l0,-13.875l1.334,0l-3.96,1.828l-0.97,-3.41l5.197,-1.886l1.865,0l0,17.343Zm-0.875,-26.252c-10.11,0 -18.311,8.201 -18.311,18.311c0,10.116 8.201,18.317 18.311,18.317c10.119,0 18.32,-8.201 18.32,-18.317c0,-10.11 -8.201,-18.311 -18.32,-18.311Z" style="fill:#00726a;fill-opacity:0.0980392;fill-rule:nonzero;"/><path d="M1403.92,318.287c-1.85,0 -3.026,-0.717 -3.026,-0.717l-1.709,12.053c0,0 1.977,1.557 5.339,1.557c3.358,0 5.276,-1.557 5.276,-1.557l-2.518,-12.233c0,0 -1.503,0.897 -3.362,0.897Z" style="fill:#00726a;fill-opacity:0.168627;fill-rule:nonzero;"/><path d="M1324.02,305.946l0,27.992l43.323,0.722l26.057,-5.671l0,-28.72l-25.336,5.677l-44.044,0Z" style="fill:#00726a;fill-opacity:0.168627;fill-rule:nonzero;"/><path d="M1357.85,295.537c0.217,0 1.85,-3.415 3.835,-3.415c1.98,0 3.61,3.415 3.833,3.415l-7.668,0Zm49.419,-2.744l0,-0.722l-54.887,0l-42.243,6.029l0,4.374l57.922,0l32.271,-8.048l0,16.297c0,0.488 -0.395,1.43 -0.395,2.53c0,1.587 1.859,2.876 3.443,2.876c1.597,0 2.324,-1.289 2.324,-2.876c0,-1.024 -1.906,-1.918 -1.906,-2.431l0,-17.048l3.471,-0.981Z" style="fill:#00726a;fill-opacity:0.168627;fill-rule:nonzero;"/><path d="M1213.02,461.878c0,0 -5.677,-2.558 -18.395,-2.558c-9.14,0 -16.292,1.326 -16.292,2.067l0,-53.802c3.471,-1.21 8.615,-3.669 17.197,-3.669c11.356,0 17.49,4.324 17.49,4.324l0,53.638Zm-41.625,-0.491c0,-0.741 -7.146,-2.067 -16.289,-2.067c-12.716,0 -18.398,2.558 -18.398,2.558l0,-53.638c0,0 6.131,-4.324 17.507,-4.324c8.565,0 13.712,2.459 17.18,3.669l0,53.802Zm44.028,-57.098c-0.319,-0.206 -7.857,-5.043 -20.587,-5.043c-9.698,0 -16.988,2.792 -20.065,4.182c-3.074,-1.39 -10.418,-4.182 -20.124,-4.182c-12.725,0 -20.037,4.837 -20.356,5.043c-0.925,0.586 -1.052,1.607 -1.052,2.704l0,56.346c0,1.06 0.127,3.443 1.004,4.038c0.11,0.079 1.063,1.602 3.365,1.602l34.315,0c0.208,3.469 1.599,1.678 3.313,1.678c1.709,0 3.102,1.791 3.317,-1.678l36.844,0c1.247,0 1.097,-4.667 1.097,-5.64l0,-56.346c0,-1.097 -0.146,-2.118 -1.071,-2.704Z" style="fill:#00726a;fill-opacity:0.498039;fill-rule:nonzero;"/><path d="M1140.73,417.061c-0.389,0 -0.753,-0.268 -0.896,-0.702c-0.184,-0.556 0.073,-1.171 0.566,-1.371c4.995,-2.05 15.161,-4.848 27.144,-0.592c0.502,0.18 0.778,0.781 0.62,1.342c-0.158,0.564 -0.702,0.872 -1.201,0.694c-11.447,-4.061 -21.139,-1.388 -25.903,0.561l-0.33,0.068Z" style="fill:#00726a;fill-opacity:0.498039;fill-rule:nonzero;"/><path d="M1140.94,427.763c-0.389,0 -0.756,-0.271 -0.9,-0.705c-0.186,-0.55 0.073,-1.165 0.57,-1.37c4.991,-2.051 15.152,-4.845 27.138,-0.59c0.499,0.178 0.787,0.778 0.623,1.345c-0.161,0.562 -0.702,0.869 -1.201,0.694c-11.439,-4.064 -21.14,-1.393 -25.9,0.558l-0.33,0.068Z" style="fill:#00726a;fill-opacity:0.498039;fill-rule:nonzero;"/><path d="M1140.73,438.465c-0.389,0 -0.753,-0.267 -0.896,-0.702c-0.184,-0.553 0.073,-1.17 0.566,-1.373c4.995,-2.048 15.161,-4.848 27.144,-0.595c0.502,0.183 0.778,0.784 0.62,1.348c-0.158,0.564 -0.702,0.871 -1.201,0.696c-11.447,-4.066 -21.139,-1.396 -25.903,0.562l-0.33,0.064Z" style="fill:#00726a;fill-opacity:0.498039;fill-rule:nonzero;"/><path d="M1140.73,449.171c-0.389,0 -0.753,-0.271 -0.896,-0.705c-0.184,-0.556 0.073,-1.174 0.566,-1.374c4.995,-2.047 15.161,-4.848 27.144,-0.589c0.502,0.177 0.778,0.781 0.62,1.342c-0.158,0.567 -0.702,0.872 -1.201,0.697c-11.447,-4.064 -21.139,-1.393 -25.903,0.561l-0.33,0.068Z" style="fill:#00726a;fill-opacity:0.498039;fill-rule:nonzero;"/><path d="M1181.74,417.061c-0.392,0 -0.762,-0.268 -0.9,-0.702c-0.183,-0.556 0.074,-1.171 0.567,-1.371c4.995,-2.05 15.155,-4.848 27.135,-0.592c0.505,0.18 0.784,0.781 0.626,1.342c-0.161,0.564 -0.699,0.872 -1.204,0.694c-11.438,-4.061 -21.134,-1.388 -25.897,0.561l-0.327,0.068Z" style="fill:#00726a;fill-opacity:0.498039;fill-rule:nonzero;"/><path d="M1181.95,427.763c-0.394,0 -0.755,-0.271 -0.902,-0.705c-0.178,-0.55 0.076,-1.165 0.572,-1.37c4.989,-2.051 15.156,-4.845 27.138,-0.59c0.502,0.178 0.781,0.778 0.621,1.345c-0.161,0.562 -0.7,0.869 -1.199,0.694c-11.444,-4.064 -21.139,-1.393 -25.902,0.558l-0.328,0.068Z" style="fill:#00726a;fill-opacity:0.498039;fill-rule:nonzero;"/><path d="M1181.74,438.465c-0.392,0 -0.762,-0.267 -0.9,-0.702c-0.183,-0.553 0.074,-1.17 0.567,-1.373c4.995,-2.048 15.155,-4.848 27.135,-0.595c0.505,0.183 0.784,0.784 0.626,1.348c-0.161,0.564 -0.699,0.871 -1.204,0.696c-11.438,-4.066 -21.134,-1.396 -25.897,0.562l-0.327,0.064Z" style="fill:#00726a;fill-opacity:0.498039;fill-rule:nonzero;"/><path d="M1181.74,449.171c-0.392,0 -0.762,-0.271 -0.9,-0.705c-0.183,-0.556 0.074,-1.174 0.567,-1.374c4.995,-2.047 15.155,-4.848 27.135,-0.589c0.505,0.177 0.784,0.781 0.626,1.342c-0.161,0.567 -0.699,0.872 -1.204,0.697c-11.438,-4.064 -21.134,-1.393 -25.897,0.561l-0.327,0.068Z" style="fill:#00726a;fill-opacity:0.498039;fill-rule:nonzero;"/><path d="M1411.33,557.714c0,1.517 -1.233,2.752 -2.755,2.752c-1.518,0 -2.75,-1.235 -2.75,-2.752c0,-1.52 1.232,-2.756 2.75,-2.756c1.522,0 2.755,1.236 2.755,2.756Z" style="fill:#00726a;fill-opacity:0.658824;fill-rule:nonzero;"/><path d="M1412.67,580.568c-2.228,0 -4.036,-1.802 -4.036,-4.027c0,-2.231 1.808,-4.039 4.036,-4.039c2.225,0 4.033,1.808 4.033,4.039c0,2.225 -1.808,4.027 -4.033,4.027Zm-7.939,-8.963c-0.953,0 -1.731,-0.769 -1.731,-1.725c0,-0.956 0.778,-1.729 1.731,-1.729c0.954,0 1.729,0.773 1.729,1.729c0,0.956 -0.775,1.725 -1.729,1.725Zm19.69,9.157l-1.19,-1.274c-2.371,-4.056 -5.321,-9.913 -8.271,-13.382l-14.349,0c-4.436,6.938 -9.106,13.875 -11.435,17.338l37.473,0c-0.617,0 -1.379,-1.235 -2.228,-2.682Z" style="fill:#00726a;fill-opacity:0.517647;fill-rule:nonzero;"/><path d="M1431.49,587.206c-0.133,0.251 -0.764,-0.29 -1.292,-0.29l-44.199,0c-0.542,0 -1.289,0.541 -1.441,0.318c-0.291,-0.707 -0.192,-0.547 0.056,-0.984c0.085,-0.144 0.434,-0.428 0.914,-1.246c2.428,-4.092 8.894,-14.845 14.301,-24.953c0.256,-0.471 0.51,-0.885 0.51,-1.426l0,-23.737l13.872,0l0,22.546c0,0.581 0.386,1.143 0.68,1.639c4.323,7.442 9.078,15.499 12.309,21.013c1.972,3.37 3.779,5.792 3.954,6.111c0.454,0.823 0.46,0.708 0.336,1.009Zm3.635,-0.925c-0.434,-0.809 -10.505,-15.947 -17.44,-29.191l0,-20.598c3.463,-0.132 3.463,-0.891 3.463,-1.799l0,-0.189c0,-1.007 -1.545,-3.085 -2.555,-3.085l-22.473,0c-1.004,0 -2.716,2.078 -2.716,3.085l0,0.189c0,1.007 1.712,0.195 2.716,0.195l0.747,0l0,23.463c-6.934,12.913 -15.823,27.143 -16.255,27.93c-0.789,1.444 -1.035,3.015 -0.361,4.645c0.601,1.475 2.586,2.93 4.572,2.93l46.562,0c1.986,0 3.74,-1.455 4.343,-2.93c0.674,-1.63 0.198,-3.201 -0.603,-4.645Z" style="fill:#00726a;fill-opacity:0.482353;fill-rule:nonzero;"/><path d="M1331.18,394.446c-1.421,1.064 -2.924,1.924 -4.486,2.603l13.795,18.447c1.244,1.655 4.013,1.686 6.179,0.062c2.177,-1.622 2.925,-4.287 1.687,-5.945l-13.734,-18.356c-1.013,1.159 -2.163,2.231 -3.441,3.189Z" style="fill:#00726a;fill-opacity:0.235294;fill-rule:nonzero;"/><path d="M1326.68,388.434c-7.831,5.86 -18.934,4.261 -24.791,-3.579c-5.861,-7.828 -4.259,-18.931 3.576,-24.786c7.831,-5.863 18.934,-4.264 24.791,3.573c5.86,7.832 4.256,18.932 -3.576,24.792Zm-23.985,-32.067c-9.876,7.385 -11.898,21.384 -4.512,31.26c7.394,9.879 21.391,11.896 31.264,4.51c9.881,-7.395 11.898,-21.385 4.509,-31.264c-7.394,-9.876 -21.388,-11.895 -31.261,-4.506Z" style="fill:#00726a;fill-opacity:0.235294;fill-rule:nonzero;"/><path d="M1309.57,365.952c4.848,-2.781 10.993,-1.94 14.915,2.011l3.494,-2.197c-5.307,-5.979 -14.238,-7.248 -21.006,-2.97l2.597,3.156Z" style="fill:#00726a;fill-opacity:0.235294;fill-rule:nonzero;"/><path d="M1380.68,430.905c0.925,-1.044 2.617,-2.019 4.921,-3.043c-0.778,-0.322 -1.275,-0.587 -1.32,-0.764c-0.316,-1.354 -0.304,-5.59 0.206,-6.396c0.076,-0.125 1.416,-1.176 1.698,-2.228c0.282,-1.055 0.589,-3.167 0.589,-3.167c0,0 1.219,0.2 1.991,-2.395c0.77,-2.591 1.357,-3.984 -0.225,-4.469c0.479,-3.895 1.703,-12.88 -9.73,-13.207l-0.598,0.897l-0.064,0l-0.063,0l-0.603,-0.897c-11.424,0.327 -10.209,9.763 -9.724,13.655c-1.579,0.485 -0.995,1.655 -0.225,4.25c0.77,2.592 1.985,2.279 1.985,2.279c0,0 0.305,2.053 0.589,3.107c0.285,1.055 1.622,2.076 1.698,2.203c0.513,0.809 0.654,5.513 0.206,6.382c-0.395,0.778 -10.274,3.528 -12.033,5.53c-1.763,2.008 -1.58,10.389 -1.58,10.389c0,0 7.265,0.057 18.684,-0.031c0.31,0.003 0.623,0.003 0.939,0.006c0.107,-3.982 0.628,-9.794 2.659,-12.101Z" style="fill:#00726a;fill-opacity:0;fill-rule:nonzero;"/><path d="M1456.05,432.633c-1.763,-2.005 -11.845,-4.72 -12.034,-5.535c-0.318,-1.354 -0.304,-5.59 0.206,-6.396c0.074,-0.125 1.416,-1.176 1.701,-2.228c0.279,-1.055 0.592,-3.167 0.592,-3.167c0,0 1.21,0.2 1.98,-2.395c0.772,-2.591 1.356,-3.984 -0.223,-4.469c0.485,-3.895 1.7,-12.88 -9.724,-13.207l-0.603,0.897l-0.068,0l-0.059,0l-0.601,-0.897c-11.424,0.327 -10.212,9.763 -9.726,13.655c-1.58,0.485 -0.996,1.655 -0.223,4.25c0.772,2.592 1.985,2.279 1.985,2.279c0,0 0.308,2.053 0.59,3.107c0.284,1.055 1.624,2.076 1.7,2.203c0.508,0.809 0.646,5.513 0.203,6.382c-0.138,0.273 -1.418,0.775 -3.108,1.407c1.633,0.79 2.851,1.562 3.576,2.389c2.031,2.312 2.558,8.124 2.671,12.106c0.634,-0.005 -0.127,-0.011 0.53,-0.014c0.333,0.003 -0.395,-0.178 -0.395,-0.178l0,-1.596l2.857,0l-2.857,0l0,1.599c3.472,-0.003 2.135,0.085 2.468,0.082c11.421,0.093 19.411,0.073 19.411,0.073c0,0 0.916,-8.341 -0.849,-10.347Z" style="fill:#00726a;fill-opacity:0.482353;fill-rule:nonzero;"/><path d="M1430.42,432.487c-2.327,-2.648 -15.629,-6.238 -15.878,-7.307c-0.42,-1.788 -0.406,-7.375 0.266,-8.438c0.101,-0.163 1.869,-1.551 2.244,-2.938c0.373,-1.391 0.779,-4.174 0.779,-4.174c0,0 1.604,0.256 2.62,-3.162c1.012,-3.42 1.79,-5.259 -0.294,-5.902c0.638,-5.133 2.248,-18.176 -12.826,-18.601c-0.276,-0.012 -0.535,-0.003 -0.8,0l0,-0.003l-0.082,0l-0.079,0l0,0.003c-0.268,-0.003 -0.528,-0.012 -0.801,0c-15.079,0.425 -13.469,13.468 -12.823,18.601c-2.087,0.643 -1.32,2.482 -0.302,5.902c1.018,3.418 2.62,3.162 2.62,3.162c0,0 0.4,2.783 0.778,4.174c0.378,1.387 2.146,2.775 2.245,2.938c0.663,1.063 0.855,7.29 0.262,8.438c-0.516,1.026 -13.545,4.659 -15.871,7.307c-2.324,2.642 -2.084,13.708 -2.084,13.708c0,0 9.585,0.079 24.648,-0.039c0.437,0.003 0.879,0.008 1.328,0.008l0.161,0c0.448,0 0.885,-0.005 1.325,-0.008c15.065,0.118 24.645,0.039 24.645,0.039c0,0 0.242,-11.066 -2.081,-13.708Z" style="fill:#00726a;fill-opacity:0.698039;fill-rule:nonzero;"/><path d="M1404.35,368.989l-0.897,-15.175l6.396,0l-0.891,15.175l-4.608,0Zm2.27,8.396c-2.064,0 -3.511,-1.52 -3.511,-3.545c0,-2.135 1.447,-3.579 3.511,-3.579c2.101,0 3.505,1.444 3.539,3.579c0,2.025 -1.407,3.545 -3.505,3.545l-0.034,0Z" style="fill:#00726a;fill-rule:nonzero;"/><path d="M1223.07,329.756c-15.979,0 -28.932,-12.953 -28.932,-28.934c0,-15.985 12.953,-28.937 28.932,-28.937c15.981,0 28.94,12.952 28.94,28.937c0,15.981 -12.959,28.934 -28.94,28.934Zm-12.944,7.197c-15.985,0 -28.943,-12.958 -28.943,-28.937c0,-10.793 5.916,-20.201 14.676,-25.173c-3.413,5.153 -5.409,11.329 -5.409,17.979c0,18.012 14.608,32.62 32.62,32.62c0.304,0 0.606,-0.017 0.9,-0.023c-4.115,2.251 -8.83,3.534 -13.844,3.534Zm45.567,-36.131c0,-18.018 -14.603,-32.62 -32.623,-32.62c-8.427,0 -16.111,3.2 -21.901,8.446c-13.663,3.897 -23.666,16.461 -23.666,31.368c0,18.015 14.605,32.617 32.623,32.617c8.423,0 16.097,-3.198 21.889,-8.446c13.664,-3.883 23.678,-16.455 23.678,-31.365Z" style="fill:#00726a;fill-opacity:0.552941;fill-rule:nonzero;"/><path d="M1223.07,295.032c-3.19,0 -5.784,2.592 -5.784,5.79c0,3.192 2.594,5.784 5.784,5.784c3.198,0 5.787,-2.592 5.787,-5.784c0,-3.198 -2.589,-5.79 -5.787,-5.79Z" style="fill:#00726a;fill-opacity:0.552941;fill-rule:nonzero;"/><path d="M1229.61,275.339l-4.862,17.773c1.827,0.397 3.412,1.426 4.523,2.845l13.272,-12.812c-3.407,-3.75 -7.871,-6.514 -12.933,-7.806Z" style="fill:#00726a;fill-opacity:0.552941;fill-rule:nonzero;"/><path d="M1245.21,286.628l-15.133,10.578c0.406,0.782 0.682,1.642 0.806,2.55l16.597,-8.748c-0.626,-1.537 -1.388,-3.001 -2.27,-4.38Z" style="fill:#00726a;fill-opacity:0.552941;fill-rule:nonzero;"/><path d="M1135.83,486.32l-26.935,0c-2.358,0 -3.413,0.631 -3.413,2.995l0,18.612c0,2.364 1.055,2.677 3.413,2.677l12.07,0l1.751,5.445l6.613,-5.445l6.501,0c2.357,0 4.34,-0.313 4.34,-2.677l0,-18.612c0,-2.364 -1.983,-2.995 -4.34,-2.995Z" style="fill:#00726a;fill-opacity:0.654902;fill-rule:nonzero;"/><path d="M1096.83,477.061c-0.855,0.934 -1.746,1.896 -1.746,3.043l0,2.75l-6.937,0l0,-3.043c0,-1.334 2.202,-2.642 3.344,-3.971c0.72,-0.857 2.327,-1.658 2.327,-2.431c0,-0.747 -0.048,-1.255 -1.196,-1.28c-0.88,0 -1.717,0.293 -2.411,0.776l-0.897,-3.444c0.985,-0.533 2.665,-1.091 4.772,-1.091c3.739,0 5.24,1.971 5.24,4.238c0,2.161 -1.588,3.472 -2.496,4.453Zm-3.006,10.934l-0.026,0c-1.602,0 -2.718,-0.981 -2.718,-2.561c0,-1.655 1.147,-2.673 2.718,-2.673c1.63,0 2.722,0.973 2.753,2.625c0,1.574 -1.1,2.609 -2.727,2.609Zm19.117,-25.956l-34.924,0c-3.066,0 -7.217,2.197 -7.217,5.256l0,24.391c0,3.069 4.151,5.043 7.217,5.043l4.402,0l8.068,6.652l2.147,-6.652l5.919,0l0,-7.141c0,-3.736 6.342,-6.734 10.076,-6.734l10.736,0l0,-15.559c0,-3.059 -3.358,-5.256 -6.424,-5.256Z" style="fill:#00726a;fill-opacity:0.345098;fill-rule:nonzero;"/><path d="M1360.02,537.66c-13.122,0 -23.763,-10.638 -23.763,-23.76c0,-13.113 10.641,-23.745 23.763,-23.745c13.116,0 23.75,10.632 23.75,23.745c0,13.122 -10.634,23.76 -23.75,23.76Zm0,-51.222c-15.173,0 -27.471,12.296 -27.471,27.462c0,15.173 12.298,27.474 27.471,27.474c15.172,0 27.467,-12.301 27.467,-27.474c0,-15.166 -12.295,-27.462 -27.467,-27.462Z" style="fill:#00726a;fill-opacity:0.301961;fill-rule:nonzero;"/><path d="M1367.5,526.87l-7.481,-5.513l-7.488,5.513l1.038,-9.239l-8.522,-3.731l8.522,-3.719l-1.038,-9.239l7.488,5.516l7.481,-5.516l-1.035,9.239l8.523,3.719l-8.523,3.731l1.035,9.239Zm-7.481,-34.126c-11.687,0 -21.157,9.481 -21.157,21.156c0,11.687 9.47,21.168 21.157,21.168c11.686,0 21.159,-9.481 21.159,-21.168c0,-11.675 -9.473,-21.156 -21.159,-21.156Z" style="fill:#00726a;fill-opacity:0.301961;fill-rule:nonzero;"/><path d="M1372.33,487.202l8.086,-21.539l-11.428,-4.293l-8.683,23.131c4.29,0.039 8.365,1.007 12.025,2.701Z" style="fill:#00726a;fill-opacity:0.301961;fill-rule:nonzero;"/><path d="M1358.86,484.521l-8.697,-23.151l-11.427,4.293l8.226,21.895c3.607,-1.797 7.637,-2.88 11.898,-3.037Z" style="fill:#00726a;fill-opacity:0.301961;fill-rule:nonzero;"/><path d="M1313.61,533.215c0,2.84 -2.592,5.141 -5.795,5.141l-64.722,0c-3.201,0 -5.795,-2.301 -5.795,-5.141l0,-34.814c0,-2.84 2.594,-5.144 5.795,-5.144l64.722,0c3.203,0 5.795,2.304 5.795,5.144l0,34.814Zm-35.449,12.079l-5.832,0c-0.71,0 -1.288,-1.024 -1.288,-1.737c0,-0.717 0.578,-1.735 1.288,-1.735l5.832,0c0.717,0 1.3,1.018 1.3,1.735c0,0.713 -0.583,1.737 -1.3,1.737Zm42.392,-49.025c0,-3.581 -2.902,-6.475 -6.48,-6.475l-73.766,0c-3.576,0 -6.475,2.894 -6.475,6.475l0,42.544c0,3.576 2.899,9.301 6.475,9.301l73.766,0c3.578,0 6.48,-5.725 6.48,-9.301l0,-42.544Z" style="fill:#00726a;fill-opacity:0.705882;fill-rule:nonzero;"/><path d="M1292.73,560.288l1.213,0l0,-8.46l-36.662,0l0,8.46l1.746,0l-15.846,4.098l0,4.363l62.042,0l0,-4.363l-12.493,-4.098Z" style="fill:#00726a;fill-opacity:0.705882;fill-rule:nonzero;"/><path d="M1273.07,586.572c-6.895,0 -14.571,14.636 -14.571,35.615c0,20.993 7.676,35.623 14.571,35.623c6.887,0 14.569,-14.63 14.569,-35.623c0,-20.979 -7.682,-35.615 -14.569,-35.615Zm0,75.55c-10.592,0 -18.892,-17.538 -18.892,-39.935c0,-22.386 8.3,-39.927 18.892,-39.927c10.59,0 18.886,17.541 18.886,39.927c0,22.397 -8.296,39.935 -18.886,39.935Z" style="fill:#00726a;fill-opacity:0.0784314;fill-rule:nonzero;"/><path d="M1294,597.985c-8.026,0 -19.405,4.805 -29.699,12.566c-7.828,5.9 -14.145,12.758 -17.803,19.307c-3.311,5.939 -3.993,10.956 -1.878,13.764c1.729,2.293 5.037,2.773 7.507,2.773c8.029,0 19.408,-4.806 29.704,-12.564c16.766,-12.628 23.827,-27.558 19.679,-33.071c-1.729,-2.296 -5.043,-2.775 -7.51,-2.775Zm-41.873,52.727c-4.949,0 -8.745,-1.551 -10.962,-4.495c-3.232,-4.292 -2.67,-10.846 1.563,-18.455c3.939,-7.07 10.676,-14.413 18.97,-20.66c11.174,-8.412 23.246,-13.429 32.302,-13.429c4.946,0 8.742,1.551 10.959,4.492c6.376,8.461 -2.643,25.643 -20.533,39.112c-11.176,8.415 -23.241,13.435 -32.299,13.435Z" style="fill:#00726a;fill-opacity:0.0784314;fill-rule:nonzero;"/><path d="M1252.39,601.132c-5.431,0 -9.221,1.469 -10.657,4.131c-3.277,6.066 5.942,19.767 24.411,29.747c9.696,5.24 19.749,8.243 27.603,8.243c5.432,0 9.216,-1.472 10.655,-4.129c3.277,-6.063 -5.94,-19.774 -24.414,-29.754c-9.687,-5.237 -19.746,-8.238 -27.598,-8.238Zm41.357,46.43c-8.542,0 -19.354,-3.189 -29.659,-8.751c-19.695,-10.648 -31.19,-26.291 -26.154,-35.603c2.259,-4.183 7.262,-6.391 14.456,-6.391c8.542,0 19.355,3.193 29.651,8.759c19.707,10.643 31.193,26.284 26.162,35.596c-2.267,4.185 -7.262,6.39 -14.456,6.39Z" style="fill:#00726a;fill-opacity:0.0784314;fill-rule:nonzero;"/><path d="M1278.11,622.187c0,2.786 -2.259,5.045 -5.037,5.045c-2.783,0 -5.037,-2.259 -5.037,-5.045c0,-2.772 2.254,-5.037 5.037,-5.037c2.778,0 5.037,2.265 5.037,5.037Z" style="fill:#00726a;fill-opacity:0.0784314;fill-rule:nonzero;"/><path d="M1152.55,363.561c-1.41,0 -2.555,-1.151 -2.555,-2.564c0,-1.416 1.145,-2.561 2.555,-2.561c1.418,0 2.563,1.145 2.563,2.561c0,1.413 -1.145,2.564 -2.563,2.564Zm-35.502,0c-1.416,0 -2.561,-1.151 -2.561,-2.564c0,-1.416 1.145,-2.561 2.561,-2.561c1.407,0 2.555,1.145 2.555,2.561c0,1.413 -1.148,2.564 -2.555,2.564Zm48.957,-39.64c0,-2.267 -1.526,-4.103 -3.41,-4.103l-39.882,0c-1.884,0 -2.876,1.836 -2.876,4.103c0,1.861 2.992,3.415 2.992,3.912l0,27.008c0,-0.183 -2.155,-0.288 -2.939,-0.288c-5.079,0 -9.537,4.115 -9.537,9.194c0,5.082 3.951,9.199 9.03,9.199c5.079,0 9.159,-4.744 9.159,-9.831c0,-0.55 -0.194,-29.422 -0.225,-36.357l25.73,0l0,28.083c0,-0.183 -0.011,-0.288 -0.789,-0.288c-5.082,0 -8.472,4.115 -8.472,9.194c0,5.082 4.481,9.199 9.563,9.199c5.088,0 9.433,-4.117 9.433,-9.199c0,-0.564 -0.019,-29.391 -0.047,-36.019c1.271,-0.592 2.27,-2.072 2.27,-3.807Z" style="fill:#00726a;fill-opacity:0;fill-rule:nonzero;"/><path d="M1140.27,562.998l0.593,0.511l36.486,-30.973l-15.045,3.277l-22.034,27.185Z" style="fill:#00726a;fill-opacity:0.0666667;fill-rule:nonzero;"/><path d="M1169.75,527.933c-0.477,0.291 -1.156,0.147 -1.464,-0.299c-0.313,-0.471 -0.166,-1.091 0.324,-1.396l0.57,-0.152c0.364,0 0.697,0.172 0.891,0.468c0.316,0.457 0.172,1.08 -0.321,1.379Zm43.139,-3.671c0.101,3.113 -3.787,5.767 -8.669,5.899c-4.622,0.141 -7.778,-2.025 -7.888,-5.299c-0.107,-3.395 2.989,-5.86 7.53,-5.99l0.395,-0.008c4.74,0 8.536,2.377 8.632,5.398Zm-8.534,-7.51c-5.843,0.177 -10.6,3.175 -11.348,6.914c-2.208,0.218 -6.853,0.618 -10.465,0.502c-4.862,-0.146 -12.581,-2.693 -12.66,-2.715l-0.143,-0.048l-44.434,17.814l0.248,0.728l67.652,-13.291c1.181,3.367 5.676,6.046 11.128,6.046l0.516,-0.231c3.11,-0.093 5.998,-1.075 8.156,-2.572c2.205,-1.534 3.372,-3.584 3.31,-5.683c-0.138,-4.261 -5.431,-7.622 -11.96,-7.464Z" style="fill:#00726a;fill-opacity:0.0666667;fill-rule:nonzero;"/><path d="M1182.61,496.393c1.697,-3.237 4.675,-5.409 7.397,-5.409c0.671,0 1.308,0.141 1.881,0.412c2.941,1.382 3.573,5.883 1.399,10.02c-1.535,2.933 -4.005,4.687 -6.602,4.687c-0.81,0 -1.594,-0.175 -2.321,-0.519c-1.444,-0.683 -2.44,-1.932 -2.786,-3.514c-0.376,-1.706 -0.017,-3.669 1.032,-5.677Zm-4.061,23.641l7.123,-12.899l0.023,0c3.66,0 7.617,-1.943 9.831,-6.165c2.879,-5.49 1.923,-11.038 -2.115,-12.936c-0.829,-0.392 -1.738,-0.361 -2.702,-0.361c-3.661,0 -7.617,2.959 -9.831,7.195c-2.391,4.568 -2.166,9.72 0.508,12.321l-5.807,12.149l2.97,0.696Z" style="fill:#00726a;fill-opacity:0.0666667;fill-rule:nonzero;"/><path d="M1203.34,636.121l-12.467,-5.51c-0.97,-0.429 -2.104,0.005 -2.527,0.975c-0.432,0.97 0.003,1.831 0.973,2.254l4.301,1.641l-63.85,0l0,-52.276l0.837,4.34c0.313,0.724 0.499,1.156 1.244,1.156c0.254,0 0.254,-0.045 0.496,-0.158c0.973,-0.417 1.295,-1.551 0.877,-2.521l-5.623,-12.865c-0.302,-0.706 -1.021,-1.154 -1.788,-1.162c-0.781,-0.014 -1.464,0.454 -1.774,1.145l-5.53,12.47c-0.423,0.962 0.005,2.098 0.978,2.521c0.968,0.437 1.591,-0.003 2.02,-0.97l1.328,-4.165l0,54.941c0,1.061 1.881,1.01 2.938,1.01l67.37,0l-4.205,2.273c-0.976,0.417 -1.427,1.776 -0.998,2.749c0.304,0.725 1.012,1.275 1.754,1.275c0.259,0 0.513,0.003 0.761,-0.107l12.871,-5.528c0.7,-0.298 1.157,-0.972 1.162,-1.734c0,-0.767 -0.445,-1.444 -1.148,-1.754Z" style="fill:#00726a;fill-opacity:0.529412;fill-rule:nonzero;"/><path d="M1143.64,632.012l0,-27.318c0,-2.479 -0.992,-4.487 -3.468,-4.487c-2.471,0 -3.469,2.008 -3.469,4.487l0,27.318l6.937,0Z" style="fill:#00726a;fill-opacity:0;fill-rule:nonzero;"/><path d="M1157.52,632.012l0,-34.357c0,-2.476 -0.998,-4.479 -3.469,-4.479c-2.476,0 -3.468,2.003 -3.468,4.479l0,34.357l6.937,0Z" style="fill:#00726a;fill-opacity:0;fill-rule:nonzero;"/><path d="M1174.86,632.012l0,-42.028c0,-2.476 -0.998,-4.475 -3.469,-4.475c-2.473,0 -3.468,1.999 -3.468,4.475l0,42.028l6.937,0Z" style="fill:#00726a;fill-opacity:0.529412;fill-rule:nonzero;"/><path d="M1305.38,255.302c0,4.6 -3.734,8.328 -8.328,8.328c-4.602,0 -8.336,-3.728 -8.336,-8.328c0,-4.599 3.734,-8.327 8.336,-8.327c4.594,0 8.328,3.728 8.328,8.327Z" style="fill:#00726a;fill-opacity:0.741176;fill-rule:nonzero;"/><path d="M1224.67,570.469c0,4.597 -3.731,8.328 -8.331,8.328c-4.591,0 -8.327,-3.731 -8.327,-8.328c0,-4.597 3.736,-8.325 8.327,-8.325c4.6,0 8.331,3.728 8.331,8.325Z" style="fill:#00726a;fill-opacity:0.294118;fill-rule:nonzero;"/><path d="M1117.05,424.418c0,4.597 -3.731,8.325 -8.331,8.325c-4.597,0 -8.328,-3.728 -8.328,-8.325c0,-4.602 3.731,-8.33 8.328,-8.33c4.6,0 8.331,3.728 8.331,8.33Z" style="fill:#00726a;fill-opacity:0.611765;fill-rule:nonzero;"/><path d="M1421.07,482.735c0,4.6 -3.729,8.328 -8.328,8.328c-4.6,0 -8.331,-3.728 -8.331,-8.328c0,-4.599 3.731,-8.327 8.331,-8.327c4.599,0 8.328,3.728 8.328,8.327Z" style="fill:#00726a;fill-opacity:0.223529;fill-rule:nonzero;"/><path d="M1453.62,361c0,4.6 -3.731,8.333 -8.325,8.333c-4.605,0 -8.333,-3.733 -8.333,-8.333c0,-4.594 3.728,-8.328 8.333,-8.328c4.594,0 8.325,3.734 8.325,8.328Z" style="fill:#00726a;fill-opacity:0.345098;fill-rule:nonzero;"/><path d="M1393.78,628.123c0,4.597 -3.725,8.325 -8.325,8.325c-4.602,0 -8.33,-3.728 -8.33,-8.325c0,-4.599 3.728,-8.328 8.33,-8.328c4.6,0 8.325,3.729 8.325,8.328Z" style="fill:#00726a;fill-opacity:0.270588;fill-rule:nonzero;"/><path d="M1339.97,572.387c0,3.542 -2.871,6.41 -6.408,6.41c-3.536,0 -6.404,-2.868 -6.404,-6.41c0,-3.537 2.868,-6.402 6.404,-6.402c3.537,0 6.408,2.865 6.408,6.402Z" style="fill:#00726a;fill-opacity:0.294118;fill-rule:nonzero;"/><path d="M1216.98,372.529c0,3.536 -2.868,6.407 -6.401,6.407c-3.539,0 -6.41,-2.871 -6.41,-6.407c0,-3.537 2.871,-6.405 6.41,-6.405c3.533,0 6.401,2.868 6.401,6.405Z" style="fill:#00726a;fill-opacity:0.611765;fill-rule:nonzero;"/><path d="M1095.56,382.935c0,3.536 -2.865,6.407 -6.396,6.407c-3.545,0 -6.41,-2.871 -6.41,-6.407c0,-3.537 2.865,-6.405 6.41,-6.405c3.531,0 6.396,2.868 6.396,6.405Z" style="fill:#00726a;fill-opacity:0.294118;fill-rule:nonzero;"/><path d="M1478.01,601.654c0,3.533 -2.868,6.404 -6.399,6.404c-3.545,0 -6.41,-2.871 -6.41,-6.404c0,-3.537 2.865,-6.41 6.41,-6.41c3.531,0 6.399,2.873 6.399,6.41Z" style="fill:#00726a;fill-rule:nonzero;"/><path d="M1482.17,422.492c0,3.54 -2.865,6.41 -6.401,6.41c-3.54,0 -6.408,-2.87 -6.408,-6.41c0,-3.536 2.868,-6.404 6.408,-6.404c3.536,0 6.401,2.868 6.401,6.404Z" style="fill:#00726a;fill-opacity:0.807843;fill-rule:nonzero;"/><path d="M1332.28,445.555c0,3.534 -2.865,6.407 -6.402,6.407c-3.544,0 -6.41,-2.873 -6.41,-6.407c0,-3.536 2.866,-6.407 6.41,-6.407c3.537,0 6.402,2.871 6.402,6.407Z" style="fill:#00726a;fill-opacity:0.235294;fill-rule:nonzero;"/><path d="M1093.99,568.548c0,3.537 -2.874,6.408 -6.407,6.408c-3.542,0 -6.411,-2.871 -6.411,-6.408c0,-3.536 2.869,-6.404 6.411,-6.404c3.533,0 6.407,2.868 6.407,6.404Z" style="fill:#00726a;fill-opacity:0.811765;fill-rule:nonzero;"/><path d="M1078.61,432.103c0,2.476 -2.005,4.484 -4.476,4.484c-2.484,0 -4.492,-2.008 -4.492,-4.484c0,-2.476 2.008,-4.484 4.492,-4.484c2.471,0 4.476,2.008 4.476,4.484Z" style="fill:#00726a;fill-rule:nonzero;"/><path d="M1220.82,489.755c0,2.479 -2.011,4.486 -4.487,4.486c-2.479,0 -4.478,-2.007 -4.478,-4.486c0,-2.474 1.999,-4.481 4.478,-4.481c2.476,0 4.487,2.007 4.487,4.481Z" style="fill:#00726a;fill-rule:nonzero;"/><path d="M1363.03,389.824c0,2.479 -2.014,4.487 -4.487,4.487c-2.479,0 -4.487,-2.008 -4.487,-4.487c0,-2.476 2.008,-4.484 4.487,-4.484c2.473,0 4.487,2.008 4.487,4.484Z" style="fill:#00726a;fill-opacity:0.235294;fill-rule:nonzero;"/><path d="M1393.78,274.521c0,2.476 -2.008,4.487 -4.484,4.487c-2.473,0 -4.478,-2.011 -4.478,-4.487c0,-2.476 2.005,-4.484 4.478,-4.484c2.476,0 4.484,2.008 4.484,4.484Z" style="fill:#00726a;fill-rule:nonzero;"/><path d="M1282.32,297.579c0,2.476 -2.013,4.486 -4.489,4.486c-2.477,0 -4.479,-2.01 -4.479,-4.486c0,-2.471 2.002,-4.482 4.479,-4.482c2.476,0 4.489,2.011 4.489,4.482Z" style="fill:#00726a;fill-opacity:0.294118;fill-rule:nonzero;"/><path d="M1167.01,301.425c0,2.473 -2.005,4.484 -4.484,4.484c-2.476,0 -4.484,-2.011 -4.484,-4.484c0,-2.479 2.008,-4.487 4.484,-4.487c2.479,0 4.484,2.008 4.484,4.487Z" style="fill:#00726a;fill-opacity:0.721569;fill-rule:nonzero;"/><path d="M1205.45,608.904c0,2.471 -2.008,4.487 -4.481,4.487c-2.479,0 -4.49,-2.016 -4.49,-4.487c0,-2.476 2.011,-4.492 4.49,-4.492c2.473,0 4.481,2.016 4.481,4.492Z" style="fill:#00726a;fill-opacity:0.529412;fill-rule:nonzero;"/><path d="M1328.43,616.592c0,2.47 -2.003,4.484 -4.484,4.484c-2.471,0 -4.482,-2.014 -4.482,-4.484c0,-2.471 2.011,-4.487 4.482,-4.487c2.481,0 4.484,2.016 4.484,4.487Z" style="fill:#00726a;fill-rule:nonzero;"/><path d="M1522.15,485.09c0,2.473 -2.011,4.481 -4.487,4.481c-2.478,0 -4.481,-2.008 -4.481,-4.481c0,-2.479 2.003,-4.489 4.481,-4.489c2.476,0 4.487,2.01 4.487,4.489Z" style="fill:#00726a;fill-opacity:0.294118;fill-rule:nonzero;"/><path d="M1463.76,476.038c0,2.476 -2.01,4.486 -4.486,4.486c-2.477,0 -4.487,-2.01 -4.487,-4.486c0,-2.474 2.01,-4.487 4.487,-4.487c2.476,0 4.486,2.013 4.486,4.487Z" style="fill:#00726a;fill-rule:nonzero;"/></g></svg>