<?xml version="1.0" encoding="UTF-8" standalone="no"?><!DOCTYPE svg PUBLIC "-//W3C//DTD SVG 1.1//EN" "http://www.w3.org/Graphics/SVG/1.1/DTD/svg11.dtd"><svg width="100%" height="100%" viewBox="0 0 800 600" version="1.1" xmlns="http://www.w3.org/2000/svg" xmlns:xlink="http://www.w3.org/1999/xlink" xml:space="preserve" style="fill-rule:evenodd;clip-rule:evenodd;stroke-linejoin:round;stroke-miterlimit:1.41421;"><g><path d="M619.774,300.487c0.673,4.031 6.052,10.305 12.112,19.498c2.983,4.524 0.648,10.878 -1.692,13.944c-2.134,2.799 -8.402,7.786 -8.402,7.786c0,0 6.722,2.688 7.619,8.516c0.9,5.827 1.791,11.649 -7.171,17.475c-4.943,3.216 -6.274,3.138 -6.274,8.517c0,5.376 15.236,35.401 -21.063,43.918c-36.301,8.516 -87.836,1.341 -95.009,19.717c-4.087,10.474 -7.156,25.608 -8.54,40.255c-0.147,1.552 6.184,4.371 6.075,5.906c-0.659,9.39 -4.352,16.403 -3.359,23.527c2.25,16.136 3.558,63.509 3.924,78.505l-257.837,0c3.574,-67.171 60.31,-133.628 60.31,-133.628c0,0 2.466,-15.01 5.378,-18.148c2.914,-3.138 13.224,-0.45 13.224,-0.45l1.454,-5.824c0,0 -35.572,-20.615 -54.842,-35.406c-19.271,-14.786 -99.572,-73.043 -99.572,-181.5c0,-108.449 39.396,-100.383 39.396,-100.383c0,0 27.764,-59.156 75.266,-80.666c47.502,-21.511 104.937,-21.637 144.29,-18.822c37.637,2.69 118.753,12.548 116.734,52.88c0,0 37.983,24.761 52.1,55.684c14.115,30.922 10.587,59.099 6.553,79.937c-4.033,20.837 -5.097,39.158 5.967,50.391c6.043,6.131 27.476,20.773 27.476,26.857c0,12.997 -14.789,17.479 -14.117,21.514Z" style="fill:#fff;fill-rule:nonzero;"/><path d="M212.7,215.395c0,-7.346 3.451,-13.935 8.675,-18.329l2.264,2.359c-4.594,3.806 -7.496,9.551 -7.496,15.97c0,11.436 9.319,20.741 20.756,20.741c5.907,0 11.25,-2.488 15.032,-6.46l2.114,2.356c-4.044,4.186 -10.979,6.906 -15.855,7.278l0,7.286c7.312,0.173 12.974,1.165 13.321,2.376c0.222,0.523 0.063,1.384 0.063,1.64c0,1.393 -6.933,2.526 -15.519,2.526c-8.58,0 -15.53,-1.133 -15.53,-2.526c0,-0.283 -0.485,-1.143 -0.214,-1.68c0.462,-1.199 8.134,-2.167 13.008,-2.34l0,-7.437c-12.184,-1.521 -20.619,-11.593 -20.619,-23.76Z" style="fill:#00726a;fill-rule:nonzero;"/><path d="M246.756,225.31l-3.461,-3.11c-2.579,2.914 -6.131,5.491 -11.01,6.989c1.317,0.406 2.722,0.63 4.174,0.63c4.065,0 7.728,-1.74 10.297,-4.509Zm3.748,-9.535c0,-1.957 -0.402,-3.819 -1.129,-5.511c-0.719,2.888 -2.118,6.771 -4.802,10.363l3.451,3.102c1.563,-2.262 2.48,-5.002 2.48,-7.954Zm-23.184,-10.65l3.56,3.197c3.552,-3.128 7.53,-4.849 10.339,-5.761c-1.49,-0.536 -3.09,-0.83 -4.76,-0.83c-3.487,0 -6.682,1.282 -9.139,3.394Zm8.168,10.062l-4.626,-4.159c-2.829,2.958 -5.168,7.059 -5.943,12.739c0.361,0.521 0.753,1.014 1.179,1.477l9.39,-10.057Zm1.506,1.349l-9.43,10.097c0.553,0.454 1.139,0.862 1.749,1.228c5.761,-1.2 9.751,-3.876 12.528,-6.971l-4.847,-4.354Zm8.199,-11.746c-0.41,-0.325 -0.836,-0.63 -1.28,-0.911c-2.294,0.521 -7.26,1.997 -11.579,5.755l4.535,4.073l8.324,-8.917Zm-6.821,10.27l4.747,4.259c3.211,-4.325 4.36,-9.087 4.77,-11.688c-0.368,-0.515 -0.774,-1.004 -1.206,-1.47l-8.311,8.899Zm-15.957,0.715c0,1.813 0.349,3.546 0.981,5.143c1.123,-4.81 3.369,-8.451 6.014,-11.193l-3.53,-3.176c-2.157,2.473 -3.465,5.698 -3.465,9.226Zm14.044,-18.089c9.976,0 18.091,8.114 18.091,18.089c0,9.973 -8.115,18.087 -18.091,18.087c-9.975,0 -18.087,-8.114 -18.087,-18.087c0,-9.975 8.112,-18.089 18.087,-18.089Z" style="fill:#00726a;fill-rule:nonzero;"/><path d="M360.16,68.396l3.374,3.939l-9.22,7.898l-3.372,-3.938c-1.119,-1.304 -0.741,-3.33 0.571,-4.448l4.489,-3.849c1.305,-1.119 3.039,-0.909 4.158,0.398Z" style="fill:#00726a;fill-rule:nonzero;"/><path d="M399.143,122.951l-2.169,-7.194l-2.163,-7.197l-4.616,3.952l-4.606,3.949l6.777,3.245l6.777,3.245Z" style="fill:#00726a;fill-rule:nonzero;"/><path d="M389.434,109.135l1.628,-1.5l-26.859,-31.338l-1.63,1.497l26.861,31.341Zm-24.805,-35.606l29.031,33.876l-9.216,7.901l-29.033,-33.878l9.218,-7.899Z" style="fill:#00726a;fill-rule:nonzero;"/><path d="M376.997,160.721c7.928,0 14.355,-6.424 14.355,-14.356c0,-7.93 -6.427,-14.359 -14.355,-14.359c-7.932,0 -14.359,6.429 -14.359,14.359c0,7.932 6.427,14.356 14.359,14.356Zm-17.998,-11.155l-3.932,-3.176l3.928,-3.185l-2.609,-4.331l4.78,-1.65l-0.972,-4.96l5.057,0.085l0.777,-4.995l4.727,1.809l2.442,-4.425l3.82,3.316l3.809,-3.326l2.453,4.421l4.717,-1.818l0.794,4.994l5.058,-0.097l-0.965,4.964l4.786,1.641l-2.603,4.334l3.935,3.176l-3.931,3.181l2.611,4.331l-4.774,1.65l0.971,4.959l-5.058,-0.085l-0.783,4.996l-4.72,-1.809l-2.447,4.428l-3.818,-3.314l-3.809,3.322l-2.455,-4.422l-4.717,1.821l-0.792,-4.993l-5.058,0.094l0.965,-4.965l-4.782,-1.636l2.595,-4.335Z" style="fill:#00726a;fill-rule:nonzero;"/><path d="M383.881,165.117l5.147,1.974l0.852,-5.446l3.508,0.059l8.037,17.671l-9.408,-5.505l-2.123,10.753l-7.582,-16.661l1.569,-2.845Z" style="fill:#00726a;fill-rule:nonzero;"/><path d="M360.998,161.734l3.219,-0.062l0.868,5.444l5.139,-1.983l1.731,3.114l-7.453,16.376l-2.127,-10.753l-9.404,5.505l8.027,-17.641Z" style="fill:#00726a;fill-rule:nonzero;"/><path d="M376.383,151.943l2.435,0l0,-9.746l-0.937,0l2.781,1.283l0.681,-2.395l-3.651,-1.325l-1.309,0l0,12.183Zm0.614,-18.441c7.102,0 12.863,5.761 12.863,12.863c0,7.106 -5.761,12.867 -12.863,12.867c-7.108,0 -12.869,-5.761 -12.869,-12.867c0,-7.102 5.761,-12.863 12.869,-12.863Z" style="fill:#00726a;fill-rule:nonzero;"/><path d="M281.264,75.328c1.3,0 2.126,-0.503 2.126,-0.503l1.201,8.467c0,0 -1.389,1.093 -3.751,1.093c-2.359,0 -3.706,-1.093 -3.706,-1.093l1.769,-8.594c0,0 1.056,0.63 2.361,0.63Z" style="fill:#00726a;fill-rule:nonzero;"/><path d="M337.394,66.659l0,19.664l-30.433,0.507l-18.305,-3.984l0,-20.175l17.797,3.988l30.941,0Z" style="fill:#00726a;fill-rule:nonzero;"/><path d="M313.627,59.347c-0.153,0 -1.3,-2.399 -2.694,-2.399c-1.391,0 -2.536,2.399 -2.693,2.399l5.387,0Zm-34.716,-1.928l0,-0.507l38.557,0l29.674,4.236l0,3.072l-40.689,0l-22.669,-5.654l0,11.449c0,0.342 0.278,1.004 0.278,1.777c0,1.115 -1.306,2.02 -2.419,2.02c-1.122,0 -1.633,-0.905 -1.633,-2.02c0,-0.719 1.34,-1.347 1.34,-1.708l0,-11.975l-2.439,-0.69Z" style="fill:#00726a;fill-rule:nonzero;"/><path d="M415.372,176.197c0,0 3.988,-1.796 12.922,-1.796c6.421,0 11.445,0.931 11.445,1.452l0,-37.795c-2.439,-0.85 -6.052,-2.577 -12.08,-2.577c-7.978,0 -12.287,3.037 -12.287,3.037l0,37.679Zm29.24,-0.344c0,-0.521 5.02,-1.452 11.443,-1.452c8.933,0 12.924,1.796 12.924,1.796l0,-37.679c0,0 -4.306,-3.037 -12.298,-3.037c-6.016,0 -9.632,1.727 -12.069,2.577l0,37.795Zm-30.928,-40.111c0.224,-0.144 5.519,-3.542 14.462,-3.542c6.813,0 11.934,1.961 14.095,2.938c2.159,-0.977 7.318,-2.938 14.137,-2.938c8.938,0 14.075,3.398 14.299,3.542c0.65,0.412 0.739,1.129 0.739,1.9l0,39.582c0,0.745 -0.089,2.419 -0.705,2.837c-0.077,0.055 -0.747,1.125 -2.364,1.125l-24.105,0c-0.147,2.436 -1.123,1.178 -2.328,1.178c-1.2,0 -2.179,1.258 -2.329,-1.178l-25.883,0c-0.876,0 -0.771,-3.279 -0.771,-3.962l0,-39.582c0,-0.771 0.103,-1.488 0.753,-1.9Z" style="fill:#00726a;fill-rule:nonzero;"/><path d="M466.154,144.714c0.274,0 0.529,-0.188 0.63,-0.493c0.129,-0.39 -0.051,-0.822 -0.398,-0.963c-3.508,-1.44 -10.65,-3.405 -19.067,-0.416c-0.353,0.127 -0.547,0.549 -0.436,0.943c0.111,0.397 0.493,0.613 0.844,0.488c8.041,-2.853 14.85,-0.975 18.196,0.394l0.231,0.047Z" style="fill:#00726a;fill-rule:nonzero;"/><path d="M466.004,152.233c0.273,0 0.531,-0.191 0.632,-0.496c0.131,-0.386 -0.052,-0.818 -0.4,-0.962c-3.507,-1.441 -10.645,-3.404 -19.064,-0.415c-0.351,0.125 -0.553,0.547 -0.438,0.945c0.113,0.395 0.493,0.611 0.844,0.488c8.035,-2.855 14.85,-0.979 18.194,0.392l0.232,0.048Z" style="fill:#00726a;fill-rule:nonzero;"/><path d="M466.154,159.751c0.274,0 0.529,-0.188 0.63,-0.494c0.129,-0.388 -0.051,-0.822 -0.398,-0.964c-3.508,-1.439 -10.65,-3.406 -19.067,-0.418c-0.353,0.128 -0.547,0.55 -0.436,0.947c0.111,0.396 0.493,0.612 0.844,0.489c8.041,-2.857 14.85,-0.981 18.196,0.394l0.231,0.046Z" style="fill:#00726a;fill-rule:nonzero;"/><path d="M466.154,167.271c0.274,0 0.529,-0.19 0.63,-0.495c0.129,-0.391 -0.051,-0.825 -0.398,-0.965c-3.508,-1.438 -10.65,-3.406 -19.067,-0.414c-0.353,0.125 -0.547,0.548 -0.436,0.943c0.111,0.398 0.493,0.612 0.844,0.489c8.041,-2.855 14.85,-0.979 18.196,0.394l0.231,0.048Z" style="fill:#00726a;fill-rule:nonzero;"/><path d="M437.34,144.714c0.275,0 0.535,-0.188 0.632,-0.493c0.129,-0.39 -0.052,-0.822 -0.398,-0.963c-3.509,-1.44 -10.646,-3.405 -19.062,-0.416c-0.355,0.127 -0.551,0.549 -0.44,0.943c0.113,0.397 0.492,0.613 0.846,0.488c8.035,-2.853 14.846,-0.975 18.192,0.394l0.23,0.047Z" style="fill:#00726a;fill-rule:nonzero;"/><path d="M437.191,152.233c0.278,0 0.531,-0.191 0.634,-0.496c0.125,-0.386 -0.053,-0.818 -0.402,-0.962c-3.504,-1.441 -10.646,-3.404 -19.064,-0.415c-0.352,0.125 -0.548,0.547 -0.435,0.945c0.113,0.395 0.491,0.611 0.842,0.488c8.039,-2.855 14.85,-0.979 18.196,0.392l0.229,0.048Z" style="fill:#00726a;fill-rule:nonzero;"/><path d="M437.34,159.751c0.275,0 0.535,-0.188 0.632,-0.494c0.129,-0.388 -0.052,-0.822 -0.398,-0.964c-3.509,-1.439 -10.646,-3.406 -19.062,-0.418c-0.355,0.128 -0.551,0.55 -0.44,0.947c0.113,0.396 0.492,0.612 0.846,0.489c8.035,-2.857 14.846,-0.981 18.192,0.394l0.23,0.046Z" style="fill:#00726a;fill-rule:nonzero;"/><path d="M437.34,167.271c0.275,0 0.535,-0.19 0.632,-0.495c0.129,-0.391 -0.052,-0.825 -0.398,-0.965c-3.509,-1.438 -10.646,-3.406 -19.062,-0.414c-0.355,0.125 -0.551,0.548 -0.44,0.943c0.113,0.398 0.492,0.612 0.846,0.489c8.035,-2.855 14.846,-0.979 18.192,0.394l0.23,0.048Z" style="fill:#00726a;fill-rule:nonzero;"/><path d="M276.064,243.52c0,1.066 0.866,1.933 1.936,1.933c1.065,0 1.931,-0.867 1.931,-1.933c0,-1.068 -0.866,-1.936 -1.931,-1.936c-1.07,0 -1.936,0.868 -1.936,1.936Z" style="fill:#00726a;fill-rule:nonzero;"/><path d="M275.119,259.574c1.565,0 2.835,-1.266 2.835,-2.829c0,-1.567 -1.27,-2.837 -2.835,-2.837c-1.563,0 -2.833,1.27 -2.833,2.837c0,1.563 1.27,2.829 2.833,2.829Zm5.577,-6.296c0.669,0 1.216,-0.54 1.216,-1.212c0,-0.672 -0.547,-1.214 -1.216,-1.214c-0.67,0 -1.215,0.542 -1.215,1.214c0,0.672 0.545,1.212 1.215,1.212Zm-13.832,6.433l0.836,-0.896c1.666,-2.848 3.738,-6.963 5.81,-9.4l10.08,0c3.116,4.874 6.397,9.747 8.033,12.18l-26.324,0c0.434,0 0.969,-0.868 1.565,-1.884Z" style="fill:#00726a;fill-rule:nonzero;"/><path d="M261.901,264.238c0.094,0.176 0.537,-0.204 0.908,-0.204l31.049,0c0.38,0 0.905,0.38 1.012,0.223c0.204,-0.497 0.135,-0.384 -0.039,-0.691c-0.06,-0.101 -0.305,-0.301 -0.642,-0.876c-1.706,-2.874 -6.248,-10.428 -10.046,-17.528c-0.18,-0.331 -0.359,-0.622 -0.359,-1.002l0,-16.675l-9.745,0l0,15.839c0,0.408 -0.271,0.802 -0.477,1.151c-3.037,5.228 -6.377,10.887 -8.647,14.76c-1.385,2.368 -2.655,4.07 -2.778,4.293c-0.319,0.579 -0.323,0.498 -0.236,0.71Zm-2.553,-0.65c0.305,-0.569 7.379,-11.203 12.251,-20.506l0,-14.47c-2.433,-0.093 -2.433,-0.626 -2.433,-1.264l0,-0.132c0,-0.708 1.086,-2.168 1.795,-2.168l15.787,0c0.705,0 1.908,1.46 1.908,2.168l0,0.132c0,0.708 -1.203,0.137 -1.908,0.137l-0.525,0l0,16.482c4.871,9.072 11.116,19.068 11.419,19.621c0.554,1.014 0.727,2.118 0.253,3.263c-0.422,1.036 -1.816,2.058 -3.211,2.058l-32.709,0c-1.395,0 -2.627,-1.022 -3.051,-2.058c-0.474,-1.145 -0.139,-2.249 0.424,-3.263Z" style="fill:#00726a;fill-rule:nonzero;"/><path d="M332.364,128.828c0.998,0.747 2.054,1.351 3.152,1.829l-9.692,12.958c-0.873,1.163 -2.819,1.185 -4.34,0.044c-1.53,-1.14 -2.055,-3.012 -1.185,-4.176l9.648,-12.895c0.711,0.814 1.519,1.567 2.417,2.24Z" style="fill:#00726a;fill-rule:nonzero;"/><path d="M335.524,124.605c5.501,4.116 13.3,2.993 17.415,-2.514c4.117,-5.5 2.991,-13.299 -2.512,-17.412c-5.501,-4.118 -13.301,-2.995 -17.415,2.51c-4.117,5.502 -2.99,13.299 2.512,17.416Zm16.848,-22.527c6.938,5.189 8.358,15.023 3.17,21.96c-5.194,6.94 -15.026,8.356 -21.962,3.168c-6.942,-5.194 -8.358,-15.022 -3.168,-21.962c5.195,-6.938 15.025,-8.356 21.96,-3.166Z" style="fill:#00726a;fill-rule:nonzero;"/><path d="M347.545,108.812c-3.406,-1.954 -7.723,-1.363 -10.478,1.412l-2.455,-1.543c3.729,-4.2 10.003,-5.091 14.757,-2.086l-1.824,2.217Z" style="fill:#00726a;fill-rule:nonzero;"/><path d="M297.594,154.44c-0.65,-0.733 -1.838,-1.419 -3.457,-2.138c0.547,-0.226 0.896,-0.412 0.927,-0.537c0.222,-0.951 0.214,-3.926 -0.144,-4.493c-0.054,-0.087 -0.995,-0.826 -1.193,-1.565c-0.198,-0.741 -0.414,-2.225 -0.414,-2.225c0,0 -0.856,0.141 -1.398,-1.682c-0.541,-1.82 -0.953,-2.799 0.158,-3.14c-0.337,-2.735 -1.197,-9.047 6.835,-9.277l0.42,0.63l0.045,0l0.044,0l0.424,-0.63c8.025,0.23 7.171,6.858 6.83,9.592c1.11,0.341 0.7,1.163 0.159,2.986c-0.541,1.82 -1.395,1.601 -1.395,1.601c0,0 -0.214,1.442 -0.414,2.183c-0.2,0.741 -1.139,1.458 -1.192,1.547c-0.361,0.568 -0.46,3.873 -0.145,4.483c0.277,0.547 7.217,2.478 8.453,3.885c1.238,1.41 1.11,7.298 1.11,7.298c0,0 -5.104,0.04 -13.125,-0.022c-0.218,0.002 -0.438,0.002 -0.66,0.004c-0.075,-2.797 -0.441,-6.88 -1.868,-8.5Z" style="fill:#00726a;fill-rule:nonzero;"/><path d="M244.644,155.654c1.239,-1.409 8.321,-3.316 8.454,-3.889c0.224,-0.951 0.214,-3.926 -0.145,-4.493c-0.051,-0.087 -0.994,-0.826 -1.195,-1.565c-0.196,-0.741 -0.416,-2.225 -0.416,-2.225c0,0 -0.849,0.141 -1.39,-1.682c-0.543,-1.82 -0.953,-2.799 0.156,-3.14c-0.341,-2.735 -1.194,-9.047 6.831,-9.277l0.424,0.63l0.047,0l0.042,0l0.422,-0.63c8.025,0.23 7.173,6.858 6.833,9.592c1.109,0.341 0.699,1.163 0.156,2.986c-0.543,1.82 -1.394,1.601 -1.394,1.601c0,0 -0.216,1.442 -0.415,2.183c-0.2,0.741 -1.141,1.458 -1.194,1.547c-0.357,0.568 -0.454,3.873 -0.143,4.483c0.097,0.192 0.997,0.545 2.183,0.989c-1.147,0.554 -2.002,1.097 -2.512,1.677c-1.426,1.625 -1.796,5.708 -1.876,8.505c-0.445,-0.004 0.089,-0.008 -0.372,-0.01c-0.234,0.002 0.277,-0.125 0.277,-0.125l0,-1.121l-2.007,0l2.007,0l0,1.123c-2.438,-0.002 -1.499,0.06 -1.733,0.058c-8.023,0.065 -13.636,0.051 -13.636,0.051c0,0 -0.644,-5.86 0.596,-7.268Z" style="fill:#00726a;fill-rule:nonzero;"/><path d="M262.648,155.551c1.635,-1.86 10.979,-4.382 11.154,-5.133c0.295,-1.256 0.285,-5.181 -0.187,-5.927c-0.071,-0.115 -1.313,-1.09 -1.576,-2.065c-0.262,-0.976 -0.547,-2.932 -0.547,-2.932c0,0 -1.127,0.181 -1.841,-2.22c-0.711,-2.403 -1.258,-3.695 0.206,-4.147c-0.447,-3.605 -1.578,-12.768 9.01,-13.067c0.194,-0.008 0.377,-0.002 0.563,0l0,-0.002l0.057,0l0.056,0l0,0.002c0.188,-0.002 0.37,-0.008 0.562,0c10.593,0.299 9.462,9.462 9.008,13.067c1.466,0.452 0.927,1.744 0.212,4.147c-0.715,2.401 -1.84,2.22 -1.84,2.22c0,0 -0.281,1.956 -0.547,2.932c-0.265,0.975 -1.507,1.95 -1.577,2.065c-0.465,0.746 -0.6,5.121 -0.184,5.927c0.362,0.721 9.515,3.273 11.149,5.133c1.633,1.856 1.464,9.63 1.464,9.63c0,0 -6.733,0.055 -17.314,-0.028c-0.307,0.002 -0.618,0.006 -0.933,0.006l-0.113,0c-0.315,0 -0.622,-0.004 -0.931,-0.006c-10.583,0.083 -17.313,0.028 -17.313,0.028c0,0 -0.17,-7.774 1.462,-9.63Z" style="fill:#00726a;fill-rule:nonzero;"/><path d="M280.963,110.945l0.63,-10.66l-4.493,0l0.626,10.66l3.237,0Zm-1.595,5.898c1.451,0 2.467,-1.068 2.467,-2.49c0,-1.5 -1.016,-2.514 -2.467,-2.514c-1.475,0 -2.462,1.014 -2.486,2.514c0,1.422 0.989,2.49 2.463,2.49l0.023,0Z" style="fill:#00726a;fill-rule:nonzero;"/><path d="M408.312,83.385c11.224,0 20.323,-9.099 20.323,-20.326c0,-11.228 -9.099,-20.327 -20.323,-20.327c-11.227,0 -20.33,9.099 -20.33,20.327c0,11.227 9.103,20.326 20.33,20.326Zm9.093,5.056c11.228,0 20.331,-9.103 20.331,-20.328c0,-7.582 -4.156,-14.19 -10.309,-17.683c2.397,3.619 3.799,7.958 3.799,12.629c0,12.653 -10.261,22.915 -22.914,22.915c-0.214,0 -0.426,-0.012 -0.632,-0.016c2.89,1.581 6.202,2.483 9.725,2.483Zm-32.01,-25.382c0,-12.657 10.258,-22.915 22.917,-22.915c5.919,0 11.317,2.249 15.384,5.934c9.599,2.737 16.625,11.563 16.625,22.035c0,12.655 -10.259,22.913 -22.916,22.913c-5.918,0 -11.308,-2.247 -15.377,-5.933c-9.599,-2.728 -16.633,-11.56 -16.633,-22.034Z" style="fill:#00726a;fill-rule:nonzero;"/><path d="M408.312,58.992c2.24,0 4.063,1.821 4.063,4.067c0,2.243 -1.823,4.063 -4.063,4.063c-2.247,0 -4.066,-1.82 -4.066,-4.063c0,-2.246 1.819,-4.067 4.066,-4.067Z" style="fill:#00726a;fill-rule:nonzero;"/><path d="M403.715,45.158l3.416,12.485c-1.284,0.279 -2.397,1.002 -3.178,1.999l-9.323,-9c2.393,-2.635 5.529,-4.576 9.085,-5.484Z" style="fill:#00726a;fill-rule:nonzero;"/><path d="M392.758,53.089l10.631,7.431c-0.286,0.548 -0.48,1.153 -0.567,1.79l-11.658,-6.145c0.439,-1.08 0.974,-2.108 1.594,-3.076Z" style="fill:#00726a;fill-rule:nonzero;"/><path d="M469.592,193.367l18.921,0c1.656,0 2.397,0.444 2.397,2.104l0,13.075c0,1.66 -0.741,1.88 -2.397,1.88l-8.479,0l-1.23,3.826l-4.646,-3.826l-4.566,0c-1.657,0 -3.049,-0.22 -3.049,-1.88l0,-13.075c0,-1.66 1.392,-2.104 3.049,-2.104Z" style="fill:#00726a;fill-rule:nonzero;"/><path d="M496.994,186.863c0.6,0.656 1.226,1.332 1.226,2.138l0,1.932l4.873,0l0,-2.138c0,-0.937 -1.547,-1.856 -2.349,-2.789c-0.505,-0.603 -1.635,-1.165 -1.635,-1.708c0,-0.525 0.034,-0.882 0.84,-0.899c0.618,0 1.207,0.206 1.694,0.544l0.63,-2.418c-0.691,-0.375 -1.872,-0.767 -3.352,-0.767c-2.627,0 -3.681,1.385 -3.681,2.977c0,1.518 1.116,2.439 1.754,3.128Zm2.111,7.681l0.018,0c1.125,0 1.91,-0.689 1.91,-1.799c0,-1.163 -0.806,-1.878 -1.91,-1.878c-1.145,0 -1.911,0.684 -1.933,1.845c0,1.105 0.772,1.832 1.915,1.832Zm-13.429,-18.234l24.533,0c2.154,0 5.07,1.544 5.07,3.693l0,17.134c0,2.156 -2.916,3.542 -5.07,3.542l-3.092,0l-5.668,4.674l-1.508,-4.674l-4.158,0l0,-5.016c0,-2.625 -4.455,-4.73 -7.078,-4.73l-7.542,0l0,-10.93c0,-2.149 2.359,-3.693 4.513,-3.693Z" style="fill:#00726a;fill-rule:nonzero;"/><path d="M312.103,229.432c9.218,0 16.693,-7.472 16.693,-16.69c0,-9.212 -7.475,-16.68 -16.693,-16.68c-9.213,0 -16.684,7.468 -16.684,16.68c0,9.218 7.471,16.69 16.684,16.69Zm0,-35.982c10.659,0 19.298,8.638 19.298,19.292c0,10.658 -8.639,19.299 -19.298,19.299c-10.658,0 -19.295,-8.641 -19.295,-19.299c0,-10.654 8.637,-19.292 19.295,-19.292Z" style="fill:#00726a;fill-rule:nonzero;"/><path d="M306.848,221.853l5.255,-3.873l5.26,3.873l-0.729,-6.49l5.987,-2.621l-5.987,-2.613l0.729,-6.49l-5.26,3.875l-5.255,-3.875l0.727,6.49l-5.987,2.613l5.987,2.621l-0.727,6.49Zm5.255,-23.973c8.21,0 14.862,6.66 14.862,14.862c0,8.21 -6.652,14.87 -14.862,14.87c-8.209,0 -14.863,-6.66 -14.863,-14.87c0,-8.202 6.654,-14.862 14.863,-14.862Z" style="fill:#00726a;fill-rule:nonzero;"/><path d="M303.456,193.987l-5.68,-15.131l8.028,-3.015l6.099,16.249c-3.013,0.027 -5.875,0.707 -8.447,1.897Z" style="fill:#00726a;fill-rule:nonzero;"/><path d="M312.918,192.103l6.109,-16.262l8.028,3.015l-5.779,15.381c-2.534,-1.262 -5.365,-2.023 -8.358,-2.134Z" style="fill:#00726a;fill-rule:nonzero;"/><path d="M344.706,226.31c0,1.995 1.82,3.612 4.071,3.612l45.465,0c2.249,0 4.071,-1.617 4.071,-3.612l0,-24.456c0,-1.995 -1.822,-3.613 -4.071,-3.613l-45.465,0c-2.251,0 -4.071,1.618 -4.071,3.613l0,24.456Zm24.902,8.485l4.096,0c0.5,0 0.906,-0.719 0.906,-1.22c0,-0.503 -0.406,-1.219 -0.906,-1.219l-4.096,0c-0.504,0 -0.914,0.716 -0.914,1.219c0,0.501 0.41,1.22 0.914,1.22Zm-29.78,-34.439c0,-2.515 2.039,-4.548 4.553,-4.548l51.818,0c2.512,0 4.549,2.033 4.549,4.548l0,29.887c0,2.512 -2.037,6.533 -4.549,6.533l-51.818,0c-2.514,0 -4.553,-4.021 -4.553,-6.533l0,-29.887Z" style="fill:#00726a;fill-rule:nonzero;"/><path d="M359.375,245.328l-0.851,0l0,-5.943l25.753,0l0,5.943l-1.226,0l11.132,2.879l0,3.065l-43.584,0l0,-3.065l8.776,-2.879Z" style="fill:#00726a;fill-rule:nonzero;"/><path d="M373.185,263.792c4.844,0 10.237,10.282 10.237,25.019c0,14.747 -5.393,25.024 -10.237,25.024c-4.837,0 -10.234,-10.277 -10.234,-25.024c0,-14.737 5.397,-25.019 10.234,-25.019Zm0,53.072c7.441,0 13.272,-12.32 13.272,-28.053c0,-15.726 -5.831,-28.048 -13.272,-28.048c-7.438,0 -13.267,12.322 -13.267,28.048c0,15.733 5.829,28.053 13.267,28.053Z" style="fill:#00726a;fill-rule:nonzero;"/><path d="M358.48,271.809c5.638,0 13.632,3.376 20.863,8.828c5.499,4.144 9.937,8.962 12.506,13.562c2.326,4.172 2.805,7.697 1.319,9.67c-1.214,1.61 -3.538,1.947 -5.273,1.947c-5.64,0 -13.634,-3.376 -20.867,-8.826c-11.777,-8.871 -16.738,-19.358 -13.824,-23.231c1.215,-1.613 3.543,-1.95 5.276,-1.95Zm29.415,37.04c3.477,0 6.143,-1.089 7.7,-3.158c2.27,-3.015 1.876,-7.619 -1.097,-12.964c-2.768,-4.966 -7.501,-10.125 -13.327,-14.513c-7.849,-5.909 -16.33,-9.434 -22.691,-9.434c-3.475,0 -6.141,1.09 -7.698,3.156c-4.48,5.943 1.856,18.014 14.424,27.475c7.851,5.912 16.326,9.438 22.689,9.438Z" style="fill:#00726a;fill-rule:nonzero;"/><path d="M387.712,274.02c3.816,0 6.479,1.032 7.487,2.902c2.302,4.262 -4.174,13.886 -17.148,20.897c-6.811,3.68 -13.873,5.79 -19.391,5.79c-3.815,0 -6.474,-1.034 -7.484,-2.9c-2.302,-4.259 4.172,-13.891 17.15,-20.902c6.805,-3.679 13.871,-5.787 19.386,-5.787Zm-29.052,32.616c6.001,0 13.596,-2.24 20.835,-6.147c13.836,-7.48 21.911,-18.469 18.372,-25.011c-1.586,-2.938 -5.101,-4.489 -10.155,-4.489c-6,0 -13.595,2.243 -20.828,6.153c-13.844,7.477 -21.913,18.464 -18.379,25.005c1.593,2.94 5.102,4.489 10.155,4.489Z" style="fill:#00726a;fill-rule:nonzero;"/><path d="M369.647,288.811c0,1.957 1.587,3.544 3.538,3.544c1.956,0 3.539,-1.587 3.539,-3.544c0,-1.948 -1.583,-3.539 -3.539,-3.539c-1.951,0 -3.538,1.591 -3.538,3.539Z" style="fill:#00726a;fill-rule:nonzero;"/><path d="M457.846,107.132c0.99,0 1.795,-0.808 1.795,-1.801c0,-0.994 -0.805,-1.799 -1.795,-1.799c-0.997,0 -1.801,0.805 -1.801,1.799c0,0.993 0.804,1.801 1.801,1.801Zm24.939,0c0.995,0 1.799,-0.808 1.799,-1.801c0,-0.994 -0.804,-1.799 -1.799,-1.799c-0.988,0 -1.794,0.805 -1.794,1.799c0,0.993 0.806,1.801 1.794,1.801Zm-34.391,-27.846c0,-1.593 1.072,-2.882 2.395,-2.882l28.017,0c1.323,0 2.02,1.289 2.02,2.882c0,1.308 -2.102,2.399 -2.102,2.748l0,18.972c0,-0.128 1.514,-0.202 2.065,-0.202c3.567,0 6.699,2.891 6.699,6.459c0,3.569 -2.775,6.462 -6.343,6.462c-3.568,0 -6.434,-3.332 -6.434,-6.906c0,-0.386 0.136,-20.669 0.158,-25.54l-18.075,0l0,19.727c0,-0.128 0.008,-0.202 0.555,-0.202c3.57,0 5.951,2.891 5.951,6.459c0,3.569 -3.148,6.462 -6.718,6.462c-3.574,0 -6.627,-2.893 -6.627,-6.462c0,-0.397 0.014,-20.647 0.034,-25.302c-0.893,-0.417 -1.595,-1.457 -1.595,-2.675Z" style="fill:#00726a;fill-rule:nonzero;"/><path d="M466.473,247.232l-0.416,0.359l-25.631,-21.758l10.569,2.302l15.478,19.097Z" style="fill:#00726a;fill-rule:nonzero;"/><path d="M445.763,222.6c0.335,0.204 0.813,0.103 1.029,-0.21c0.22,-0.331 0.116,-0.767 -0.228,-0.981l-0.4,-0.107c-0.256,0 -0.49,0.121 -0.626,0.329c-0.222,0.321 -0.121,0.759 0.225,0.969Zm-30.304,-2.58c-0.071,2.188 2.661,4.052 6.09,4.145c3.247,0.099 5.464,-1.423 5.541,-3.723c0.075,-2.385 -2.1,-4.116 -5.289,-4.207l-0.278,-0.006c-3.33,0 -5.996,1.67 -6.064,3.791Zm5.995,-5.275c4.105,0.125 7.447,2.231 7.972,4.857c1.551,0.153 4.814,0.434 7.351,0.353c3.416,-0.103 8.838,-1.892 8.893,-1.908l0.101,-0.033l31.214,12.514l-0.174,0.511l-47.524,-9.337c-0.83,2.366 -3.988,4.248 -7.817,4.248l-0.363,-0.163c-2.185,-0.065 -4.214,-0.754 -5.729,-1.806c-1.549,-1.078 -2.369,-2.518 -2.326,-3.992c0.097,-2.994 3.816,-5.355 8.402,-5.244Z" style="fill:#00726a;fill-rule:nonzero;"/><path d="M436.732,200.444c-1.193,-2.275 -3.285,-3.8 -5.197,-3.8c-0.471,0 -0.919,0.099 -1.321,0.289c-2.066,0.971 -2.51,4.133 -0.982,7.039c1.077,2.06 2.813,3.292 4.637,3.292c0.569,0 1.119,-0.122 1.631,-0.364c1.014,-0.48 1.713,-1.357 1.957,-2.469c0.263,-1.198 0.012,-2.577 -0.725,-3.987Zm2.853,16.607l-5.005,-9.062l-0.015,0c-2.572,0 -5.351,-1.364 -6.906,-4.33c-2.023,-3.857 -1.352,-7.754 1.485,-9.087c0.583,-0.276 1.221,-0.254 1.898,-0.254c2.572,0 5.351,2.078 6.906,5.054c1.68,3.209 1.522,6.829 -0.356,8.655l4.079,8.535l-2.086,0.489Z" style="fill:#00726a;fill-rule:nonzero;"/><path d="M422.171,298.599l8.758,-3.871c0.682,-0.301 1.478,0.004 1.775,0.686c0.303,0.681 -0.002,1.285 -0.683,1.582l-3.021,1.153l44.853,0l0,-36.722l-0.589,3.048c-0.219,0.509 -0.35,0.813 -0.873,0.813c-0.178,0 -0.178,-0.032 -0.349,-0.111c-0.683,-0.294 -0.909,-1.09 -0.616,-1.771l3.95,-9.038c0.212,-0.495 0.717,-0.81 1.256,-0.816c0.549,-0.01 1.028,0.319 1.246,0.804l3.885,8.76c0.297,0.676 -0.004,1.474 -0.687,1.771c-0.68,0.307 -1.118,-0.002 -1.419,-0.681l-0.933,-2.926l0,38.595c0,0.745 -1.321,0.709 -2.064,0.709l-47.325,0l2.953,1.597c0.686,0.293 1.003,1.248 0.702,1.931c-0.214,0.509 -0.712,0.896 -1.233,0.896c-0.182,0 -0.36,0.002 -0.535,-0.075l-9.041,-3.883c-0.491,-0.21 -0.812,-0.684 -0.816,-1.219c0,-0.539 0.313,-1.014 0.806,-1.232Z" style="fill:#00726a;fill-rule:nonzero;"/><path d="M464.106,295.713l0,-19.191c0,-1.741 0.697,-3.152 2.437,-3.152c1.735,0 2.436,1.411 2.436,3.152l0,19.191l-4.873,0Z" style="fill:#00726a;fill-rule:nonzero;"/><path d="M454.357,295.713l0,-24.136c0,-1.739 0.702,-3.145 2.437,-3.145c1.739,0 2.437,1.406 2.437,3.145l0,24.136l-4.874,0Z" style="fill:#00726a;fill-rule:nonzero;"/><path d="M442.176,295.713l0,-29.524c0,-1.739 0.701,-3.144 2.436,-3.144c1.738,0 2.437,1.405 2.437,3.144l0,29.524l-4.873,0Z" style="fill:#00726a;fill-rule:nonzero;"/><path d="M350.486,31.083c0,3.231 2.623,5.85 5.851,5.85c3.233,0 5.856,-2.619 5.856,-5.85c0,-3.231 -2.623,-5.85 -5.856,-5.85c-3.228,0 -5.851,2.619 -5.851,5.85Z" style="fill:#00726a;fill-rule:nonzero;"/><path d="M407.188,252.48c0,3.229 2.621,5.85 5.852,5.85c3.225,0 5.85,-2.621 5.85,-5.85c0,-3.229 -2.625,-5.848 -5.85,-5.848c-3.231,0 -5.852,2.619 -5.852,5.848Z" style="fill:#00726a;fill-rule:nonzero;"/><path d="M482.787,149.883c0,3.229 2.621,5.848 5.852,5.848c3.23,0 5.851,-2.619 5.851,-5.848c0,-3.233 -2.621,-5.852 -5.851,-5.852c-3.231,0 -5.852,2.619 -5.852,5.852Z" style="fill:#00726a;fill-rule:nonzero;"/><path d="M269.221,190.849c0,3.231 2.619,5.85 5.851,5.85c3.231,0 5.852,-2.619 5.852,-5.85c0,-3.231 -2.621,-5.85 -5.852,-5.85c-3.232,0 -5.851,2.619 -5.851,5.85Z" style="fill:#00726a;fill-rule:nonzero;"/><path d="M246.356,105.333c0,3.231 2.621,5.854 5.848,5.854c3.235,0 5.854,-2.623 5.854,-5.854c0,-3.227 -2.619,-5.85 -5.854,-5.85c-3.227,0 -5.848,2.623 -5.848,5.85Z" style="fill:#00726a;fill-rule:nonzero;"/><path d="M288.392,292.981c0,3.229 2.617,5.848 5.848,5.848c3.233,0 5.852,-2.619 5.852,-5.848c0,-3.231 -2.619,-5.85 -5.852,-5.85c-3.231,0 -5.848,2.619 -5.848,5.85Z" style="fill:#00726a;fill-rule:nonzero;"/><path d="M326.191,253.827c0,2.488 2.016,4.503 4.501,4.503c2.484,0 4.499,-2.015 4.499,-4.503c0,-2.484 -2.015,-4.497 -4.499,-4.497c-2.485,0 -4.501,2.013 -4.501,4.497Z" style="fill:#00726a;fill-rule:nonzero;"/><path d="M412.591,113.432c0,2.484 2.014,4.501 4.497,4.501c2.486,0 4.503,-2.017 4.503,-4.501c0,-2.485 -2.017,-4.499 -4.503,-4.499c-2.483,0 -4.497,2.014 -4.497,4.499Z" style="fill:#00726a;fill-rule:nonzero;"/><path d="M497.879,120.742c0,2.484 2.013,4.501 4.493,4.501c2.49,0 4.503,-2.017 4.503,-4.501c0,-2.485 -2.013,-4.499 -4.503,-4.499c-2.48,0 -4.493,2.014 -4.493,4.499Z" style="fill:#00726a;fill-rule:nonzero;"/><path d="M229.218,274.387c0,2.482 2.015,4.499 4.495,4.499c2.49,0 4.503,-2.017 4.503,-4.499c0,-2.485 -2.013,-4.503 -4.503,-4.503c-2.48,0 -4.495,2.018 -4.495,4.503Z" style="fill:#00726a;fill-rule:nonzero;"/><path d="M226.294,148.53c0,2.486 2.013,4.503 4.497,4.503c2.486,0 4.501,-2.017 4.501,-4.503c0,-2.484 -2.015,-4.499 -4.501,-4.499c-2.484,0 -4.497,2.015 -4.497,4.499Z" style="fill:#00726a;fill-rule:nonzero;"/><path d="M331.591,164.731c0,2.482 2.013,4.501 4.497,4.501c2.49,0 4.503,-2.019 4.503,-4.501c0,-2.484 -2.013,-4.501 -4.503,-4.501c-2.484,0 -4.497,2.017 -4.497,4.501Z" style="fill:#00726a;fill-rule:nonzero;"/><path d="M498.987,251.131c0,2.484 2.018,4.501 4.5,4.501c2.489,0 4.503,-2.017 4.503,-4.501c0,-2.484 -2.014,-4.499 -4.503,-4.499c-2.482,0 -4.5,2.015 -4.5,4.499Z" style="fill:#00726a;fill-rule:nonzero;"/><path d="M509.789,155.281c0,1.74 1.409,3.15 3.144,3.15c1.745,0 3.156,-1.41 3.156,-3.15c0,-1.739 -1.411,-3.149 -3.156,-3.149c-1.735,0 -3.144,1.41 -3.144,3.149Z" style="fill:#00726a;fill-rule:nonzero;"/><path d="M409.888,195.78c0,1.742 1.413,3.152 3.152,3.152c1.742,0 3.146,-1.41 3.146,-3.152c0,-1.737 -1.404,-3.148 -3.146,-3.148c-1.739,0 -3.152,1.411 -3.152,3.148Z" style="fill:#00726a;fill-rule:nonzero;"/><path d="M309.99,125.581c0,1.742 1.414,3.152 3.152,3.152c1.741,0 3.151,-1.41 3.151,-3.152c0,-1.739 -1.41,-3.149 -3.151,-3.149c-1.738,0 -3.152,1.41 -3.152,3.149Z" style="fill:#00726a;fill-rule:nonzero;"/><path d="M288.392,44.584c0,1.739 1.411,3.152 3.15,3.152c1.737,0 3.146,-1.413 3.146,-3.152c0,-1.739 -1.409,-3.15 -3.146,-3.15c-1.739,0 -3.15,1.411 -3.15,3.15Z" style="fill:#00726a;fill-rule:nonzero;"/><path d="M366.688,60.781c0,1.739 1.414,3.152 3.153,3.152c1.74,0 3.146,-1.413 3.146,-3.152c0,-1.735 -1.406,-3.148 -3.146,-3.148c-1.739,0 -3.153,1.413 -3.153,3.148Z" style="fill:#00726a;fill-rule:nonzero;"/><path d="M447.689,63.483c0,1.738 1.409,3.15 3.15,3.15c1.739,0 3.15,-1.412 3.15,-3.15c0,-1.741 -1.411,-3.152 -3.15,-3.152c-1.741,0 -3.15,1.411 -3.15,3.152Z" style="fill:#00726a;fill-rule:nonzero;"/><path d="M420.689,279.48c0,1.735 1.411,3.152 3.148,3.152c1.741,0 3.154,-1.417 3.154,-3.152c0,-1.739 -1.413,-3.156 -3.154,-3.156c-1.737,0 -3.148,1.417 -3.148,3.156Z" style="fill:#00726a;fill-rule:nonzero;"/><path d="M334.293,284.88c0,1.736 1.407,3.15 3.15,3.15c1.736,0 3.148,-1.414 3.148,-3.15c0,-1.735 -1.412,-3.152 -3.148,-3.152c-1.743,0 -3.15,1.417 -3.15,3.152Z" style="fill:#00726a;fill-rule:nonzero;"/><path d="M198.21,192.504c0,1.737 1.413,3.147 3.152,3.147c1.742,0 3.148,-1.41 3.148,-3.147c0,-1.742 -1.406,-3.154 -3.148,-3.154c-1.739,0 -3.152,1.412 -3.152,3.154Z" style="fill:#00726a;fill-rule:nonzero;"/><path d="M239.232,186.144c0,1.74 1.413,3.152 3.152,3.152c1.739,0 3.152,-1.412 3.152,-3.152c0,-1.737 -1.413,-3.152 -3.152,-3.152c-1.739,0 -3.152,1.415 -3.152,3.152Z" style="fill:#00726a;fill-rule:nonzero;"/></g></svg>