<?xml version="1.0" encoding="UTF-8" standalone="no"?><!DOCTYPE svg PUBLIC "-//W3C//DTD SVG 1.1//EN" "http://www.w3.org/Graphics/SVG/1.1/DTD/svg11.dtd"><svg width="100%" height="100%" viewBox="0 0 800 800" version="1.1" xmlns="http://www.w3.org/2000/svg" xmlns:xlink="http://www.w3.org/1999/xlink" xml:space="preserve" xmlns:serif="http://www.serif.com/" style="fill-rule:evenodd;clip-rule:evenodd;stroke-linejoin:round;stroke-miterlimit:1.41421;"><path d="M609.888,400.465c0.643,3.85 5.78,9.842 11.567,18.621c2.85,4.321 0.619,10.388 -1.615,13.317c-2.038,2.673 -8.024,7.435 -8.024,7.435c0,0 6.419,2.568 7.276,8.134c0.859,5.564 1.711,11.125 -6.849,16.689c-4.72,3.07 -5.991,2.997 -5.991,8.133c0,5.135 14.551,33.809 -20.116,41.943c-34.668,8.133 -83.885,1.281 -90.736,18.83c-3.903,10.003 -6.833,24.456 -8.156,38.445c-0.14,1.481 5.907,4.173 5.803,5.64c-0.63,8.967 -4.157,15.665 -3.209,22.468c2.149,15.41 3.398,60.652 3.748,74.974l-246.239,0c3.413,-64.15 57.597,-127.617 57.597,-127.617c0,0 2.355,-14.335 5.137,-17.332c2.783,-2.997 12.628,-0.43 12.628,-0.43l1.389,-5.562c0,0 -33.972,-19.688 -52.375,-33.813c-18.405,-14.121 -95.093,-69.758 -95.093,-173.336c0,-103.571 37.623,-95.867 37.623,-95.867c0,0 26.516,-56.496 71.881,-77.038c45.365,-20.543 100.217,-20.664 137.8,-17.976c35.943,2.57 113.411,11.984 111.483,50.502c0,0 36.274,23.648 49.756,53.179c13.48,29.531 10.111,56.44 6.259,76.342c-3.852,19.899 -4.868,37.396 5.698,48.123c5.771,5.856 26.24,19.839 26.24,25.65c0,12.413 -14.123,16.692 -13.482,20.546Z" style="fill:#fff;fill-rule:nonzero;"/><clipPath id="_clip1"><path d="M609.888,400.465c0.643,3.85 5.78,9.842 11.567,18.621c2.85,4.321 0.619,10.388 -1.615,13.317c-2.038,2.673 -8.024,7.435 -8.024,7.435c0,0 6.419,2.568 7.276,8.134c0.859,5.564 1.711,11.125 -6.849,16.689c-4.72,3.07 -5.991,2.997 -5.991,8.133c0,5.135 14.551,33.809 -20.116,41.943c-34.668,8.133 -83.885,1.281 -90.736,18.83c-3.903,10.003 -6.833,24.456 -8.156,38.445c-0.14,1.481 5.907,4.173 5.803,5.64c-0.63,8.967 -4.157,15.665 -3.209,22.468c2.149,15.41 3.398,60.652 3.748,74.974l-246.239,0c3.413,-64.15 57.597,-127.617 57.597,-127.617c0,0 2.355,-14.335 5.137,-17.332c2.783,-2.997 12.628,-0.43 12.628,-0.43l1.389,-5.562c0,0 -33.972,-19.688 -52.375,-33.813c-18.405,-14.121 -95.093,-69.758 -95.093,-173.336c0,-103.571 37.623,-95.867 37.623,-95.867c0,0 26.516,-56.496 71.881,-77.038c45.365,-20.543 100.217,-20.664 137.8,-17.976c35.943,2.57 113.411,11.984 111.483,50.502c0,0 36.274,23.648 49.756,53.179c13.48,29.531 10.111,56.44 6.259,76.342c-3.852,19.899 -4.868,37.396 5.698,48.123c5.771,5.856 26.24,19.839 26.24,25.65c0,12.413 -14.123,16.692 -13.482,20.546Z" clip-rule="nonzero"/></clipPath><g clip-path="url(#_clip1)"><g id="Objects"><g id="Globus"><path d="M274.739,338.197l-3.3,-2.965c-2.459,2.778 -5.848,5.235 -10.5,6.665c1.257,0.385 2.596,0.6 3.979,0.6c3.875,0 7.37,-1.66 9.821,-4.3Zm3.574,-9.092c0,-1.865 -0.382,-3.642 -1.077,-5.254c-0.688,2.754 -2.021,6.454 -4.579,9.881l3.289,2.957c1.489,-2.156 2.367,-4.768 2.367,-7.584Zm-22.107,-10.154l3.394,3.049c3.387,-2.983 7.179,-4.625 9.859,-5.494c-1.421,-0.512 -2.949,-0.791 -4.541,-0.791c-3.322,0 -6.369,1.222 -8.712,3.236Zm7.787,9.594l-4.411,-3.965c-2.696,2.82 -4.926,6.731 -5.667,12.147c0.346,0.498 0.721,0.966 1.126,1.409l8.952,-9.591Zm1.437,1.286l-8.991,9.63c0.526,0.43 1.086,0.821 1.668,1.169c5.49,-1.142 9.299,-3.696 11.945,-6.647l-4.622,-4.152Zm7.818,-11.199c-0.39,-0.308 -0.797,-0.601 -1.219,-0.87c-2.186,0.498 -6.924,1.907 -11.041,5.489l4.324,3.884l7.936,-8.503Zm-6.505,9.794l4.527,4.059c3.062,-4.123 4.158,-8.664 4.549,-11.143c-0.355,-0.494 -0.739,-0.958 -1.152,-1.404l-7.924,8.488Zm-15.213,0.679c0,1.73 0.332,3.38 0.934,4.904c1.072,-4.587 3.214,-8.058 5.735,-10.672l-3.366,-3.025c-2.058,2.357 -3.303,5.43 -3.303,8.793Zm13.388,-17.247c9.516,0 17.249,7.735 17.249,17.247c0,9.509 -7.733,17.248 -17.249,17.248c-9.509,0 -17.246,-7.739 -17.246,-17.248c0,-9.512 7.737,-17.247 17.246,-17.247Z" style="fill-opacity:0.333333;fill-rule:nonzero;"/><path d="M242.264,328.743c0,-7.004 3.29,-13.287 8.271,-17.477l2.162,2.25c-4.381,3.628 -7.149,9.106 -7.149,15.227c0,10.907 8.885,19.78 19.79,19.78c5.635,0 10.728,-2.373 14.336,-6.163l2.011,2.247c-3.852,3.993 -10.467,6.588 -15.114,6.94l0,6.948c6.972,0.162 12.37,1.11 12.703,2.264c0.209,0.498 0.056,1.323 0.056,1.566c0,1.329 -6.61,2.409 -14.795,2.409c-8.183,0 -14.807,-1.08 -14.807,-2.409c0,-0.269 -0.464,-1.09 -0.205,-1.602c0.437,-1.144 7.755,-2.07 12.402,-2.232l0,-7.091c-11.615,-1.449 -19.661,-11.053 -19.661,-22.657Z" style="fill-opacity:0.333333;fill-rule:nonzero;"/></g><g id="Glas"><path d="M356.367,246.2c0.951,0.713 1.959,1.289 3.005,1.745l-9.239,12.356c-0.835,1.108 -2.688,1.128 -4.141,0.04c-1.458,-1.086 -1.96,-2.87 -1.128,-3.981l9.198,-12.296c0.678,0.775 1.447,1.496 2.305,2.136Z" style="fill-opacity:0.333333;fill-rule:nonzero;"/><path d="M359.38,242.173c5.245,3.925 12.681,2.853 16.606,-2.395c3.925,-5.247 2.853,-12.683 -2.395,-16.604c-5.248,-3.926 -12.683,-2.856 -16.606,2.393c-3.925,5.248 -2.851,12.682 2.395,16.606Zm16.066,-21.478c6.615,4.947 7.97,14.324 3.023,20.938c-4.954,6.617 -14.329,7.968 -20.942,3.022c-6.619,-4.953 -7.968,-14.326 -3.023,-20.943c4.954,-6.614 14.327,-7.967 20.942,-3.017Z" style="fill-opacity:0.333333;fill-rule:nonzero;"/><path d="M370.841,227.115c-3.246,-1.863 -7.364,-1.301 -9.99,1.347l-2.34,-1.471c3.557,-4.005 9.537,-4.855 14.07,-1.99l-1.74,2.114Z" style="fill-opacity:0.333333;fill-rule:nonzero;"/></g><g id="Speech"><path d="M487.216,307.741l18.042,0c1.58,0 2.286,0.423 2.286,2.005l0,12.465c0,1.586 -0.706,1.797 -2.286,1.797l-8.085,0l-1.174,3.647l-4.431,-3.647l-4.352,0c-1.578,0 -2.907,-0.211 -2.907,-1.797l0,-12.465c0,-1.582 1.329,-2.005 2.907,-2.005Z" style="fill-opacity:0.333333;fill-rule:nonzero;"/><path d="M513.346,301.54c0.572,0.624 1.168,1.268 1.168,2.037l0,1.841l4.648,0l0,-2.038c0,-0.893 -1.476,-1.77 -2.241,-2.66c-0.481,-0.574 -1.559,-1.11 -1.559,-1.626c0,-0.501 0.032,-0.843 0.8,-0.859c0.591,0 1.151,0.195 1.617,0.52l0.6,-2.307c-0.659,-0.359 -1.785,-0.732 -3.198,-0.732c-2.502,0 -3.509,1.323 -3.509,2.838c0,1.448 1.064,2.327 1.674,2.986Zm2.011,7.323l0.019,0c1.072,0 1.818,-0.659 1.818,-1.714c0,-1.111 -0.767,-1.793 -1.818,-1.793c-1.093,0 -1.823,0.65 -1.845,1.76c0,1.054 0.736,1.747 1.826,1.747Zm-12.803,-17.387l23.393,0c2.05,0 4.832,1.473 4.832,3.523l0,16.335c0,2.056 -2.782,3.379 -4.832,3.379l-2.949,0l-5.406,4.456l-1.436,-4.456l-3.964,0l0,-4.784c0,-2.501 -4.25,-4.511 -6.752,-4.511l-7.191,0l0,-10.419c0,-2.05 2.251,-3.523 4.305,-3.523Z" style="fill-opacity:0.333333;fill-rule:nonzero;"/></g><g id="Medal"><path d="M332.036,334.9l5.012,-3.691l5.013,3.691l-0.693,-6.189l5.708,-2.497l-5.708,-2.491l0.693,-6.19l-5.013,3.696l-5.012,-3.696l0.694,6.19l-5.709,2.491l5.709,2.497l-0.694,6.189Zm5.012,-22.857c7.828,0 14.173,6.352 14.173,14.171c0,7.829 -6.345,14.179 -14.173,14.179c-7.827,0 -14.171,-6.35 -14.171,-14.179c0,-7.819 6.344,-14.171 14.171,-14.171Z" style="fill-opacity:0.333333;fill-rule:nonzero;"/><path d="M328.805,308.331l-5.418,-14.428l7.655,-2.875l5.816,15.492c-2.873,0.026 -5.603,0.677 -8.053,1.811Z" style="fill-opacity:0.333333;fill-rule:nonzero;"/><path d="M337.823,306.536l5.828,-15.508l7.655,2.875l-5.511,14.667c-2.417,-1.203 -5.115,-1.927 -7.972,-2.034Z" style="fill-opacity:0.333333;fill-rule:nonzero;"/></g><g id="Physics"><path d="M395.292,374.892c4.618,0 9.759,9.801 9.759,23.855c0,14.061 -5.141,23.862 -9.759,23.862c-4.613,0 -9.758,-9.801 -9.758,-23.862c0,-14.054 5.145,-23.855 9.758,-23.855Zm0,50.605c7.095,0 12.654,-11.748 12.654,-26.75c0,-14.996 -5.559,-26.744 -12.654,-26.744c-7.094,0 -12.651,11.748 -12.651,26.744c0,15.002 5.557,26.75 12.651,26.75Z" style="fill-opacity:0.333333;fill-rule:nonzero;"/><path d="M381.268,382.537c5.378,0 13,3.218 19.894,8.415c5.244,3.953 9.476,8.546 11.925,12.934c2.218,3.977 2.676,7.338 1.259,9.219c-1.159,1.538 -3.375,1.857 -5.029,1.857c-5.378,0 -12.999,-3.218 -19.897,-8.414c-11.23,-8.461 -15.961,-18.459 -13.179,-22.152c1.156,-1.538 3.375,-1.859 5.027,-1.859Zm28.049,35.318c3.316,0 5.858,-1.04 7.341,-3.011c2.166,-2.875 1.791,-7.266 -1.046,-12.363c-2.64,-4.735 -7.152,-9.652 -12.707,-13.84c-7.484,-5.633 -15.571,-8.993 -21.637,-8.993c-3.313,0 -5.854,1.04 -7.34,3.009c-4.27,5.665 1.773,17.178 13.754,26.198c7.486,5.637 15.568,9 21.635,9Z" style="fill-opacity:0.333333;fill-rule:nonzero;"/><path d="M409.144,384.646c3.638,0 6.175,0.982 7.137,2.767c2.194,4.061 -3.979,13.237 -16.349,19.922c-6.497,3.514 -13.23,5.523 -18.49,5.523c-3.641,0 -6.175,-0.986 -7.138,-2.764c-2.195,-4.063 3.979,-13.246 16.353,-19.931c6.488,-3.509 13.227,-5.517 18.487,-5.517Zm-27.702,31.099c5.72,0 12.963,-2.136 19.865,-5.862c13.193,-7.133 20.892,-17.61 17.519,-23.849c-1.513,-2.799 -4.864,-4.28 -9.682,-4.28c-5.723,0 -12.964,2.14 -19.862,5.866c-13.2,7.13 -20.892,17.608 -17.522,23.843c1.518,2.806 4.862,4.282 9.682,4.282Z" style="fill-opacity:0.333333;fill-rule:nonzero;"/><path d="M391.918,398.747c0,1.867 1.513,3.379 3.374,3.379c1.863,0 3.373,-1.512 3.373,-3.379c0,-1.859 -1.51,-3.372 -3.373,-3.372c-1.861,0 -3.374,1.513 -3.374,3.372Z" style="fill-opacity:0.333333;fill-rule:nonzero;"/></g><g id="Price"><path d="M398.926,276.61c7.56,0 13.687,-6.125 13.687,-13.689c0,-7.56 -6.127,-13.689 -13.687,-13.689c-7.564,0 -13.691,6.129 -13.691,13.689c0,7.564 6.127,13.689 13.691,13.689Zm-17.162,-10.636l-3.75,-3.027l3.748,-3.039l-2.49,-4.128l4.557,-1.574l-0.927,-4.729l4.822,0.08l0.743,-4.762l4.507,1.725l2.328,-4.218l3.642,3.16l3.633,-3.17l2.339,4.216l4.497,-1.735l0.757,4.764l4.824,-0.094l-0.922,4.733l4.564,1.564l-2.482,4.132l3.752,3.029l-3.748,3.033l2.49,4.13l-4.551,1.574l0.925,4.727l-4.822,-0.08l-0.747,4.764l-4.503,-1.725l-2.332,4.222l-3.64,-3.162l-3.634,3.17l-2.338,-4.218l-4.499,1.737l-0.755,-4.76l-4.822,0.09l0.919,-4.735l-4.559,-1.56l2.474,-4.134Z" style="fill-opacity:0.333333;fill-rule:nonzero;"/><path d="M405.488,280.802l4.911,1.883l0.811,-5.191l3.344,0.054l7.665,16.851l-8.972,-5.25l-2.025,10.255l-7.229,-15.888l1.495,-2.714Z" style="fill-opacity:0.333333;fill-rule:nonzero;"/><path d="M383.671,277.578l3.069,-0.06l0.829,5.189l4.899,-1.889l1.65,2.971l-7.109,15.615l-2.025,-10.255l-8.966,5.25l7.653,-16.821Z" style="fill-opacity:0.333333;fill-rule:nonzero;"/><path d="M398.34,268.241l2.322,0l0,-9.293l-0.893,0l2.652,1.225l0.648,-2.285l-3.481,-1.263l-1.248,0l0,11.616Zm0.586,-17.582c6.771,0 12.266,5.491 12.266,12.262c0,6.775 -5.495,12.268 -12.266,12.268c-6.778,0 -12.272,-5.493 -12.272,-12.268c0,-6.771 5.494,-12.262 12.272,-12.262Z" style="fill-opacity:0.333333;fill-rule:nonzero;"/></g><g id="Graph"><path d="M441.999,408.082l8.353,-3.694c0.647,-0.287 1.408,0.004 1.693,0.655c0.287,0.648 -0.004,1.224 -0.655,1.509l-2.879,1.101l42.768,0l0,-35.019l-0.56,2.91c-0.21,0.486 -0.335,0.773 -0.833,0.773l-0.335,-0.106c-0.651,-0.279 -0.865,-1.04 -0.586,-1.688l3.766,-8.619c0.203,-0.469 0.684,-0.771 1.198,-0.777c0.524,-0.008 0.98,0.304 1.189,0.767l3.704,8.354c0.285,0.644 -0.004,1.405 -0.655,1.688c-0.648,0.293 -1.066,-0.002 -1.353,-0.648l-0.889,-2.793l0,36.802c0,0.712 -1.261,0.674 -1.97,0.674l-45.126,0l2.818,1.526c0.653,0.277 0.956,1.19 0.669,1.841c-0.205,0.486 -0.679,0.855 -1.175,0.855l-0.51,-0.074l-8.622,-3.702c-0.47,-0.201 -0.775,-0.652 -0.779,-1.162c0,-0.512 0.299,-0.966 0.769,-1.173Z" style="fill-opacity:0.333333;fill-rule:nonzero;"/><path d="M481.987,405.328l0,-18.299c0,-1.66 0.664,-3.005 2.322,-3.005c1.655,0 2.323,1.345 2.323,3.005l0,18.299l-4.645,0Z" style="fill-opacity:0.333333;fill-rule:nonzero;"/><path d="M472.69,405.328l0,-23.012c0,-1.66 0.67,-3.001 2.325,-3.001c1.656,0 2.322,1.341 2.322,3.001l0,23.012l-4.647,0Z" style="fill-opacity:0.333333;fill-rule:nonzero;"/><path d="M461.074,405.328l0,-28.149c0,-1.659 0.669,-2.998 2.323,-2.998c1.658,0 2.323,1.339 2.323,2.998l0,28.149l-4.646,0Z" style="fill-opacity:0.333333;fill-rule:nonzero;"/></g><g id="Disc"><path d="M428.784,202.87c10.704,0 19.38,-8.676 19.38,-19.382c0,-10.706 -8.676,-19.383 -19.38,-19.383c-10.705,0 -19.383,8.677 -19.383,19.383c0,10.706 8.678,19.382 19.383,19.382Zm8.672,4.82c10.704,0 19.387,-8.678 19.387,-19.382c0,-7.231 -3.965,-13.533 -9.831,-16.861c2.284,3.451 3.621,7.586 3.621,12.041c0,12.067 -9.784,21.85 -21.849,21.85c-0.203,0 -0.406,-0.01 -0.601,-0.014c2.755,1.507 5.914,2.366 9.273,2.366Zm-30.522,-24.202c0,-12.067 9.78,-21.85 21.85,-21.85c5.645,0 10.792,2.144 14.672,5.659c9.151,2.608 15.85,11.023 15.85,21.011c0,12.065 -9.781,21.848 -21.85,21.848c-5.643,0 -10.784,-2.144 -14.663,-5.658c-9.152,-2.599 -15.859,-11.023 -15.859,-21.01Z" style="fill-opacity:0.333333;fill-rule:nonzero;"/><path d="M428.784,179.609c2.138,0 3.874,1.739 3.874,3.879c0,2.14 -1.736,3.876 -3.874,3.876c-2.142,0 -3.875,-1.736 -3.875,-3.876c0,-2.14 1.733,-3.879 3.875,-3.879Z" style="fill-opacity:0.333333;fill-rule:nonzero;"/><path d="M424.401,166.42l3.258,11.904c-1.224,0.265 -2.286,0.956 -3.031,1.908l-8.889,-8.585c2.282,-2.511 5.271,-4.364 8.662,-5.227Z" style="fill-opacity:0.333333;fill-rule:nonzero;"/><path d="M413.954,173.98l10.138,7.087c-0.275,0.524 -0.458,1.1 -0.54,1.708l-11.12,-5.862c0.422,-1.028 0.93,-2.009 1.522,-2.933Z" style="fill-opacity:0.333333;fill-rule:nonzero;"/></g><g id="Bottle"><path d="M301.784,370.869c1.494,0 2.702,-1.207 2.702,-2.696c0,-1.496 -1.208,-2.706 -2.702,-2.706c-1.489,0 -2.704,1.21 -2.704,2.706c0,1.489 1.215,2.696 2.704,2.696Zm5.316,-6.003c0.641,0 1.161,-0.515 1.161,-1.154c0,-0.642 -0.52,-1.16 -1.161,-1.16c-0.636,0 -1.16,0.518 -1.16,1.16c0,0.639 0.524,1.154 1.16,1.154Zm-13.187,6.133l0.795,-0.855c1.588,-2.712 3.565,-6.639 5.541,-8.963l9.612,0c2.971,4.651 6.098,9.296 7.66,11.615l-25.1,0c0.412,0 0.922,-0.827 1.492,-1.797Z" style="fill-opacity:0.333333;fill-rule:nonzero;"/><path d="M289.179,375.316c0.089,0.168 0.512,-0.193 0.863,-0.193l29.609,0c0.364,0 0.865,0.361 0.966,0.213c0.193,-0.476 0.126,-0.368 -0.038,-0.661c-0.057,-0.094 -0.291,-0.287 -0.613,-0.835c-1.626,-2.738 -5.956,-9.941 -9.579,-16.71c-0.171,-0.318 -0.34,-0.597 -0.34,-0.958l0,-15.902l-9.293,0l0,15.105c0,0.389 -0.261,0.765 -0.455,1.098c-2.895,4.983 -6.083,10.381 -8.245,14.073c-1.321,2.256 -2.534,3.882 -2.65,4.093c-0.305,0.554 -0.307,0.474 -0.225,0.677Zm-2.435,-0.619c0.291,-0.544 7.036,-10.686 11.684,-19.555l0,-13.798c-2.323,-0.088 -2.323,-0.592 -2.323,-1.202l0,-0.126c0,-0.675 1.038,-2.068 1.713,-2.068l15.052,0c0.674,0 1.819,1.393 1.819,2.068l0,0.126c0,0.675 -1.145,0.128 -1.819,0.128l-0.5,0l0,15.717c4.645,8.651 10.6,18.18 10.889,18.71c0.53,0.968 0.694,2.02 0.241,3.112c-0.402,0.988 -1.733,1.961 -3.06,1.961l-31.191,0c-1.329,0 -2.501,-0.973 -2.91,-1.961c-0.45,-1.092 -0.131,-2.144 0.405,-3.112Z" style="fill-opacity:0.333333;fill-rule:nonzero;"/></g><g id="Hat"><path d="M361.163,186.921l0,18.75l-29.019,0.484l-17.455,-3.799l0,-19.238l16.971,3.803l29.503,0Z" style="fill-opacity:0.333333;fill-rule:nonzero;"/><path d="M338.502,179.949c-0.147,0 -1.241,-2.289 -2.57,-2.289c-1.325,0 -2.419,2.289 -2.567,2.289l5.137,0Zm-33.102,-1.837l0,-0.486l36.765,0l28.294,4.041l0,2.929l-38.799,0l-21.613,-5.392l0,10.919c0,0.325 0.263,0.955 0.263,1.694c0,1.062 -1.244,1.925 -2.306,1.925c-1.07,0 -1.558,-0.863 -1.558,-1.925c0,-0.689 1.277,-1.287 1.277,-1.628l0,-11.423l-2.323,-0.654Z" style="fill-opacity:0.333333;fill-rule:nonzero;"/></g><g id="PC"><path d="M368.137,339.154c0,1.901 1.734,3.441 3.88,3.441l43.352,0c2.144,0 3.881,-1.54 3.881,-3.441l0,-23.321c0,-1.903 -1.737,-3.445 -3.881,-3.445l-43.352,0c-2.146,0 -3.88,1.542 -3.88,3.445l0,23.321Zm23.742,8.089l3.907,0c0.476,0 0.863,-0.685 0.863,-1.165c0,-0.478 -0.387,-1.16 -0.863,-1.16l-3.907,0c-0.479,0 -0.871,0.682 -0.871,1.16c0,0.48 0.392,1.165 0.871,1.165Zm-28.394,-32.839c0,-2.397 1.941,-4.339 4.34,-4.339l49.409,0c2.395,0 4.339,1.942 4.339,4.339l0,28.498c0,2.395 -1.944,6.228 -4.339,6.228l-49.409,0c-2.399,0 -4.34,-3.833 -4.34,-6.228l0,-28.498Z" style="fill-opacity:0.333333;fill-rule:nonzero;"/><path d="M382.121,357.286l-0.811,0l0,-5.667l24.558,0l0,5.667l-1.171,0l10.616,2.744l0,2.923l-41.559,0l0,-2.923l8.367,-2.744Z" style="fill-opacity:0.333333;fill-rule:nonzero;"/></g><g id="Scissors"><path d="M484.243,359.101l-0.397,0.341l-24.44,-20.745l10.078,2.196l14.759,18.208Z" style="fill-opacity:0.333333;fill-rule:nonzero;"/><path d="M464.495,335.613c0.319,0.195 0.775,0.1 0.98,-0.201c0.209,-0.315 0.11,-0.728 -0.215,-0.933l-0.383,-0.103c-0.245,0 -0.466,0.115 -0.597,0.314c-0.212,0.307 -0.116,0.722 0.215,0.923Zm-28.896,-2.459c-0.068,2.086 2.54,3.862 5.808,3.953c3.097,0.094 5.209,-1.357 5.282,-3.55c0.074,-2.272 -2.002,-3.924 -5.041,-4.013l-0.265,-0.006c-3.178,0 -5.718,1.594 -5.784,3.616Zm5.717,-5.031c3.913,0.12 7.101,2.128 7.601,4.633c1.479,0.145 4.591,0.414 7.01,0.338c3.256,-0.103 8.428,-1.803 8.48,-1.821l0.094,-0.032l29.766,11.934l-0.167,0.486l-45.316,-8.903c-0.791,2.254 -3.802,4.049 -7.454,4.049l-0.345,-0.153c-2.082,-0.066 -4.019,-0.72 -5.464,-1.724c-1.476,-1.028 -2.259,-2.401 -2.217,-3.806c0.093,-2.853 3.64,-5.105 8.012,-5.001Z" style="fill-opacity:0.333333;fill-rule:nonzero;"/><path d="M455.883,314.488c-1.136,-2.168 -3.132,-3.626 -4.953,-3.626c-0.449,0 -0.877,0.097 -1.26,0.279c-1.972,0.924 -2.395,3.939 -0.938,6.71c1.028,1.967 2.682,3.141 4.423,3.141c0.542,0 1.066,-0.12 1.556,-0.349c0.965,-0.456 1.632,-1.293 1.865,-2.353c0.25,-1.142 0.01,-2.457 -0.693,-3.802Zm2.72,15.835l-4.772,-8.64l-0.014,0c-2.451,0 -5.103,-1.301 -6.584,-4.132c-1.93,-3.675 -1.289,-7.391 1.415,-8.662c0.556,-0.263 1.164,-0.243 1.811,-0.243c2.451,0 5.101,1.984 6.584,4.818c1.602,3.062 1.452,6.513 -0.341,8.255l3.893,8.136l-1.992,0.468Z" style="fill-opacity:0.333333;fill-rule:nonzero;"/></g><g id="Music"><path d="M476.016,225.513c0.946,0 1.713,-0.771 1.713,-1.716c0,-0.95 -0.767,-1.717 -1.713,-1.717c-0.949,0 -1.716,0.767 -1.716,1.717c0,0.945 0.767,1.716 1.716,1.716Zm23.779,0c0.95,0 1.717,-0.771 1.717,-1.716c0,-0.95 -0.767,-1.717 -1.717,-1.717c-0.941,0 -1.708,0.767 -1.708,1.717c0,0.945 0.767,1.716 1.708,1.716Zm-32.79,-26.551c0,-1.518 1.021,-2.749 2.284,-2.749l26.712,0c1.263,0 1.927,1.231 1.927,2.749c0,1.246 -2.003,2.286 -2.003,2.62l0,18.091c0,-0.122 1.443,-0.193 1.969,-0.193c3.401,0 6.388,2.757 6.388,6.158c0,3.404 -2.646,6.163 -6.049,6.163c-3.402,0 -6.135,-3.178 -6.135,-6.585c0,-0.369 0.129,-19.708 0.151,-24.355l-17.234,0l0,18.812c0,-0.122 0.008,-0.193 0.528,-0.193c3.402,0 5.673,2.757 5.673,6.158c0,3.404 -3.001,6.163 -6.402,6.163c-3.409,0 -6.322,-2.759 -6.322,-6.163c0,-0.378 0.014,-19.688 0.032,-24.127c-0.851,-0.397 -1.519,-1.387 -1.519,-2.549Z" style="fill-opacity:0.333333;fill-rule:nonzero;"/></g><g id="Pen"><path d="M382.872,188.579l3.216,3.754l-8.791,7.53l-3.216,-3.754c-1.064,-1.243 -0.707,-3.176 0.544,-4.242l4.28,-3.668c1.245,-1.068 2.899,-0.869 3.967,0.38Z" style="fill-opacity:0.333333;fill-rule:nonzero;"/><path d="M420.041,240.595l-2.068,-6.857l-2.062,-6.862l-4.4,3.768l-4.393,3.764l6.463,3.094l6.46,3.093Z" style="fill-opacity:0.333333;fill-rule:nonzero;"/><path d="M410.784,227.422l1.554,-1.429l-25.612,-29.88l-1.556,1.425l25.614,29.884Zm-23.65,-33.949l27.679,32.301l-8.787,7.532l-27.683,-32.303l8.791,-7.53Z" style="fill-opacity:0.333333;fill-rule:nonzero;"/></g><g id="Person"><path d="M289.894,271.68c1.554,-1.773 10.467,-4.178 10.636,-4.893c0.277,-1.196 0.271,-4.94 -0.181,-5.653c-0.068,-0.108 -1.253,-1.038 -1.504,-1.969c-0.249,-0.93 -0.52,-2.794 -0.52,-2.794c0,0 -1.076,0.172 -1.756,-2.116c-0.677,-2.293 -1.201,-3.524 0.199,-3.953c-0.43,-3.439 -1.506,-12.176 8.588,-12.463c0.186,-0.006 0.361,0 0.54,0l0.054,0l0.05,0c0.179,0 0.355,-0.006 0.538,0c10.098,0.287 9.022,9.024 8.588,12.463c1.4,0.429 0.884,1.66 0.203,3.953c-0.683,2.288 -1.755,2.116 -1.755,2.116c0,0 -0.269,1.864 -0.522,2.794c-0.252,0.931 -1.439,1.861 -1.503,1.969c-0.446,0.713 -0.574,4.885 -0.177,5.653c0.348,0.689 9.076,3.12 10.634,4.893c1.552,1.77 1.393,9.182 1.393,9.182c0,0 -6.42,0.054 -16.51,-0.024c-0.291,0.002 -0.588,0.004 -0.889,0.004l0,0.002l-0.05,-0.002l-0.054,0.002l0,-0.002c-0.303,0 -0.597,-0.002 -0.89,-0.004c-10.091,0.078 -16.507,0.024 -16.507,0.024c0,0 -0.161,-7.412 1.395,-9.182Z" style="fill-opacity:0.333333;fill-rule:nonzero;"/></g><g id="Book"><path d="M435.517,291.367c0,0 3.804,-1.712 12.322,-1.712c6.121,0 10.913,0.887 10.913,1.383l0,-36.037c-2.325,-0.809 -5.772,-2.455 -11.519,-2.455c-7.607,0 -11.716,2.895 -11.716,2.895l0,35.926Zm27.88,-0.329c0,-0.496 4.788,-1.383 10.915,-1.383c8.514,0 12.32,1.712 12.32,1.712l0,-35.926c0,0 -4.107,-2.895 -11.726,-2.895c-5.737,0 -9.186,1.646 -11.509,2.455l0,36.037Zm-29.488,-38.243c0.213,-0.14 5.259,-3.381 13.787,-3.381c6.497,0 11.379,1.874 13.443,2.803c2.055,-0.929 6.976,-2.803 13.48,-2.803c8.522,0 13.418,3.241 13.631,3.381c0.622,0.39 0.707,1.074 0.707,1.809l0,37.743c0,0.711 -0.085,2.305 -0.675,2.704c-0.072,0.052 -0.71,1.072 -2.25,1.072l-22.986,0c-0.141,2.325 -1.072,1.126 -2.221,1.126c-1.144,0 -2.077,1.199 -2.222,-1.126l-24.678,0c-0.835,0 -0.735,-3.125 -0.735,-3.776l0,-37.743c0,-0.735 0.098,-1.419 0.719,-1.809Z" style="fill-opacity:0.333333;fill-rule:nonzero;"/><path d="M483.938,261.349c0.261,0 0.504,-0.181 0.6,-0.47c0.125,-0.373 -0.048,-0.785 -0.379,-0.919c-3.345,-1.373 -10.154,-3.248 -18.18,-0.398c-0.338,0.123 -0.522,0.524 -0.416,0.902c0.107,0.377 0.47,0.582 0.805,0.464c7.667,-2.721 14.159,-0.932 17.349,0.375l0.221,0.046Z" style="fill-opacity:0.333333;fill-rule:nonzero;"/><path d="M483.795,268.518c0.259,0 0.506,-0.181 0.605,-0.472c0.122,-0.369 -0.053,-0.781 -0.384,-0.919c-3.344,-1.373 -10.15,-3.244 -18.178,-0.396c-0.335,0.121 -0.526,0.522 -0.417,0.904c0.108,0.375 0.469,0.58 0.805,0.463c7.662,-2.722 14.161,-0.933 17.347,0.376l0.222,0.044Z" style="fill-opacity:0.333333;fill-rule:nonzero;"/><path d="M483.938,275.685c0.261,0 0.504,-0.179 0.6,-0.47c0.125,-0.369 -0.048,-0.783 -0.379,-0.917c-3.345,-1.376 -10.154,-3.251 -18.18,-0.4c-0.338,0.123 -0.522,0.524 -0.416,0.901c0.107,0.378 0.47,0.585 0.805,0.468c7.667,-2.724 14.159,-0.933 17.349,0.376l0.221,0.042Z" style="fill-opacity:0.333333;fill-rule:nonzero;"/><path d="M483.938,282.856c0.261,0 0.504,-0.181 0.6,-0.472c0.125,-0.372 -0.048,-0.785 -0.379,-0.92c-3.345,-1.371 -10.154,-3.248 -18.18,-0.393c-0.338,0.118 -0.522,0.522 -0.416,0.897c0.107,0.38 0.47,0.585 0.805,0.468c7.667,-2.722 14.159,-0.935 17.349,0.375l0.221,0.045Z" style="fill-opacity:0.333333;fill-rule:nonzero;"/><path d="M456.463,261.349c0.263,0 0.51,-0.181 0.604,-0.47c0.123,-0.373 -0.05,-0.785 -0.381,-0.919c-3.345,-1.373 -10.152,-3.248 -18.176,-0.398c-0.337,0.123 -0.526,0.524 -0.42,0.902c0.109,0.377 0.47,0.582 0.807,0.464c7.663,-2.721 14.157,-0.932 17.347,0.375l0.219,0.046Z" style="fill-opacity:0.333333;fill-rule:nonzero;"/><path d="M456.323,268.518c0.263,0 0.505,-0.181 0.604,-0.472c0.12,-0.369 -0.05,-0.781 -0.384,-0.919c-3.342,-1.373 -10.152,-3.244 -18.178,-0.396c-0.335,0.121 -0.524,0.522 -0.415,0.904c0.106,0.375 0.47,0.58 0.803,0.463c7.665,-2.722 14.159,-0.933 17.351,0.376l0.219,0.044Z" style="fill-opacity:0.333333;fill-rule:nonzero;"/><path d="M456.463,275.685c0.263,0 0.51,-0.179 0.604,-0.47c0.123,-0.369 -0.05,-0.783 -0.381,-0.917c-3.345,-1.376 -10.152,-3.251 -18.176,-0.4c-0.337,0.123 -0.526,0.524 -0.42,0.901c0.109,0.378 0.47,0.585 0.807,0.468c7.663,-2.724 14.157,-0.933 17.347,0.376l0.219,0.042Z" style="fill-opacity:0.333333;fill-rule:nonzero;"/><path d="M456.463,282.856c0.263,0 0.51,-0.181 0.604,-0.472c0.123,-0.372 -0.05,-0.785 -0.381,-0.92c-3.345,-1.371 -10.152,-3.248 -18.176,-0.393c-0.337,0.118 -0.526,0.522 -0.42,0.897c0.109,0.38 0.47,0.585 0.807,0.468c7.663,-2.722 14.157,-0.935 17.347,0.375l0.219,0.045Z" style="fill-opacity:0.333333;fill-rule:nonzero;"/></g><g id="Dots"><path d="M373.647,152.998c0,3.081 2.5,5.579 5.579,5.579c3.084,0 5.581,-2.498 5.581,-5.579c0,-3.082 -2.497,-5.577 -5.581,-5.577c-3.079,0 -5.579,2.495 -5.579,5.577Z" style="fill-opacity:0.333333;fill-rule:nonzero;"/><path d="M427.714,364.106c0,3.079 2.499,5.579 5.578,5.579c3.078,0 5.579,-2.5 5.579,-5.579c0,-3.078 -2.501,-5.577 -5.579,-5.577c-3.079,0 -5.578,2.499 -5.578,5.577Z" style="fill-opacity:0.333333;fill-rule:nonzero;"/><path d="M499.797,266.278c0,3.079 2.502,5.576 5.581,5.576c3.08,0 5.579,-2.497 5.579,-5.576c0,-3.082 -2.499,-5.581 -5.579,-5.581c-3.079,0 -5.581,2.499 -5.581,5.581Z" style="fill-opacity:0.333333;fill-rule:nonzero;"/><path d="M296.159,305.34c0,3.081 2.498,5.579 5.579,5.579c3.08,0 5.581,-2.498 5.581,-5.579c0,-3.082 -2.501,-5.579 -5.581,-5.579c-3.081,0 -5.579,2.497 -5.579,5.579Z" style="fill-opacity:0.333333;fill-rule:nonzero;"/><path d="M274.358,223.799c0,3.079 2.499,5.581 5.575,5.581c3.083,0 5.578,-2.502 5.578,-5.581c0,-3.078 -2.495,-5.579 -5.578,-5.579c-3.076,0 -5.575,2.501 -5.575,5.579Z" style="fill-opacity:0.333333;fill-rule:nonzero;"/><path d="M314.438,402.724c0,3.078 2.497,5.575 5.577,5.575c3.083,0 5.578,-2.497 5.578,-5.575c0,-3.081 -2.495,-5.581 -5.578,-5.581c-3.08,0 -5.577,2.5 -5.577,5.581Z" style="fill-opacity:0.333333;fill-rule:nonzero;"/><path d="M350.481,365.39c0,2.373 1.923,4.295 4.29,4.295c2.368,0 4.292,-1.922 4.292,-4.295c0,-2.368 -1.924,-4.29 -4.292,-4.29c-2.367,0 -4.29,1.922 -4.29,4.29Z" style="fill-opacity:0.333333;fill-rule:nonzero;"/><path d="M432.865,231.52c0,2.368 1.919,4.292 4.288,4.292c2.373,0 4.294,-1.924 4.294,-4.292c0,-2.367 -1.921,-4.291 -4.294,-4.291c-2.369,0 -4.288,1.924 -4.288,4.291Z" style="fill-opacity:0.333333;fill-rule:nonzero;"/><path d="M514.189,238.492c0,2.366 1.919,4.29 4.284,4.29c2.375,0 4.294,-1.924 4.294,-4.29c0,-2.369 -1.919,-4.292 -4.294,-4.292c-2.365,0 -4.284,1.923 -4.284,4.292Z" style="fill-opacity:0.333333;fill-rule:nonzero;"/><path d="M258.013,384.994c0,2.365 1.925,4.29 4.29,4.29c2.372,0 4.292,-1.925 4.292,-4.29c0,-2.369 -1.92,-4.294 -4.292,-4.294c-2.365,0 -4.29,1.925 -4.29,4.294Z" style="fill-opacity:0.333333;fill-rule:nonzero;"/><path d="M255.226,264.987c0,2.371 1.919,4.292 4.29,4.292c2.371,0 4.29,-1.921 4.29,-4.292c0,-2.367 -1.919,-4.29 -4.29,-4.29c-2.371,0 -4.29,1.923 -4.29,4.29Z" style="fill-opacity:0.333333;fill-rule:nonzero;"/><path d="M355.63,280.437c0,2.364 1.919,4.29 4.288,4.29c2.375,0 4.294,-1.926 4.294,-4.29c0,-2.371 -1.919,-4.295 -4.294,-4.295c-2.369,0 -4.288,1.924 -4.288,4.295Z" style="fill-opacity:0.333333;fill-rule:nonzero;"/><path d="M515.245,362.819c0,2.367 1.925,4.292 4.292,4.292c2.371,0 4.294,-1.925 4.294,-4.292c0,-2.369 -1.923,-4.29 -4.294,-4.29c-2.367,0 -4.292,1.921 -4.292,4.29Z" style="fill-opacity:0.333333;fill-rule:nonzero;"/><path d="M525.546,271.423c0,1.66 1.343,3.005 2.997,3.005c1.664,0 3.009,-1.345 3.009,-3.005c0,-1.656 -1.345,-3.001 -3.009,-3.001c-1.654,0 -2.997,1.345 -2.997,3.001Z" style="fill-opacity:0.333333;fill-rule:nonzero;"/><path d="M430.287,310.043c0,1.659 1.347,3.004 3.005,3.004c1.661,0 3.002,-1.345 3.002,-3.004c0,-1.658 -1.341,-3.001 -3.002,-3.001c-1.658,0 -3.005,1.343 -3.005,3.001Z" style="fill-opacity:0.333333;fill-rule:nonzero;"/><path d="M335.033,243.105c0,1.66 1.347,3.003 3.003,3.003c1.662,0 3.005,-1.343 3.005,-3.003c0,-1.658 -1.343,-3.003 -3.005,-3.003c-1.656,0 -3.003,1.345 -3.003,3.003Z" style="fill-opacity:0.333333;fill-rule:nonzero;"/><path d="M314.438,165.872c0,1.658 1.345,3.005 3.007,3.005c1.656,0 2.999,-1.347 2.999,-3.005c0,-1.658 -1.343,-3.005 -2.999,-3.005c-1.662,0 -3.007,1.347 -3.007,3.005Z" style="fill-opacity:0.333333;fill-rule:nonzero;"/><path d="M466.332,183.893c0,1.657 1.343,3.004 3.003,3.004c1.658,0 3.004,-1.347 3.004,-3.004c0,-1.66 -1.346,-3.005 -3.004,-3.005c-1.66,0 -3.003,1.345 -3.003,3.005Z" style="fill-opacity:0.333333;fill-rule:nonzero;"/><path d="M440.588,389.852c0,1.654 1.343,3.003 2.999,3.003c1.662,0 3.009,-1.349 3.009,-3.003c0,-1.66 -1.347,-3.009 -3.009,-3.009c-1.656,0 -2.999,1.349 -2.999,3.009Z" style="fill-opacity:0.333333;fill-rule:nonzero;"/><path d="M358.205,394.999c0,1.654 1.343,3.003 3.006,3.003c1.656,0 3.001,-1.349 3.001,-3.003c0,-1.654 -1.345,-3.005 -3.001,-3.005c-1.663,0 -3.006,1.351 -3.006,3.005Z" style="fill-opacity:0.333333;fill-rule:nonzero;"/><path d="M228.448,306.918c0,1.656 1.347,3.001 3.007,3.001c1.66,0 3.001,-1.345 3.001,-3.001c0,-1.663 -1.341,-3.01 -3.001,-3.01c-1.66,0 -3.007,1.347 -3.007,3.01Z" style="fill-opacity:0.333333;fill-rule:nonzero;"/></g></g></g></svg>