<?xml version="1.0" encoding="UTF-8" standalone="no"?><!DOCTYPE svg PUBLIC "-//W3C//DTD SVG 1.1//EN" "http://www.w3.org/Graphics/SVG/1.1/DTD/svg11.dtd"><svg width="100%" height="100%" viewBox="0 0 800 600" version="1.1" xmlns="http://www.w3.org/2000/svg" xmlns:xlink="http://www.w3.org/1999/xlink" xml:space="preserve" style="fill-rule:evenodd;clip-rule:evenodd;stroke-linejoin:round;stroke-miterlimit:1.41421;"><g><path d="M180.218,300.487c-0.674,4.032 -6.053,10.306 -12.113,19.498c-2.984,4.525 -0.648,10.879 1.692,13.946c2.133,2.799 8.402,7.785 8.402,7.785c0,0 -6.722,2.689 -7.62,8.517c-0.899,5.827 -1.791,11.649 7.172,17.476c4.943,3.215 6.274,3.138 6.274,8.517c0,5.377 -15.237,35.403 21.064,43.92c36.302,8.517 87.839,1.341 95.013,19.718c4.087,10.474 7.156,25.608 8.541,40.257c0.146,1.551 -6.185,4.37 -6.076,5.905c0.659,9.391 4.352,16.404 3.36,23.528c-2.251,16.137 -3.558,63.512 -3.925,78.509l257.847,0c-3.574,-67.174 -60.312,-133.634 -60.312,-133.634c0,0 -2.466,-15.011 -5.379,-18.149c-2.914,-3.138 -13.224,-0.45 -13.224,-0.45l-1.454,-5.824c0,0 35.574,-20.616 54.844,-35.407c19.273,-14.787 99.576,-73.047 99.576,-181.508c0,-108.453 -39.397,-100.386 -39.397,-100.386c0,0 -27.766,-59.159 -75.269,-80.67c-47.504,-21.511 -104.941,-21.638 -144.296,-18.823c-37.638,2.691 -118.758,12.549 -116.739,52.883c0,0 -37.984,24.762 -52.102,55.686c-14.115,30.923 -10.587,59.101 -6.553,79.94c4.033,20.838 5.097,39.16 -5.968,50.393c-6.042,6.131 -27.476,20.774 -27.476,26.858c0,12.998 14.789,17.479 14.118,21.515Z" style="fill:#fff;fill-rule:nonzero;"/><path d="M587.308,215.391c0,-7.346 -3.452,-13.935 -8.676,-18.329l-2.264,2.359c4.594,3.806 7.496,9.551 7.496,15.97c0,11.437 -9.319,20.743 -20.756,20.743c-5.908,0 -11.251,-2.489 -15.033,-6.461l-2.114,2.356c4.044,4.186 10.98,6.906 15.855,7.279l0,7.286c-7.312,0.173 -12.974,1.165 -13.321,2.376c-0.222,0.523 -0.063,1.384 -0.063,1.64c0,1.393 6.934,2.526 15.52,2.526c8.58,0 15.53,-1.133 15.53,-2.526c0,-0.283 0.485,-1.143 0.214,-1.68c-0.462,-1.199 -8.134,-2.167 -13.008,-2.34l0,-7.437c12.184,-1.522 20.62,-11.594 20.62,-23.762Z" style="fill:#00726a;fill-opacity:0.188235;fill-rule:nonzero;"/><path d="M553.25,225.307l3.461,-3.111c2.579,2.915 6.132,5.492 11.011,6.99c-1.317,0.406 -2.722,0.63 -4.174,0.63c-4.065,0 -7.729,-1.74 -10.298,-4.509Zm-3.748,-9.535c0,-1.958 0.402,-3.82 1.129,-5.512c0.719,2.889 2.118,6.772 4.802,10.363l-3.451,3.103c-1.563,-2.263 -2.48,-5.002 -2.48,-7.954Zm23.185,-10.651l-3.56,3.198c-3.552,-3.129 -7.531,-4.85 -10.34,-5.762c1.49,-0.536 3.091,-0.83 4.761,-0.83c3.487,0 6.682,1.282 9.139,3.394Zm-8.168,10.062l4.626,-4.158c2.829,2.958 5.168,7.059 5.943,12.739c-0.361,0.521 -0.753,1.014 -1.179,1.477l-9.39,-10.058Zm-1.506,1.349l9.43,10.098c-0.553,0.454 -1.139,0.862 -1.749,1.229c-5.761,-1.201 -9.751,-3.878 -12.529,-6.972l4.848,-4.355Zm-8.2,-11.746c0.41,-0.325 0.836,-0.63 1.28,-0.911c2.294,0.521 7.261,1.997 11.58,5.755l-4.535,4.073l-8.325,-8.917Zm6.821,10.27l-4.747,4.26c-3.211,-4.325 -4.36,-9.088 -4.77,-11.689c0.368,-0.515 0.774,-1.004 1.206,-1.47l8.311,8.899Zm15.958,0.716c0,1.812 -0.349,3.546 -0.981,5.143c-1.123,-4.811 -3.369,-8.452 -6.014,-11.194l3.53,-3.176c2.158,2.473 3.465,5.698 3.465,9.227Zm-14.044,-18.09c-9.977,0 -18.092,8.115 -18.092,18.09c0,9.973 8.115,18.087 18.092,18.087c9.975,0 18.088,-8.114 18.088,-18.087c0,-9.975 -8.113,-18.09 -18.088,-18.09Z" style="fill:#00726a;fill-opacity:0.188235;fill-rule:nonzero;"/><path d="M439.842,68.387l-3.374,3.938l9.22,7.899l3.372,-3.938c1.119,-1.304 0.741,-3.331 -0.571,-4.448l-4.489,-3.849c-1.306,-1.12 -3.039,-0.91 -4.158,0.398Z" style="fill:#00726a;fill-opacity:0;fill-rule:nonzero;"/><path d="M400.857,122.943l2.169,-7.193l2.164,-7.197l4.616,3.952l4.606,3.948l-6.778,3.245l-6.777,3.245Z" style="fill:#00726a;fill-opacity:0;fill-rule:nonzero;"/><path d="M410.566,109.127l-1.628,-1.5l26.86,-31.339l1.631,1.497l-26.863,31.342Zm24.806,-35.607l-29.031,33.877l9.216,7.901l29.033,-33.879l-9.218,-7.899Z" style="fill:#00726a;fill-opacity:0;fill-rule:nonzero;"/><path d="M423.004,160.716c-7.929,0 -14.355,-6.425 -14.355,-14.357c0,-7.931 6.426,-14.36 14.355,-14.36c7.932,0 14.359,6.429 14.359,14.36c0,7.932 -6.427,14.357 -14.359,14.357Zm17.999,-11.156l3.932,-3.176l-3.928,-3.185l2.609,-4.331l-4.781,-1.65l0.973,-4.961l-5.058,0.085l-0.776,-4.994l-4.727,1.808l-2.443,-4.426l-3.82,3.317l-3.81,-3.326l-2.452,4.421l-4.717,-1.818l-0.795,4.994l-5.058,-0.097l0.965,4.965l-4.786,1.64l2.603,4.335l-3.935,3.176l3.931,3.181l-2.611,4.331l4.774,1.65l-0.97,4.959l5.058,-0.085l0.782,4.997l4.721,-1.809l2.447,4.428l3.817,-3.315l3.81,3.323l2.455,-4.422l4.717,1.82l0.792,-4.992l5.058,0.093l-0.965,-4.965l4.783,-1.636l-2.595,-4.335Z" style="fill:#00726a;fill-opacity:0.0980392;fill-rule:nonzero;"/><path d="M416.12,165.112l-5.147,1.973l-0.852,-5.446l-3.509,0.059l-8.037,17.672l9.408,-5.505l2.124,10.753l7.582,-16.661l-1.569,-2.845Z" style="fill:#00726a;fill-opacity:0.0980392;fill-rule:nonzero;"/><path d="M439.004,161.728l-3.22,-0.061l-0.867,5.444l-5.14,-1.983l-1.731,3.114l7.453,16.376l2.128,-10.753l9.404,5.505l-8.027,-17.642Z" style="fill:#00726a;fill-opacity:0.0980392;fill-rule:nonzero;"/><path d="M423.618,151.937l-2.435,0l0,-9.747l0.937,0l-2.781,1.284l-0.682,-2.395l3.652,-1.326l1.309,0l0,12.184Zm-0.614,-18.442c-7.102,0 -12.864,5.761 -12.864,12.864c0,7.106 5.762,12.867 12.864,12.867c7.108,0 12.869,-5.761 12.869,-12.867c0,-7.103 -5.761,-12.864 -12.869,-12.864Z" style="fill:#00726a;fill-opacity:0.0980392;fill-rule:nonzero;"/><path d="M518.74,75.319c-1.299,0 -2.125,-0.503 -2.125,-0.503l-1.201,8.467c0,0 1.389,1.094 3.75,1.094c2.36,0 3.707,-1.094 3.707,-1.094l-1.769,-8.594c0,0 -1.056,0.63 -2.362,0.63Z" style="fill:#00726a;fill-opacity:0.168627;fill-rule:nonzero;"/><path d="M462.609,66.649l0,19.665l30.434,0.507l18.306,-3.984l0,-20.176l-17.799,3.988l-30.941,0Z" style="fill:#00726a;fill-opacity:0.168627;fill-rule:nonzero;"/><path d="M486.377,59.337c0.152,0 1.299,-2.399 2.694,-2.399c1.391,0 2.536,2.399 2.692,2.399l-5.386,0Zm34.717,-1.928l0,-0.507l-38.559,0l-29.675,4.236l0,3.073l40.69,0l22.67,-5.654l0,11.449c0,0.342 -0.277,1.004 -0.277,1.777c0,1.115 1.306,2.02 2.419,2.02c1.121,0 1.632,-0.905 1.632,-2.02c0,-0.72 -1.339,-1.348 -1.339,-1.708l0,-11.976l2.439,-0.69Z" style="fill:#00726a;fill-opacity:0.168627;fill-rule:nonzero;"/><path d="M384.627,176.192c0,0 -3.988,-1.796 -12.923,-1.796c-6.42,0 -11.445,0.931 -11.445,1.452l0,-37.796c2.439,-0.85 6.053,-2.578 12.081,-2.578c7.978,0 12.287,3.037 12.287,3.037l0,37.681Zm-29.241,-0.344c0,-0.521 -5.02,-1.452 -11.443,-1.452c-8.933,0 -12.925,1.796 -12.925,1.796l0,-37.681c0,0 4.307,-3.037 12.299,-3.037c6.016,0 9.632,1.728 12.069,2.578l0,37.796Zm30.929,-40.112c-0.224,-0.145 -5.519,-3.543 -14.462,-3.543c-6.813,0 -11.934,1.962 -14.096,2.938c-2.159,-0.976 -7.318,-2.938 -14.137,-2.938c-8.939,0 -14.076,3.398 -14.3,3.543c-0.65,0.412 -0.739,1.129 -0.739,1.9l0,39.583c0,0.745 0.089,2.419 0.705,2.837c0.078,0.055 0.747,1.125 2.364,1.125l24.106,0c0.147,2.437 1.124,1.179 2.328,1.179c1.201,0 2.179,1.258 2.33,-1.179l25.883,0c0.876,0 0.771,-3.279 0.771,-3.962l0,-39.583c0,-0.771 -0.103,-1.488 -0.753,-1.9Z" style="fill:#00726a;fill-opacity:0.498039;fill-rule:nonzero;"/><path d="M333.843,144.708c-0.274,0 -0.529,-0.188 -0.63,-0.493c-0.129,-0.39 0.051,-0.822 0.398,-0.963c3.509,-1.44 10.651,-3.405 19.069,-0.416c0.352,0.127 0.546,0.549 0.435,0.943c-0.111,0.396 -0.493,0.612 -0.844,0.487c-8.041,-2.852 -14.85,-0.974 -18.196,0.395l-0.232,0.047Z" style="fill:#00726a;fill-opacity:0.498039;fill-rule:nonzero;"/><path d="M333.993,152.227c-0.273,0 -0.531,-0.191 -0.632,-0.496c-0.13,-0.386 0.052,-0.818 0.401,-0.962c3.506,-1.441 10.644,-3.404 19.064,-0.415c0.351,0.125 0.553,0.547 0.438,0.945c-0.113,0.395 -0.493,0.611 -0.844,0.488c-8.035,-2.855 -14.851,-0.979 -18.195,0.392l-0.232,0.048Z" style="fill:#00726a;fill-opacity:0.498039;fill-rule:nonzero;"/><path d="M333.843,159.745c-0.274,0 -0.529,-0.188 -0.63,-0.493c-0.129,-0.389 0.051,-0.822 0.398,-0.965c3.509,-1.438 10.651,-3.406 19.069,-0.418c0.352,0.129 0.546,0.551 0.435,0.947c-0.111,0.396 -0.493,0.612 -0.844,0.489c-8.041,-2.857 -14.85,-0.98 -18.196,0.395l-0.232,0.045Z" style="fill:#00726a;fill-opacity:0.498039;fill-rule:nonzero;"/><path d="M333.843,167.265c-0.274,0 -0.529,-0.19 -0.63,-0.495c-0.129,-0.39 0.051,-0.824 0.398,-0.965c3.509,-1.438 10.651,-3.405 19.069,-0.414c0.352,0.125 0.546,0.549 0.435,0.943c-0.111,0.399 -0.493,0.613 -0.844,0.49c-8.041,-2.855 -14.85,-0.979 -18.196,0.394l-0.232,0.047Z" style="fill:#00726a;fill-opacity:0.498039;fill-rule:nonzero;"/><path d="M362.659,144.708c-0.276,0 -0.535,-0.188 -0.632,-0.493c-0.129,-0.39 0.051,-0.822 0.398,-0.963c3.508,-1.44 10.646,-3.405 19.062,-0.416c0.355,0.127 0.551,0.549 0.44,0.943c-0.113,0.396 -0.491,0.612 -0.846,0.487c-8.035,-2.852 -14.847,-0.974 -18.193,0.395l-0.229,0.047Z" style="fill:#00726a;fill-opacity:0.498039;fill-rule:nonzero;"/><path d="M362.807,152.227c-0.277,0 -0.531,-0.191 -0.634,-0.496c-0.125,-0.386 0.054,-0.818 0.402,-0.962c3.505,-1.441 10.647,-3.404 19.065,-0.415c0.352,0.125 0.549,0.547 0.436,0.945c-0.113,0.395 -0.492,0.611 -0.842,0.488c-8.04,-2.855 -14.851,-0.979 -18.197,0.392l-0.23,0.048Z" style="fill:#00726a;fill-opacity:0.498039;fill-rule:nonzero;"/><path d="M362.659,159.745c-0.276,0 -0.535,-0.188 -0.632,-0.493c-0.129,-0.389 0.051,-0.822 0.398,-0.965c3.508,-1.438 10.646,-3.406 19.062,-0.418c0.355,0.129 0.551,0.551 0.44,0.947c-0.113,0.396 -0.491,0.612 -0.846,0.489c-8.035,-2.857 -14.847,-0.98 -18.193,0.395l-0.229,0.045Z" style="fill:#00726a;fill-opacity:0.498039;fill-rule:nonzero;"/><path d="M362.659,167.265c-0.276,0 -0.535,-0.19 -0.632,-0.495c-0.129,-0.39 0.051,-0.824 0.398,-0.965c3.508,-1.438 10.646,-3.405 19.062,-0.414c0.355,0.125 0.551,0.549 0.44,0.943c-0.113,0.399 -0.491,0.613 -0.846,0.49c-8.035,-2.855 -14.847,-0.979 -18.193,0.394l-0.229,0.047Z" style="fill:#00726a;fill-opacity:0.498039;fill-rule:nonzero;"/><path d="M523.941,243.517c0,1.066 -0.866,1.934 -1.936,1.934c-1.066,0 -1.931,-0.868 -1.931,-1.934c0,-1.067 0.865,-1.935 1.931,-1.935c1.07,0 1.936,0.868 1.936,1.935Z" style="fill:#00726a;fill-opacity:0.658824;fill-rule:nonzero;"/><path d="M524.886,259.573c-1.565,0 -2.835,-1.266 -2.835,-2.829c0,-1.568 1.27,-2.837 2.835,-2.837c1.563,0 2.833,1.269 2.833,2.837c0,1.563 -1.27,2.829 -2.833,2.829Zm-5.577,-6.296c-0.67,0 -1.216,-0.541 -1.216,-1.213c0,-0.672 0.546,-1.214 1.216,-1.214c0.67,0 1.214,0.542 1.214,1.214c0,0.672 -0.544,1.213 -1.214,1.213Zm13.832,6.432l-0.836,-0.895c-1.666,-2.849 -3.738,-6.964 -5.81,-9.401l-10.08,0c-3.117,4.874 -6.398,9.748 -8.034,12.18l26.325,0c-0.433,0 -0.968,-0.867 -1.565,-1.884Z" style="fill:#00726a;fill-opacity:0.517647;fill-rule:nonzero;"/><path d="M538.104,264.236c-0.093,0.177 -0.537,-0.204 -0.907,-0.204l-31.051,0c-0.38,0 -0.905,0.381 -1.012,0.224c-0.204,-0.497 -0.135,-0.384 0.04,-0.691c0.059,-0.101 0.305,-0.302 0.642,-0.876c1.705,-2.875 6.248,-10.429 10.046,-17.529c0.18,-0.331 0.358,-0.622 0.358,-1.003l0,-16.675l9.746,0l0,15.839c0,0.408 0.271,0.803 0.477,1.151c3.037,5.229 6.377,10.889 8.648,14.762c1.385,2.367 2.654,4.069 2.777,4.293c0.319,0.578 0.323,0.497 0.236,0.709Zm2.554,-0.65c-0.305,-0.568 -7.38,-11.203 -12.252,-20.506l0,-14.471c2.433,-0.093 2.433,-0.626 2.433,-1.264l0,-0.132c0,-0.708 -1.085,-2.168 -1.795,-2.168l-15.787,0c-0.706,0 -1.908,1.46 -1.908,2.168l0,0.132c0,0.708 1.202,0.137 1.908,0.137l0.525,0l0,16.483c-4.872,9.072 -11.117,19.069 -11.42,19.621c-0.554,1.015 -0.727,2.118 -0.253,3.263c0.422,1.036 1.816,2.059 3.211,2.059l32.711,0c1.394,0 2.627,-1.023 3.051,-2.059c0.473,-1.145 0.138,-2.248 -0.424,-3.263Z" style="fill:#00726a;fill-opacity:0.482353;fill-rule:nonzero;"/><path d="M467.639,128.821c-0.999,0.747 -2.054,1.352 -3.152,1.829l9.692,12.959c0.873,1.163 2.819,1.184 4.34,0.043c1.53,-1.139 2.055,-3.011 1.185,-4.176l-9.648,-12.895c-0.711,0.814 -1.52,1.567 -2.417,2.24Z" style="fill:#00726a;fill-opacity:0.235294;fill-rule:nonzero;"/><path d="M464.479,124.598c-5.502,4.117 -13.301,2.993 -17.416,-2.514c-4.117,-5.5 -2.992,-13.3 2.512,-17.413c5.502,-4.118 13.301,-2.995 17.416,2.511c4.117,5.501 2.99,13.299 -2.512,17.416Zm-16.85,-22.528c-6.937,5.189 -8.358,15.023 -3.169,21.961c5.194,6.94 15.027,8.357 21.963,3.168c6.941,-5.195 8.358,-15.023 3.167,-21.963c-5.194,-6.938 -15.025,-8.356 -21.961,-3.166Z" style="fill:#00726a;fill-opacity:0.235294;fill-rule:nonzero;"/><path d="M452.458,108.804c3.405,-1.953 7.722,-1.363 10.478,1.413l2.454,-1.544c-3.728,-4.2 -10.002,-5.091 -14.757,-2.086l1.825,2.217Z" style="fill:#00726a;fill-opacity:0.235294;fill-rule:nonzero;"/><path d="M502.41,154.434c0.65,-0.733 1.838,-1.419 3.457,-2.138c-0.547,-0.226 -0.895,-0.412 -0.927,-0.537c-0.222,-0.951 -0.214,-3.926 0.144,-4.493c0.054,-0.087 0.995,-0.826 1.193,-1.565c0.198,-0.741 0.414,-2.225 0.414,-2.225c0,0 0.856,0.141 1.399,-1.682c0.541,-1.821 0.953,-2.799 -0.159,-3.14c0.337,-2.736 1.197,-9.048 -6.835,-9.278l-0.42,0.63l-0.045,0l-0.044,0l-0.424,-0.63c-8.025,0.23 -7.171,6.859 -6.831,9.593c-1.109,0.341 -0.699,1.163 -0.158,2.985c0.541,1.821 1.395,1.601 1.395,1.601c0,0 0.214,1.442 0.414,2.183c0.2,0.741 1.139,1.459 1.192,1.548c0.361,0.568 0.46,3.873 0.145,4.483c-0.277,0.547 -7.217,2.478 -8.454,3.885c-1.238,1.411 -1.109,7.299 -1.109,7.299c0,0 5.103,0.039 13.125,-0.022c0.218,0.002 0.438,0.002 0.66,0.004c0.075,-2.798 0.441,-6.881 1.868,-8.501Z" style="fill:#00726a;fill-opacity:0;fill-rule:nonzero;"/><path d="M555.362,155.648c-1.238,-1.409 -8.321,-3.316 -8.454,-3.889c-0.224,-0.951 -0.214,-3.926 0.145,-4.493c0.051,-0.087 0.994,-0.826 1.194,-1.565c0.197,-0.741 0.417,-2.225 0.417,-2.225c0,0 0.849,0.141 1.39,-1.682c0.543,-1.821 0.953,-2.799 -0.156,-3.14c0.341,-2.736 1.194,-9.048 -6.831,-9.278l-0.424,0.63l-0.048,0l-0.041,0l-0.422,-0.63c-8.026,0.23 -7.174,6.859 -6.833,9.593c-1.11,0.341 -0.7,1.163 -0.157,2.985c0.543,1.821 1.395,1.601 1.395,1.601c0,0 0.216,1.442 0.414,2.183c0.2,0.741 1.141,1.459 1.195,1.548c0.356,0.568 0.453,3.873 0.142,4.483c-0.097,0.192 -0.996,0.545 -2.183,0.989c1.147,0.554 2.003,1.097 2.512,1.678c1.427,1.624 1.797,5.707 1.876,8.505c0.446,-0.004 -0.089,-0.008 0.373,-0.01c0.234,0.002 -0.278,-0.125 -0.278,-0.125l0,-1.121l2.007,0l-2.007,0l0,1.123c2.439,-0.002 1.5,0.059 1.734,0.057c8.024,0.066 13.636,0.052 13.636,0.052c0,0 0.644,-5.86 -0.596,-7.269Z" style="fill:#00726a;fill-opacity:0.482353;fill-rule:nonzero;"/><path d="M537.357,155.545c-1.634,-1.86 -10.979,-4.382 -11.154,-5.133c-0.295,-1.256 -0.285,-5.181 0.187,-5.928c0.071,-0.115 1.313,-1.089 1.577,-2.064c0.261,-0.977 0.546,-2.932 0.546,-2.932c0,0 1.128,0.18 1.841,-2.221c0.711,-2.403 1.258,-3.695 -0.206,-4.146c0.448,-3.606 1.579,-12.769 -9.01,-13.068c-0.195,-0.008 -0.377,-0.002 -0.563,0l0,-0.002l-0.057,0l-0.056,0l0,0.002c-0.188,-0.002 -0.37,-0.008 -0.563,0c-10.593,0.299 -9.462,9.462 -9.008,13.068c-1.466,0.451 -0.927,1.743 -0.212,4.146c0.715,2.401 1.841,2.221 1.841,2.221c0,0 0.281,1.955 0.546,2.932c0.266,0.975 1.508,1.949 1.577,2.064c0.466,0.747 0.601,5.122 0.185,5.928c-0.363,0.721 -9.516,3.273 -11.15,5.133c-1.633,1.856 -1.464,9.63 -1.464,9.63c0,0 6.734,0.056 17.315,-0.027c0.307,0.002 0.618,0.006 0.933,0.006l0.113,0c0.315,0 0.622,-0.004 0.931,-0.006c10.583,0.083 17.313,0.027 17.313,0.027c0,0 0.171,-7.774 -1.462,-9.63Z" style="fill:#00726a;fill-opacity:0.698039;fill-rule:nonzero;"/><path d="M519.042,110.938l-0.63,-10.661l4.493,0l-0.626,10.661l-3.237,0Zm1.594,5.898c-1.45,0 -2.466,-1.068 -2.466,-2.491c0,-1.499 1.016,-2.514 2.466,-2.514c1.476,0 2.463,1.015 2.487,2.514c0,1.423 -0.989,2.491 -2.463,2.491l-0.024,0Z" style="fill:#00726a;fill-rule:nonzero;"/><path d="M391.688,83.376c-11.225,0 -20.324,-9.099 -20.324,-20.326c0,-11.229 9.099,-20.329 20.324,-20.329c11.227,0 20.331,9.1 20.331,20.329c0,11.227 -9.104,20.326 -20.331,20.326Zm-9.093,5.056c-11.229,0 -20.333,-9.103 -20.333,-20.328c0,-7.582 4.157,-14.191 10.31,-17.684c-2.397,3.62 -3.8,7.958 -3.8,12.63c0,12.653 10.263,22.916 22.916,22.916c0.214,0 0.426,-0.012 0.632,-0.016c-2.89,1.581 -6.203,2.482 -9.725,2.482Zm32.011,-25.382c0,-12.658 -10.258,-22.916 -22.918,-22.916c-5.92,0 -11.318,2.249 -15.385,5.933c-9.599,2.738 -16.626,11.564 -16.626,22.037c0,12.655 10.26,22.913 22.918,22.913c5.917,0 11.308,-2.246 15.377,-5.933c9.599,-2.728 16.634,-11.56 16.634,-22.034Z" style="fill:#00726a;fill-opacity:0.552941;fill-rule:nonzero;"/><path d="M391.688,58.982c-2.241,0 -4.063,1.821 -4.063,4.068c0,2.242 1.822,4.063 4.063,4.063c2.247,0 4.065,-1.821 4.065,-4.063c0,-2.247 -1.818,-4.068 -4.065,-4.068Z" style="fill:#00726a;fill-opacity:0.552941;fill-rule:nonzero;"/><path d="M396.284,45.148l-3.415,12.485c1.284,0.28 2.397,1.003 3.178,1.999l9.323,-9c-2.393,-2.635 -5.529,-4.576 -9.086,-5.484Z" style="fill:#00726a;fill-opacity:0.552941;fill-rule:nonzero;"/><path d="M407.242,53.079l-10.631,7.431c0.286,0.549 0.48,1.153 0.567,1.791l11.659,-6.146c-0.44,-1.079 -0.975,-2.108 -1.595,-3.076Z" style="fill:#00726a;fill-opacity:0.552941;fill-rule:nonzero;"/><path d="M330.406,193.363l-18.922,0c-1.656,0 -2.397,0.444 -2.397,2.104l0,13.075c0,1.661 0.741,1.881 2.397,1.881l8.479,0l1.23,3.825l4.646,-3.825l4.567,0c1.656,0 3.049,-0.22 3.049,-1.881l0,-13.075c0,-1.66 -1.393,-2.104 -3.049,-2.104Z" style="fill:#00726a;fill-opacity:0.654902;fill-rule:nonzero;"/><path d="M303.003,186.859c-0.601,0.656 -1.227,1.331 -1.227,2.138l0,1.931l-4.873,0l0,-2.137c0,-0.938 1.547,-1.857 2.349,-2.79c0.505,-0.602 1.635,-1.165 1.635,-1.708c0,-0.525 -0.034,-0.881 -0.84,-0.899c-0.618,0 -1.207,0.206 -1.694,0.545l-0.63,-2.419c0.691,-0.375 1.872,-0.767 3.352,-0.767c2.627,0 3.681,1.385 3.681,2.978c0,1.517 -1.116,2.438 -1.753,3.128Zm-2.112,7.681l-0.018,0c-1.125,0 -1.91,-0.69 -1.91,-1.799c0,-1.163 0.806,-1.878 1.91,-1.878c1.145,0 1.912,0.683 1.933,1.844c0,1.106 -0.772,1.833 -1.915,1.833Zm13.43,-18.235l-24.535,0c-2.153,0 -5.069,1.544 -5.069,3.693l0,17.135c0,2.156 2.916,3.542 5.069,3.542l3.093,0l5.668,4.674l1.508,-4.674l4.158,0l0,-5.016c0,-2.625 4.456,-4.731 7.079,-4.731l7.542,0l0,-10.93c0,-2.149 -2.36,-3.693 -4.513,-3.693Z" style="fill:#00726a;fill-opacity:0.345098;fill-rule:nonzero;"/><path d="M487.9,229.43c-9.218,0 -16.693,-7.473 -16.693,-16.691c0,-9.213 7.475,-16.682 16.693,-16.682c9.214,0 16.685,7.469 16.685,16.682c0,9.218 -7.471,16.691 -16.685,16.691Zm0,-35.984c-10.658,0 -19.298,8.638 -19.298,19.293c0,10.658 8.64,19.3 19.298,19.3c10.659,0 19.296,-8.642 19.296,-19.3c0,-10.655 -8.637,-19.293 -19.296,-19.293Z" style="fill:#00726a;fill-opacity:0.301961;fill-rule:nonzero;"/><path d="M493.156,221.85l-5.256,-3.873l-5.26,3.873l0.729,-6.49l-5.987,-2.621l5.987,-2.614l-0.729,-6.49l5.26,3.875l5.256,-3.875l-0.727,6.49l5.987,2.614l-5.987,2.621l0.727,6.49Zm-5.256,-23.974c-8.21,0 -14.862,6.661 -14.862,14.863c0,8.209 6.652,14.87 14.862,14.87c8.21,0 14.865,-6.661 14.865,-14.87c0,-8.202 -6.655,-14.863 -14.865,-14.863Z" style="fill:#00726a;fill-opacity:0.301961;fill-rule:nonzero;"/><path d="M496.548,193.983l5.68,-15.132l-8.028,-3.015l-6.1,16.249c3.013,0.028 5.876,0.707 8.448,1.898Z" style="fill:#00726a;fill-opacity:0.301961;fill-rule:nonzero;"/><path d="M487.086,192.099l-6.11,-16.263l-8.028,3.015l5.779,15.382c2.534,-1.262 5.365,-2.023 8.359,-2.134Z" style="fill:#00726a;fill-opacity:0.301961;fill-rule:nonzero;"/><path d="M455.297,226.307c0,1.995 -1.821,3.612 -4.072,3.612l-45.467,0c-2.248,0 -4.071,-1.617 -4.071,-3.612l0,-24.457c0,-1.995 1.823,-3.613 4.071,-3.613l45.467,0c2.251,0 4.072,1.618 4.072,3.613l0,24.457Zm-24.903,8.486l-4.097,0c-0.5,0 -0.906,-0.72 -0.906,-1.221c0,-0.503 0.406,-1.218 0.906,-1.218l4.097,0c0.503,0 0.913,0.715 0.913,1.218c0,0.501 -0.41,1.221 -0.913,1.221Zm29.78,-34.441c0,-2.516 -2.039,-4.548 -4.553,-4.548l-51.82,0c-2.512,0 -4.549,2.032 -4.549,4.548l0,29.888c0,2.512 2.037,6.534 4.549,6.534l51.82,0c2.514,0 4.553,-4.022 4.553,-6.534l0,-29.888Z" style="fill:#00726a;fill-opacity:0.705882;fill-rule:nonzero;"/><path d="M440.626,245.326l0.852,0l0,-5.943l-25.755,0l0,5.943l1.227,0l-11.132,2.879l0,3.065l43.585,0l0,-3.065l-8.777,-2.879Z" style="fill:#00726a;fill-opacity:0.705882;fill-rule:nonzero;"/><path d="M426.816,263.79c-4.844,0 -10.237,10.283 -10.237,25.02c0,14.748 5.393,25.026 10.237,25.026c4.838,0 10.234,-10.278 10.234,-25.026c0,-14.737 -5.396,-25.02 -10.234,-25.02Zm0,53.075c-7.441,0 -13.272,-12.321 -13.272,-28.055c0,-15.726 5.831,-28.049 13.272,-28.049c7.439,0 13.267,12.323 13.267,28.049c0,15.734 -5.828,28.055 -13.267,28.055Z" style="fill:#00726a;fill-opacity:0.0784314;fill-rule:nonzero;"/><path d="M441.522,271.808c-5.639,0 -13.633,3.376 -20.864,8.828c-5.499,4.145 -9.937,8.963 -12.507,13.563c-2.325,4.172 -2.805,7.697 -1.319,9.67c1.214,1.611 3.538,1.947 5.274,1.947c5.64,0 13.634,-3.376 20.867,-8.826c11.778,-8.871 16.739,-19.359 13.824,-23.232c-1.214,-1.613 -3.542,-1.95 -5.275,-1.95Zm-29.416,37.041c-3.477,0 -6.144,-1.089 -7.701,-3.158c-2.27,-3.015 -1.876,-7.619 1.098,-12.964c2.767,-4.967 7.5,-10.126 13.327,-14.514c7.849,-5.91 16.33,-9.434 22.692,-9.434c3.475,0 6.141,1.09 7.698,3.156c4.48,5.943 -1.856,18.014 -14.424,27.476c-7.852,5.912 -16.327,9.438 -22.69,9.438Z" style="fill:#00726a;fill-opacity:0.0784314;fill-rule:nonzero;"/><path d="M412.288,274.019c-3.816,0 -6.478,1.032 -7.487,2.902c-2.302,4.262 4.175,13.886 17.149,20.897c6.811,3.681 13.874,5.791 19.391,5.791c3.816,0 6.475,-1.034 7.485,-2.9c2.302,-4.26 -4.172,-13.892 -17.151,-20.903c-6.805,-3.679 -13.872,-5.787 -19.387,-5.787Zm29.053,32.618c-6.001,0 -13.596,-2.241 -20.835,-6.148c-13.837,-7.481 -21.912,-18.47 -18.373,-25.012c1.587,-2.938 5.101,-4.489 10.155,-4.489c6.001,0 13.597,2.243 20.83,6.153c13.844,7.477 21.913,18.465 18.379,25.006c-1.593,2.94 -5.102,4.49 -10.156,4.49Z" style="fill:#00726a;fill-opacity:0.0784314;fill-rule:nonzero;"/><path d="M430.354,288.81c0,1.958 -1.587,3.544 -3.538,3.544c-1.956,0 -3.539,-1.586 -3.539,-3.544c0,-1.947 1.583,-3.538 3.539,-3.538c1.951,0 3.538,1.591 3.538,3.538Z" style="fill:#00726a;fill-opacity:0.0784314;fill-rule:nonzero;"/><path d="M342.152,107.124c-0.991,0 -1.795,-0.808 -1.795,-1.801c0,-0.994 0.804,-1.799 1.795,-1.799c0.996,0 1.801,0.805 1.801,1.799c0,0.993 -0.805,1.801 -1.801,1.801Zm-24.941,0c-0.994,0 -1.799,-0.808 -1.799,-1.801c0,-0.994 0.805,-1.799 1.799,-1.799c0.989,0 1.795,0.805 1.795,1.799c0,0.993 -0.806,1.801 -1.795,1.801Zm34.393,-27.847c0,-1.593 -1.072,-2.882 -2.395,-2.882l-28.018,0c-1.323,0 -2.02,1.289 -2.02,2.882c0,1.308 2.102,2.399 2.102,2.748l0,18.973c0,-0.128 -1.514,-0.202 -2.065,-0.202c-3.568,0 -6.7,2.891 -6.7,6.459c0,3.57 2.776,6.462 6.344,6.462c3.568,0 6.434,-3.332 6.434,-6.906c0,-0.386 -0.136,-20.669 -0.158,-25.541l18.076,0l0,19.728c0,-0.128 -0.008,-0.202 -0.555,-0.202c-3.57,0 -5.951,2.891 -5.951,6.459c0,3.57 3.148,6.462 6.718,6.462c3.574,0 6.627,-2.892 6.627,-6.462c0,-0.396 -0.014,-20.648 -0.034,-25.303c0.893,-0.416 1.595,-1.456 1.595,-2.675Z" style="fill:#00726a;fill-opacity:0;fill-rule:nonzero;"/><path d="M333.524,247.23l0.416,0.359l25.632,-21.759l-10.569,2.302l-15.479,19.098Z" style="fill:#00726a;fill-opacity:0.0666667;fill-rule:nonzero;"/><path d="M354.235,222.597c-0.335,0.204 -0.813,0.103 -1.028,-0.21c-0.22,-0.331 -0.117,-0.767 0.227,-0.981l0.401,-0.107c0.255,0 0.489,0.121 0.626,0.329c0.221,0.321 0.12,0.759 -0.226,0.969Zm30.305,-2.58c0.072,2.187 -2.66,4.052 -6.09,4.145c-3.247,0.099 -5.464,-1.423 -5.541,-3.723c-0.075,-2.385 2.1,-4.117 5.29,-4.208l0.277,-0.006c3.33,0 5.997,1.67 6.064,3.792Zm-5.995,-5.276c-4.105,0.125 -7.447,2.231 -7.972,4.858c-1.551,0.153 -4.814,0.434 -7.352,0.353c-3.415,-0.103 -8.838,-1.892 -8.893,-1.908l-0.101,-0.034l-31.215,12.515l0.174,0.511l47.526,-9.337c0.83,2.366 3.988,4.248 7.817,4.248l0.363,-0.163c2.185,-0.065 4.214,-0.754 5.729,-1.806c1.55,-1.078 2.37,-2.519 2.326,-3.992c-0.097,-2.994 -3.815,-5.356 -8.402,-5.245Z" style="fill:#00726a;fill-opacity:0.0666667;fill-rule:nonzero;"/><path d="M363.267,200.44c1.192,-2.275 3.284,-3.8 5.196,-3.8c0.472,0 0.919,0.099 1.322,0.289c2.066,0.971 2.51,4.133 0.982,7.039c-1.077,2.06 -2.813,3.293 -4.638,3.293c-0.568,0 -1.119,-0.123 -1.63,-0.365c-1.014,-0.479 -1.714,-1.357 -1.957,-2.468c-0.264,-1.199 -0.012,-2.578 0.725,-3.988Zm-2.853,16.607l5.004,-9.061l0.016,0c2.572,0 5.351,-1.365 6.906,-4.331c2.023,-3.857 1.351,-7.754 -1.486,-9.087c-0.582,-0.276 -1.22,-0.254 -1.897,-0.254c-2.572,0 -5.352,2.078 -6.907,5.054c-1.68,3.209 -1.521,6.829 0.357,8.655l-4.079,8.535l2.086,0.489Z" style="fill:#00726a;fill-opacity:0.0666667;fill-rule:nonzero;"/><path d="M377.828,298.599l-8.759,-3.871c-0.681,-0.301 -1.477,0.004 -1.775,0.685c-0.303,0.682 0.002,1.286 0.684,1.583l3.021,1.153l-44.855,0l0,-36.724l0.589,3.049c0.219,0.509 0.35,0.812 0.873,0.812c0.179,0 0.179,-0.031 0.349,-0.111c0.683,-0.293 0.909,-1.089 0.616,-1.771l-3.95,-9.038c-0.212,-0.495 -0.717,-0.81 -1.256,-0.816c-0.549,-0.01 -1.029,0.319 -1.246,0.804l-3.885,8.761c-0.298,0.675 0.003,1.474 0.687,1.771c0.679,0.307 1.117,-0.002 1.418,-0.681l0.934,-2.927l0,38.597c0,0.745 1.321,0.709 2.064,0.709l47.327,0l-2.954,1.597c-0.685,0.293 -1.002,1.248 -0.701,1.932c0.214,0.509 0.711,0.895 1.232,0.895c0.183,0 0.361,0.002 0.535,-0.075l9.042,-3.883c0.492,-0.21 0.812,-0.684 0.816,-1.219c0,-0.539 -0.313,-1.014 -0.806,-1.232Z" style="fill:#00726a;fill-opacity:0.529412;fill-rule:nonzero;"/><path d="M335.891,295.712l0,-19.191c0,-1.741 -0.697,-3.152 -2.436,-3.152c-1.736,0 -2.437,1.411 -2.437,3.152l0,19.191l4.873,0Z" style="fill:#00726a;fill-opacity:0;fill-rule:nonzero;"/><path d="M345.641,295.712l0,-24.136c0,-1.739 -0.702,-3.146 -2.437,-3.146c-1.74,0 -2.437,1.407 -2.437,3.146l0,24.136l4.874,0Z" style="fill:#00726a;fill-opacity:0;fill-rule:nonzero;"/><path d="M357.823,295.712l0,-29.524c0,-1.74 -0.702,-3.144 -2.437,-3.144c-1.738,0 -2.437,1.404 -2.437,3.144l0,29.524l4.874,0Z" style="fill:#00726a;fill-opacity:0.529412;fill-rule:nonzero;"/><path d="M449.516,31.072c0,3.231 -2.623,5.85 -5.851,5.85c-3.233,0 -5.856,-2.619 -5.856,-5.85c0,-3.231 2.623,-5.85 5.856,-5.85c3.228,0 5.851,2.619 5.851,5.85Z" style="fill:#00726a;fill-opacity:0.741176;fill-rule:nonzero;"/><path d="M392.811,252.478c0,3.229 -2.621,5.85 -5.852,5.85c-3.225,0 -5.85,-2.621 -5.85,-5.85c0,-3.229 2.625,-5.848 5.85,-5.848c3.231,0 5.852,2.619 5.852,5.848Z" style="fill:#00726a;fill-opacity:0.294118;fill-rule:nonzero;"/><path d="M317.209,149.877c0,3.229 -2.621,5.848 -5.852,5.848c-3.229,0 -5.85,-2.619 -5.85,-5.848c0,-3.233 2.621,-5.852 5.85,-5.852c3.231,0 5.852,2.619 5.852,5.852Z" style="fill:#00726a;fill-opacity:0.611765;fill-rule:nonzero;"/><path d="M530.784,190.845c0,3.231 -2.619,5.85 -5.851,5.85c-3.231,0 -5.852,-2.619 -5.852,-5.85c0,-3.231 2.621,-5.85 5.852,-5.85c3.232,0 5.851,2.619 5.851,5.85Z" style="fill:#00726a;fill-opacity:0.223529;fill-rule:nonzero;"/><path d="M553.65,105.325c0,3.231 -2.621,5.854 -5.848,5.854c-3.235,0 -5.855,-2.623 -5.855,-5.854c0,-3.227 2.62,-5.85 5.855,-5.85c3.227,0 5.848,2.623 5.848,5.85Z" style="fill:#00726a;fill-opacity:0.345098;fill-rule:nonzero;"/><path d="M511.612,292.981c0,3.229 -2.617,5.848 -5.848,5.848c-3.233,0 -5.852,-2.619 -5.852,-5.848c0,-3.232 2.619,-5.851 5.852,-5.851c3.231,0 5.848,2.619 5.848,5.851Z" style="fill:#00726a;fill-opacity:0.270588;fill-rule:nonzero;"/><path d="M473.812,253.825c0,2.489 -2.017,4.503 -4.501,4.503c-2.484,0 -4.499,-2.014 -4.499,-4.503c0,-2.484 2.015,-4.497 4.499,-4.497c2.484,0 4.501,2.013 4.501,4.497Z" style="fill:#00726a;fill-opacity:0.294118;fill-rule:nonzero;"/><path d="M387.409,113.424c0,2.484 -2.015,4.501 -4.497,4.501c-2.487,0 -4.503,-2.017 -4.503,-4.501c0,-2.484 2.016,-4.499 4.503,-4.499c2.482,0 4.497,2.015 4.497,4.499Z" style="fill:#00726a;fill-opacity:0.611765;fill-rule:nonzero;"/><path d="M302.117,120.734c0,2.485 -2.013,4.502 -4.493,4.502c-2.491,0 -4.503,-2.017 -4.503,-4.502c0,-2.484 2.012,-4.499 4.503,-4.499c2.48,0 4.493,2.015 4.493,4.499Z" style="fill:#00726a;fill-opacity:0.294118;fill-rule:nonzero;"/><path d="M570.789,274.386c0,2.482 -2.015,4.499 -4.495,4.499c-2.491,0 -4.503,-2.017 -4.503,-4.499c0,-2.485 2.012,-4.504 4.503,-4.504c2.48,0 4.495,2.019 4.495,4.504Z" style="fill:#00726a;fill-rule:nonzero;"/><path d="M573.713,148.524c0,2.486 -2.013,4.503 -4.497,4.503c-2.487,0 -4.501,-2.017 -4.501,-4.503c0,-2.484 2.014,-4.499 4.501,-4.499c2.484,0 4.497,2.015 4.497,4.499Z" style="fill:#00726a;fill-opacity:0.807843;fill-rule:nonzero;"/><path d="M468.412,164.726c0,2.482 -2.013,4.501 -4.498,4.501c-2.49,0 -4.503,-2.019 -4.503,-4.501c0,-2.485 2.013,-4.501 4.503,-4.501c2.485,0 4.498,2.016 4.498,4.501Z" style="fill:#00726a;fill-opacity:0.235294;fill-rule:nonzero;"/><path d="M301.009,251.129c0,2.484 -2.018,4.501 -4.501,4.501c-2.488,0 -4.503,-2.017 -4.503,-4.501c0,-2.484 2.015,-4.499 4.503,-4.499c2.483,0 4.501,2.015 4.501,4.499Z" style="fill:#00726a;fill-opacity:0.811765;fill-rule:nonzero;"/><path d="M290.206,155.276c0,1.739 -1.408,3.15 -3.144,3.15c-1.745,0 -3.156,-1.411 -3.156,-3.15c0,-1.74 1.411,-3.15 3.156,-3.15c1.736,0 3.144,1.41 3.144,3.15Z" style="fill:#00726a;fill-rule:nonzero;"/><path d="M390.111,195.776c0,1.741 -1.412,3.152 -3.152,3.152c-1.741,0 -3.146,-1.411 -3.146,-3.152c0,-1.737 1.405,-3.148 3.146,-3.148c1.74,0 3.152,1.411 3.152,3.148Z" style="fill:#00726a;fill-rule:nonzero;"/><path d="M490.014,125.574c0,1.742 -1.415,3.152 -3.152,3.152c-1.741,0 -3.152,-1.41 -3.152,-3.152c0,-1.739 1.411,-3.15 3.152,-3.15c1.737,0 3.152,1.411 3.152,3.15Z" style="fill:#00726a;fill-opacity:0.235294;fill-rule:nonzero;"/><path d="M511.612,44.574c0,1.739 -1.41,3.152 -3.15,3.152c-1.737,0 -3.146,-1.413 -3.146,-3.152c0,-1.74 1.409,-3.15 3.146,-3.15c1.74,0 3.15,1.41 3.15,3.15Z" style="fill:#00726a;fill-rule:nonzero;"/><path d="M433.314,60.771c0,1.74 -1.415,3.152 -3.154,3.152c-1.74,0 -3.146,-1.412 -3.146,-3.152c0,-1.735 1.406,-3.148 3.146,-3.148c1.739,0 3.154,1.413 3.154,3.148Z" style="fill:#00726a;fill-opacity:0.294118;fill-rule:nonzero;"/><path d="M352.309,63.474c0,1.737 -1.409,3.15 -3.15,3.15c-1.739,0 -3.15,-1.413 -3.15,-3.15c0,-1.742 1.411,-3.152 3.15,-3.152c1.741,0 3.15,1.41 3.15,3.152Z" style="fill:#00726a;fill-opacity:0.721569;fill-rule:nonzero;"/><path d="M379.31,279.479c0,1.736 -1.411,3.152 -3.148,3.152c-1.741,0 -3.154,-1.416 -3.154,-3.152c0,-1.739 1.413,-3.156 3.154,-3.156c1.737,0 3.148,1.417 3.148,3.156Z" style="fill:#00726a;fill-opacity:0.529412;fill-rule:nonzero;"/><path d="M465.709,284.88c0,1.735 -1.406,3.15 -3.15,3.15c-1.735,0 -3.148,-1.415 -3.148,-3.15c0,-1.736 1.413,-3.152 3.148,-3.152c1.744,0 3.15,1.416 3.15,3.152Z" style="fill:#00726a;fill-rule:nonzero;"/><path d="M601.798,192.499c0,1.738 -1.413,3.148 -3.152,3.148c-1.742,0 -3.148,-1.41 -3.148,-3.148c0,-1.741 1.406,-3.154 3.148,-3.154c1.739,0 3.152,1.413 3.152,3.154Z" style="fill:#00726a;fill-opacity:0.294118;fill-rule:nonzero;"/><path d="M560.774,186.14c0,1.739 -1.412,3.152 -3.152,3.152c-1.739,0 -3.152,-1.413 -3.152,-3.152c0,-1.738 1.413,-3.152 3.152,-3.152c1.74,0 3.152,1.414 3.152,3.152Z" style="fill:#00726a;fill-rule:nonzero;"/></g></svg>